<?xml version="1.0" encoding="us-ascii" standalone="no"?><svg xmlns="http://www.w3.org/2000/svg" xmlns:xlink="http://www.w3.org/1999/xlink" contentStyleType="text/css" height="2015px" preserveAspectRatio="none" style="width:672px;height:2015px;background:#FFFFFF;" version="1.1" viewBox="0 0 672 2015" width="672px" zoomAndPan="magnify"><defs><filter height="300%" id="f55asbyse5ufy" width="300%" x="-1" y="-1"><feGaussianBlur result="blurOut" stdDeviation="2.0"/><feColorMatrix in="blurOut" result="blurOut2" type="matrix" values="0 0 0 0 0 0 0 0 0 0 0 0 0 0 0 0 0 0 .4 0"/><feOffset dx="4.0" dy="4.0" in="blurOut2" result="blurOut3"/><feBlend in="SourceGraphic" in2="blurOut3" mode="normal"/></filter></defs><g><text fill="#000000" font-family="sans-serif" font-size="14" font-weight="bold" lengthAdjust="spacing" textLength="188" x="240.75" y="27.6738">Port-viz sequence diagram</text><rect fill="none" filter="url(#f55asbyse5ufy)" height="1865.6172" style="stroke:#000000;stroke-width:1.5;" width="651.5" x="9" y="92.2813"/><rect fill="none" filter="url(#f55asbyse5ufy)" height="1788.2813" style="stroke:#000000;stroke-width:1.5;" width="631.5" x="19" y="115.8047"/><rect fill="none" filter="url(#f55asbyse5ufy)" height="1167.8047" style="stroke:#000000;stroke-width:1.5;" width="611.5" x="29" y="279.9922"/><rect fill="none" filter="url(#f55asbyse5ufy)" height="798.375" style="stroke:#000000;stroke-width:1.5;" width="591.5" x="39" y="398.6094"/><rect fill="none" filter="url(#f55asbyse5ufy)" height="400.4219" style="stroke:#000000;stroke-width:1.5;" width="571.5" x="49" y="517.2266"/><rect fill="#FFC0CB" filter="url(#f55asbyse5ufy)" height="171.1875" style="stroke:#000000;stroke-width:1.5;" width="551.5" x="59" y="739.4609"/><rect fill="#FFC0CB" height="140.4297" style="stroke:none;stroke-width:1.0;" width="591.5" x="39" y="924.6484"/><rect fill="#FFC0CB" height="131.9063" style="stroke:none;stroke-width:1.0;" width="591.5" x="39" y="1065.0781"/><rect fill="#FFC0CB" height="140.4297" style="stroke:none;stroke-width:1.0;" width="611.5" x="29" y="1203.9844"/><rect fill="#FFC0CB" height="103.3828" style="stroke:none;stroke-width:1.0;" width="611.5" x="29" y="1344.4141"/><rect fill="#FFC0CB" height="172.9531" style="stroke:none;stroke-width:1.0;" width="631.5" x="19" y="1454.7969"/><rect fill="#FFC0CB" height="172.9531" style="stroke:none;stroke-width:1.0;" width="631.5" x="19" y="1627.75"/><rect fill="#FFC0CB" height="103.3828" style="stroke:none;stroke-width:1.0;" width="631.5" x="19" y="1800.7031"/><rect fill="#FFC0CB" height="46.8125" style="stroke:none;stroke-width:1.0;" width="651.5" x="9" y="1911.0859"/><line style="stroke:#181818;stroke-width:0.5;stroke-dasharray:5.0,5.0;" x1="309" x2="309" y1="75.2813" y2="1974.8984"/><line style="stroke:#181818;stroke-width:0.5;stroke-dasharray:5.0,5.0;" x1="422" x2="422" y1="75.2813" y2="1974.8984"/><line style="stroke:#181818;stroke-width:0.5;stroke-dasharray:5.0,5.0;" x1="544.5" x2="544.5" y1="75.2813" y2="1974.8984"/><rect fill="#FFFF00" filter="url(#f55asbyse5ufy)" height="29.6406" rx="2.5" ry="2.5" style="stroke:#181818;stroke-width:0.5;" width="50" x="283" y="41.6406"/><text fill="#000000" font-family="sans-serif" font-size="14" lengthAdjust="spacing" textLength="36" x="290" y="61.3145">Client</text><rect fill="#FFFF00" filter="url(#f55asbyse5ufy)" height="29.6406" rx="2.5" ry="2.5" style="stroke:#181818;stroke-width:0.5;" width="50" x="283" y="1973.8984"/><text fill="#000000" font-family="sans-serif" font-size="14" lengthAdjust="spacing" textLength="36" x="290" y="1993.5723">Client</text><rect fill="#FFFF00" filter="url(#f55asbyse5ufy)" height="29.6406" rx="2.5" ry="2.5" style="stroke:#181818;stroke-width:0.5;" width="56" x="393" y="41.6406"/><text fill="#000000" font-family="sans-serif" font-size="14" lengthAdjust="spacing" textLength="42" x="400" y="61.3145">Server</text><rect fill="#FFFF00" filter="url(#f55asbyse5ufy)" height="29.6406" rx="2.5" ry="2.5" style="stroke:#181818;stroke-width:0.5;" width="56" x="393" y="1973.8984"/><text fill="#000000" font-family="sans-serif" font-size="14" lengthAdjust="spacing" textLength="42" x="400" y="1993.5723">Server</text><rect fill="#FFFF00" filter="url(#f55asbyse5ufy)" height="29.6406" rx="2.5" ry="2.5" style="stroke:#181818;stroke-width:0.5;" width="109" x="488.5" y="41.6406"/><text fill="#000000" font-family="sans-serif" font-size="14" lengthAdjust="spacing" textLength="95" x="495.5" y="61.3145">Network device</text><rect fill="#FFFF00" filter="url(#f55asbyse5ufy)" height="29.6406" rx="2.5" ry="2.5" style="stroke:#181818;stroke-width:0.5;" width="109" x="488.5" y="1973.8984"/><text fill="#000000" font-family="sans-serif" font-size="14" lengthAdjust="spacing" textLength="95" x="495.5" y="1993.5723">Network device</text><path d="M9,92.2813 L70,92.2813 L70,98.8047 L60,108.8047 L9,108.8047 L9,92.2813 " fill="#EEEEEE" style="stroke:#000000;stroke-width:1.5;"/><rect fill="none" height="1865.6172" style="stroke:#000000;stroke-width:1.5;" width="651.5" x="9" y="92.2813"/><text fill="#000000" font-family="sans-serif" font-size="13" font-weight="bold" lengthAdjust="spacing" textLength="16" x="24" y="105.0498">alt</text><text fill="#000000" font-family="sans-serif" font-size="11" font-weight="bold" lengthAdjust="spacing" textLength="92" x="85" y="104.2393">[Form validation]</text><path d="M19,115.8047 L80,115.8047 L80,122.3281 L70,132.3281 L19,132.3281 L19,115.8047 " fill="#EEEEEE" style="stroke:#000000;stroke-width:1.5;"/><rect fill="none" height="1788.2813" style="stroke:#000000;stroke-width:1.5;" width="631.5" x="19" y="115.8047"/><text fill="#000000" font-family="sans-serif" font-size="13" font-weight="bold" lengthAdjust="spacing" textLength="16" x="34" y="128.5732">alt</text><text fill="#000000" font-family="sans-serif" font-size="11" font-weight="bold" lengthAdjust="spacing" textLength="99" x="95" y="127.7627">[Form data check]</text><polygon fill="#0000FF" points="410.5,204.9219,420.5,208.9219,410.5,212.9219,414.5,208.9219" style="stroke:#0000FF;stroke-width:1.0;"/><line style="stroke:#0000FF;stroke-width:1.0;stroke-dasharray:2.0,2.0;" x1="309.5" x2="416.5" y1="208.9219" y2="208.9219"/><text fill="#000000" font-family="sans-serif" font-size="13" lengthAdjust="spacing" textLength="89" x="316.5" y="204.167">WS connection</text><path d="M60,137.3281 L60,264.3281 L300,264.3281 L300,147.3281 L290,137.3281 L60,137.3281 " fill="#ADD8E6" filter="url(#f55asbyse5ufy)" style="stroke:#181818;stroke-width:0.5;"/><path d="M290,137.3281 L290,147.3281 L300,147.3281 L290,137.3281 " fill="#ADD8E6" style="stroke:#181818;stroke-width:0.5;"/><text fill="#000000" font-family="sans-serif" font-size="13" lengthAdjust="spacing" textLength="92" x="66" y="154.0967">WS data (Client</text><path d="M168.4167,144.9349 L168.4167,147.1016 L163,147.1016 L163,148.1849 L168.4167,148.1849 L168.4167,150.3516 L171.6667,147.6107 L168.4167,144.9349 " fill="#000000" style="stroke:;stroke-width:0.0;stroke-dasharray:;"/><text fill="#000000" font-family="sans-serif" font-size="13" lengthAdjust="spacing" textLength="44" x="176.6667" y="154.0967">Server):</text><text fill="#000000" font-family="sans-serif" font-size="13" lengthAdjust="spacing" textLength="104" x="82" y="168.6201">ip: device address</text><text fill="#000000" font-family="sans-serif" font-size="13" lengthAdjust="spacing" textLength="74" x="82" y="183.1436">detach: false</text><line style="stroke:#181818;stroke-width:1.0;stroke-dasharray:1.0,2.0;" x1="61" x2="299.6667" y1="185.8984" y2="185.8984"/><text fill="#000000" font-family="sans-serif" font-size="13" lengthAdjust="spacing" textLength="92" x="66" y="201.667">Indiction status:</text><text fill="#000000" font-family="sans-serif" font-size="13" lengthAdjust="spacing" textLength="101" x="82" y="216.1904">DISCONNECTED</text><path d="M193.4167,207.0286 L193.4167,209.1953 L188,209.1953 L188,210.2786 L193.4167,210.2786 L193.4167,212.4453 L196.6667,209.7045 L193.4167,207.0286 " fill="#000000" style="stroke:;stroke-width:0.0;stroke-dasharray:;"/><text fill="#000000" font-family="sans-serif" font-size="13" lengthAdjust="spacing" textLength="84" x="201.6667" y="216.1904">CONNECTING</text><line style="stroke:#181818;stroke-width:1.0;stroke-dasharray:1.0,2.0;" x1="61" x2="299.6667" y1="222.9453" y2="222.9453"/><text fill="#000000" font-family="sans-serif" font-size="13" lengthAdjust="spacing" textLength="117" x="66" y="238.7139">Form submit button:</text><text fill="#000000" font-family="sans-serif" font-size="13" lengthAdjust="spacing" textLength="62" x="82" y="253.2373">CONNECT</text><path d="M154.4167,244.0755 L154.4167,246.2422 L149,246.2422 L149,247.3255 L154.4167,247.3255 L154.4167,249.4922 L157.6667,246.7514 L154.4167,244.0755 " fill="#000000" style="stroke:;stroke-width:0.0;stroke-dasharray:;"/><text fill="#000000" font-family="sans-serif" font-size="13" lengthAdjust="spacing" textLength="52" x="162.6667" y="253.2373">DETACH</text><path d="M29,279.9922 L90,279.9922 L90,286.5156 L80,296.5156 L29,296.5156 L29,279.9922 " fill="#EEEEEE" style="stroke:#000000;stroke-width:1.5;"/><rect fill="none" height="1167.8047" style="stroke:#000000;stroke-width:1.5;" width="611.5" x="29" y="279.9922"/><text fill="#000000" font-family="sans-serif" font-size="13" font-weight="bold" lengthAdjust="spacing" textLength="16" x="44" y="292.7607">alt</text><text fill="#000000" font-family="sans-serif" font-size="11" font-weight="bold" lengthAdjust="spacing" textLength="108" x="105" y="291.9502">[Device connection]</text><polygon fill="#0000FF" points="532.5,313.0391,542.5,317.0391,532.5,321.0391,536.5,317.0391" style="stroke:#0000FF;stroke-width:1.0;"/><line style="stroke:#0000FF;stroke-width:1.0;stroke-dasharray:2.0,2.0;" x1="422.5" x2="538.5" y1="317.0391" y2="317.0391"/><text fill="#000000" font-family="sans-serif" font-size="13" lengthAdjust="spacing" textLength="94" x="429.5" y="312.2842">SSH connection</text><polygon fill="#0000FF" points="320.5,360.5859,310.5,364.5859,320.5,368.5859,316.5,364.5859" style="stroke:#0000FF;stroke-width:1.0;"/><line style="stroke:#0000FF;stroke-width:1.0;" x1="314.5" x2="421.5" y1="364.5859" y2="364.5859"/><text fill="#000000" font-family="sans-serif" font-size="13" lengthAdjust="spacing" textLength="79" x="326.5" y="359.8311">WS response</text><path d="M125,330.0391 L125,383.0391 L300,383.0391 L300,340.0391 L290,330.0391 L125,330.0391 " fill="#ADD8E6" filter="url(#f55asbyse5ufy)" style="stroke:#181818;stroke-width:0.5;"/><path d="M290,330.0391 L290,340.0391 L300,340.0391 L290,330.0391 " fill="#ADD8E6" style="stroke:#181818;stroke-width:0.5;"/><text fill="#000000" font-family="sans-serif" font-size="13" lengthAdjust="spacing" textLength="92" x="131" y="346.8076">WS data (Client</text><path d="M231.25,337.6458 L228,340.3867 L231.25,343.0625 L231.25,340.8958 L236.6667,340.8958 L236.6667,339.8125 L231.25,339.8125 L231.25,337.6458 " fill="#000000" style="stroke:;stroke-width:0.0;stroke-dasharray:;"/><text fill="#000000" font-family="sans-serif" font-size="13" lengthAdjust="spacing" textLength="44" x="241.6667" y="346.8076">Server):</text><text fill="#000000" font-family="sans-serif" font-size="13" lengthAdjust="spacing" textLength="117" x="147" y="361.3311">status: "connecting"</text><text fill="#000000" font-family="sans-serif" font-size="13" lengthAdjust="spacing" textLength="116" x="147" y="375.8545">model: "not defined"</text><path d="M39,398.6094 L100,398.6094 L100,405.1328 L90,415.1328 L39,415.1328 L39,398.6094 " fill="#EEEEEE" style="stroke:#000000;stroke-width:1.5;"/><rect fill="none" height="798.375" style="stroke:#000000;stroke-width:1.5;" width="591.5" x="39" y="398.6094"/><text fill="#000000" font-family="sans-serif" font-size="13" font-weight="bold" lengthAdjust="spacing" textLength="16" x="54" y="411.3779">alt</text><text fill="#000000" font-family="sans-serif" font-size="11" font-weight="bold" lengthAdjust="spacing" textLength="89" x="115" y="410.5674">[Get model info]</text><polygon fill="#0000FF" points="433.5,431.6563,423.5,435.6563,433.5,439.6563,429.5,435.6563" style="stroke:#0000FF;stroke-width:1.0;"/><line style="stroke:#0000FF;stroke-width:1.0;" x1="427.5" x2="543.5" y1="435.6563" y2="435.6563"/><text fill="#000000" font-family="sans-serif" font-size="13" lengthAdjust="spacing" textLength="98" x="439.5" y="430.9014">SSH (model info)</text><polygon fill="#0000FF" points="320.5,479.2031,310.5,483.2031,320.5,487.2031,316.5,483.2031" style="stroke:#0000FF;stroke-width:1.0;"/><line style="stroke:#0000FF;stroke-width:1.0;" x1="314.5" x2="421.5" y1="483.2031" y2="483.2031"/><text fill="#000000" font-family="sans-serif" font-size="13" lengthAdjust="spacing" textLength="79" x="326.5" y="478.4482">WS response</text><path d="M125,448.6563 L125,501.6563 L300,501.6563 L300,458.6563 L290,448.6563 L125,448.6563 " fill="#ADD8E6" filter="url(#f55asbyse5ufy)" style="stroke:#181818;stroke-width:0.5;"/><path d="M290,448.6563 L290,458.6563 L300,458.6563 L290,448.6563 " fill="#ADD8E6" style="stroke:#181818;stroke-width:0.5;"/><text fill="#000000" font-family="sans-serif" font-size="13" lengthAdjust="spacing" textLength="92" x="131" y="465.4248">WS data (Client</text><path d="M231.25,456.263 L228,459.0039 L231.25,461.6797 L231.25,459.513 L236.6667,459.513 L236.6667,458.4297 L231.25,458.4297 L231.25,456.263 " fill="#000000" style="stroke:;stroke-width:0.0;stroke-dasharray:;"/><text fill="#000000" font-family="sans-serif" font-size="13" lengthAdjust="spacing" textLength="44" x="241.6667" y="465.4248">Server):</text><text fill="#000000" font-family="sans-serif" font-size="13" lengthAdjust="spacing" textLength="117" x="147" y="479.9482">status: "connecting"</text><text fill="#000000" font-family="sans-serif" font-size="13" lengthAdjust="spacing" textLength="118" x="147" y="494.4717">model: device model</text><path d="M49,517.2266 L122,517.2266 L122,523.75 L112,533.75 L49,533.75 L49,517.2266 " fill="#EEEEEE" style="stroke:#000000;stroke-width:1.5;"/><rect fill="none" height="400.4219" style="stroke:#000000;stroke-width:1.5;" width="571.5" x="49" y="517.2266"/><text fill="#000000" font-family="sans-serif" font-size="13" font-weight="bold" lengthAdjust="spacing" textLength="28" x="64" y="529.9951">loop</text><text fill="#000000" font-family="sans-serif" font-size="11" font-weight="bold" lengthAdjust="spacing" textLength="86" x="137" y="529.1846">[Get ports data]</text><polygon fill="#0000FF" points="433.5,550.2734,423.5,554.2734,433.5,558.2734,429.5,554.2734" style="stroke:#0000FF;stroke-width:1.0;"/><line style="stroke:#0000FF;stroke-width:1.0;" x1="427.5" x2="543.5" y1="554.2734" y2="554.2734"/><text fill="#000000" font-family="sans-serif" font-size="13" lengthAdjust="spacing" textLength="97" x="439.5" y="549.5186">SSH (ports data)</text><polygon fill="#0000FF" points="320.5,623.6055,310.5,627.6055,320.5,631.6055,316.5,627.6055" style="stroke:#0000FF;stroke-width:1.0;"/><line style="stroke:#0000FF;stroke-width:1.0;" x1="314.5" x2="421.5" y1="627.6055" y2="627.6055"/><text fill="#000000" font-family="sans-serif" font-size="13" lengthAdjust="spacing" textLength="79" x="326.5" y="622.8506">WS response</text><path d="M86,567.2734 L86,672.2734 L300,672.2734 L300,577.2734 L290,567.2734 L86,567.2734 " fill="#ADD8E6" filter="url(#f55asbyse5ufy)" style="stroke:#181818;stroke-width:0.5;"/><path d="M290,567.2734 L290,577.2734 L300,577.2734 L290,567.2734 " fill="#ADD8E6" style="stroke:#181818;stroke-width:0.5;"/><text fill="#000000" font-family="sans-serif" font-size="13" lengthAdjust="spacing" textLength="92" x="92" y="584.042">WS data (Client</text><path d="M192.25,574.8802 L189,577.621 L192.25,580.2969 L192.25,578.1302 L197.6667,578.1302 L197.6667,577.0469 L192.25,577.0469 L192.25,574.8802 " fill="#000000" style="stroke:;stroke-width:0.0;stroke-dasharray:;"/><text fill="#000000" font-family="sans-serif" font-size="13" lengthAdjust="spacing" textLength="44" x="202.6667" y="584.042">Server):</text><text fill="#000000" font-family="sans-serif" font-size="13" lengthAdjust="spacing" textLength="114" x="108" y="598.5654">status: "connected"</text><text fill="#000000" font-family="sans-serif" font-size="13" lengthAdjust="spacing" textLength="118" x="108" y="613.0889">model: device model</text><text fill="#000000" font-family="sans-serif" font-size="13" lengthAdjust="spacing" textLength="95" x="108" y="627.6123">ports: ports data</text><line style="stroke:#181818;stroke-width:1.0;stroke-dasharray:1.0,2.0;" x1="87" x2="299.6667" y1="630.3672" y2="630.3672"/><text fill="#000000" font-family="sans-serif" font-size="13" lengthAdjust="spacing" textLength="92" x="92" y="646.1357">Indiction status:</text><text fill="#000000" font-family="sans-serif" font-size="13" lengthAdjust="spacing" textLength="84" x="108" y="660.6592">CONNECTING</text><path d="M202.4167,651.4974 L202.4167,653.6641 L197,653.6641 L197,654.7474 L202.4167,654.7474 L202.4167,656.9141 L205.6667,654.1732 L202.4167,651.4974 " fill="#000000" style="stroke:;stroke-width:0.0;stroke-dasharray:;"/><text fill="#000000" font-family="sans-serif" font-size="13" lengthAdjust="spacing" textLength="75" x="210.6667" y="660.6592">device model</text><polygon fill="#0000FF" points="410.5,708.6992,420.5,712.6992,410.5,716.6992,414.5,712.6992" style="stroke:#0000FF;stroke-width:1.0;"/><line style="stroke:#0000FF;stroke-width:1.0;" x1="309.5" x2="416.5" y1="712.6992" y2="712.6992"/><text fill="#000000" font-family="sans-serif" font-size="13" lengthAdjust="spacing" textLength="54" x="316.5" y="707.9443">WS send</text><path d="M125,685.4141 L125,724.4141 L300,724.4141 L300,695.4141 L290,685.4141 L125,685.4141 " fill="#ADD8E6" filter="url(#f55asbyse5ufy)" style="stroke:#181818;stroke-width:0.5;"/><path d="M290,685.4141 L290,695.4141 L300,695.4141 L290,685.4141 " fill="#ADD8E6" style="stroke:#181818;stroke-width:0.5;"/><text fill="#000000" font-family="sans-serif" font-size="13" lengthAdjust="spacing" textLength="92" x="131" y="702.1826">WS data (Client</text><path d="M233.4167,693.0208 L233.4167,695.1875 L228,695.1875 L228,696.2708 L233.4167,696.2708 L233.4167,698.4375 L236.6667,695.6967 L233.4167,693.0208 " fill="#000000" style="stroke:;stroke-width:0.0;stroke-dasharray:;"/><text fill="#000000" font-family="sans-serif" font-size="13" lengthAdjust="spacing" textLength="44" x="241.6667" y="702.1826">Server):</text><text fill="#000000" font-family="sans-serif" font-size="13" lengthAdjust="spacing" textLength="74" x="147" y="716.7061">detach: false</text><path d="M59,739.4609 L140,739.4609 L140,745.9844 L130,755.9844 L59,755.9844 L59,739.4609 " fill="#EEEEEE" style="stroke:#000000;stroke-width:1.5;"/><rect fill="none" height="171.1875" style="stroke:#000000;stroke-width:1.5;" width="551.5" x="59" y="739.4609"/><text fill="#000000" font-family="sans-serif" font-size="13" font-weight="bold" lengthAdjust="spacing" textLength="36" x="74" y="752.2295">break</text><text fill="#000000" font-family="sans-serif" font-size="11" font-weight="bold" lengthAdjust="spacing" textLength="196" x="155" y="751.4189">['detach: true' received from Client]</text><polygon fill="#FF0000" points="532.5,772.5078,542.5,776.5078,532.5,780.5078,536.5,776.5078" style="stroke:#FF0000;stroke-width:1.0;"/><line style="stroke:#FF0000;stroke-width:1.0;" x1="422.5" x2="538.5" y1="776.5078" y2="776.5078"/><text fill="#000000" font-family="sans-serif" font-size="13" lengthAdjust="spacing" textLength="94" x="429.5" y="771.7529">SSH disconnect</text><polygon fill="#FF0000" points="320.5,849.8398,310.5,853.8398,320.5,857.8398,316.5,853.8398" style="stroke:#FF0000;stroke-width:1.0;"/><line style="stroke:#FF0000;stroke-width:1.0;" x1="314.5" x2="421.5" y1="853.8398" y2="853.8398"/><text fill="#000000" font-family="sans-serif" font-size="13" lengthAdjust="spacing" textLength="57" x="326.5" y="849.085">WS close</text><path d="M69,789.5078 L69,902.5078 L300,902.5078 L300,799.5078 L290,789.5078 L69,789.5078 " fill="#FEFFDD" filter="url(#f55asbyse5ufy)" style="stroke:#181818;stroke-width:0.5;"/><path d="M290,789.5078 L290,799.5078 L300,799.5078 L290,789.5078 " fill="#FEFFDD" style="stroke:#181818;stroke-width:0.5;"/><text fill="#000000" font-family="sans-serif" font-size="13" lengthAdjust="spacing" textLength="92" x="75" y="806.2764">WS data (Client</text><path d="M177.4167,797.1146 L177.4167,799.2813 L172,799.2813 L172,800.3646 L177.4167,800.3646 L177.4167,802.5313 L180.6667,799.7904 L177.4167,797.1146 " fill="#000000" style="stroke:;stroke-width:0.0;stroke-dasharray:;"/><text fill="#000000" font-family="sans-serif" font-size="13" lengthAdjust="spacing" textLength="44" x="185.6667" y="806.2764">Server):</text><text fill="#000000" font-family="sans-serif" font-size="13" lengthAdjust="spacing" textLength="69" x="91" y="820.7998">detach: true</text><line style="stroke:#181818;stroke-width:1.0;stroke-dasharray:1.0,2.0;" x1="70" x2="299.6667" y1="823.5547" y2="823.5547"/><text fill="#000000" font-family="sans-serif" font-size="13" lengthAdjust="spacing" textLength="92" x="75" y="839.3232">Indiction status:</text><text fill="#000000" font-family="sans-serif" font-size="13" lengthAdjust="spacing" textLength="75" x="91" y="853.8467">device model</text><path d="M176.4167,844.6849 L176.4167,846.8516 L171,846.8516 L171,847.9349 L176.4167,847.9349 L176.4167,850.1016 L179.6667,847.3607 L176.4167,844.6849 " fill="#000000" style="stroke:;stroke-width:0.0;stroke-dasharray:;"/><text fill="#000000" font-family="sans-serif" font-size="13" lengthAdjust="spacing" textLength="101" x="184.6667" y="853.8467">DISCONNECTED</text><line style="stroke:#181818;stroke-width:1.0;stroke-dasharray:1.0,2.0;" x1="70" x2="299.6667" y1="860.6016" y2="860.6016"/><text fill="#000000" font-family="sans-serif" font-size="13" lengthAdjust="spacing" textLength="117" x="75" y="876.3701">Form submit button:</text><text fill="#000000" font-family="sans-serif" font-size="13" lengthAdjust="spacing" textLength="52" x="91" y="890.8936">DETACH</text><path d="M153.4167,881.7318 L153.4167,883.8984 L148,883.8984 L148,884.9818 L153.4167,884.9818 L153.4167,887.1484 L156.6667,884.4076 L153.4167,881.7318 " fill="#000000" style="stroke:;stroke-width:0.0;stroke-dasharray:;"/><text fill="#000000" font-family="sans-serif" font-size="13" lengthAdjust="spacing" textLength="62" x="161.6667" y="890.8936">CONNECT</text><line style="stroke:#000000;stroke-width:1.0;stroke-dasharray:2.0,2.0;" x1="39" x2="630.5" y1="925.6484" y2="925.6484"/><text fill="#000000" font-family="sans-serif" font-size="11" font-weight="bold" lengthAdjust="spacing" textLength="183" x="44" y="935.6064">[Netmiko exception (disconnect)]</text><polygon fill="#FF0000" points="320.5,1004.2695,310.5,1008.2695,320.5,1012.2695,316.5,1008.2695" style="stroke:#FF0000;stroke-width:1.0;"/><line style="stroke:#FF0000;stroke-width:1.0;" x1="314.5" x2="421.5" y1="1008.2695" y2="1008.2695"/><text fill="#000000" font-family="sans-serif" font-size="13" lengthAdjust="spacing" textLength="57" x="326.5" y="1003.5146">WS close</text><path d="M69,943.9375 L69,1056.9375 L300,1056.9375 L300,953.9375 L290,943.9375 L69,943.9375 " fill="#FEFFDD" filter="url(#f55asbyse5ufy)" style="stroke:#181818;stroke-width:0.5;"/><path d="M290,943.9375 L290,953.9375 L300,953.9375 L290,943.9375 " fill="#FEFFDD" style="stroke:#181818;stroke-width:0.5;"/><text fill="#000000" font-family="sans-serif" font-size="13" lengthAdjust="spacing" textLength="92" x="75" y="960.7061">WS data (Client</text><path d="M175.25,951.5443 L172,954.2851 L175.25,956.9609 L175.25,954.7943 L180.6667,954.7943 L180.6667,953.7109 L175.25,953.7109 L175.25,951.5443 " fill="#000000" style="stroke:;stroke-width:0.0;stroke-dasharray:;"/><text fill="#000000" font-family="sans-serif" font-size="13" lengthAdjust="spacing" textLength="44" x="185.6667" y="960.7061">Server):</text><text fill="#000000" font-family="sans-serif" font-size="13" lengthAdjust="spacing" textLength="131" x="91" y="975.2295">status: "disconnected"</text><line style="stroke:#181818;stroke-width:1.0;stroke-dasharray:1.0,2.0;" x1="70" x2="299.6667" y1="977.9844" y2="977.9844"/><text fill="#000000" font-family="sans-serif" font-size="13" lengthAdjust="spacing" textLength="92" x="75" y="993.7529">Indiction status:</text><text fill="#000000" font-family="sans-serif" font-size="13" lengthAdjust="spacing" textLength="75" x="91" y="1008.2764">device model</text><path d="M176.4167,999.1146 L176.4167,1001.2813 L171,1001.2813 L171,1002.3646 L176.4167,1002.3646 L176.4167,1004.5313 L179.6667,1001.7904 L176.4167,999.1146 " fill="#000000" style="stroke:;stroke-width:0.0;stroke-dasharray:;"/><text fill="#000000" font-family="sans-serif" font-size="13" lengthAdjust="spacing" textLength="101" x="184.6667" y="1008.2764">DISCONNECTED</text><line style="stroke:#181818;stroke-width:1.0;stroke-dasharray:1.0,2.0;" x1="70" x2="299.6667" y1="1015.0313" y2="1015.0313"/><text fill="#000000" font-family="sans-serif" font-size="13" lengthAdjust="spacing" textLength="117" x="75" y="1030.7998">Form submit button:</text><text fill="#000000" font-family="sans-serif" font-size="13" lengthAdjust="spacing" textLength="52" x="91" y="1045.3232">DETACH</text><path d="M153.4167,1036.1615 L153.4167,1038.3281 L148,1038.3281 L148,1039.4115 L153.4167,1039.4115 L153.4167,1041.5781 L156.6667,1038.8373 L153.4167,1036.1615 " fill="#000000" style="stroke:;stroke-width:0.0;stroke-dasharray:;"/><text fill="#000000" font-family="sans-serif" font-size="13" lengthAdjust="spacing" textLength="62" x="161.6667" y="1045.3232">CONNECT</text><line style="stroke:#000000;stroke-width:1.0;stroke-dasharray:2.0,2.0;" x1="39" x2="630.5" y1="1066.0781" y2="1066.0781"/><text fill="#000000" font-family="sans-serif" font-size="11" font-weight="bold" lengthAdjust="spacing" textLength="199" x="44" y="1076.0361">[Websocket exception (disconnect)]</text><polygon fill="#FF0000" points="320.5,1126.1758,310.5,1130.1758,320.5,1134.1758,316.5,1130.1758" style="stroke:#FF0000;stroke-width:1.0;"/><polygon fill="#FF0000" points="410.5,1126.1758,420.5,1130.1758,410.5,1134.1758,414.5,1130.1758" style="stroke:#FF0000;stroke-width:1.0;"/><line style="stroke:#FF0000;stroke-width:1.0;" x1="314.5" x2="416.5" y1="1130.1758" y2="1130.1758"/><text fill="#000000" font-family="sans-serif" font-size="13" lengthAdjust="spacing" textLength="89" x="326.5" y="1125.4209">WS disconnect</text><path d="M69,1084.3672 L69,1160.3672 L300,1160.3672 L300,1094.3672 L290,1084.3672 L69,1084.3672 " fill="#FEFFDD" filter="url(#f55asbyse5ufy)" style="stroke:#181818;stroke-width:0.5;"/><path d="M290,1084.3672 L290,1094.3672 L300,1094.3672 L290,1084.3672 " fill="#FEFFDD" style="stroke:#181818;stroke-width:0.5;"/><text fill="#000000" font-family="sans-serif" font-size="13" lengthAdjust="spacing" textLength="92" x="75" y="1101.1357">Indiction status:</text><text fill="#000000" font-family="sans-serif" font-size="13" lengthAdjust="spacing" textLength="75" x="91" y="1115.6592">device model</text><path d="M176.4167,1106.4974 L176.4167,1108.6641 L171,1108.6641 L171,1109.7474 L176.4167,1109.7474 L176.4167,1111.9141 L179.6667,1109.1732 L176.4167,1106.4974 " fill="#000000" style="stroke:;stroke-width:0.0;stroke-dasharray:;"/><text fill="#000000" font-family="sans-serif" font-size="13" lengthAdjust="spacing" textLength="101" x="184.6667" y="1115.6592">DISCONNECTED</text><line style="stroke:#181818;stroke-width:1.0;stroke-dasharray:1.0,2.0;" x1="70" x2="299.6667" y1="1118.4141" y2="1118.4141"/><text fill="#000000" font-family="sans-serif" font-size="13" lengthAdjust="spacing" textLength="117" x="75" y="1134.1826">Form submit button:</text><text fill="#000000" font-family="sans-serif" font-size="13" lengthAdjust="spacing" textLength="52" x="91" y="1148.7061">DETACH</text><path d="M153.4167,1139.5443 L153.4167,1141.7109 L148,1141.7109 L148,1142.7943 L153.4167,1142.7943 L153.4167,1144.9609 L156.6667,1142.2201 L153.4167,1139.5443 " fill="#000000" style="stroke:;stroke-width:0.0;stroke-dasharray:;"/><text fill="#000000" font-family="sans-serif" font-size="13" lengthAdjust="spacing" textLength="62" x="161.6667" y="1148.7061">CONNECT</text><polygon fill="#FF0000" points="532.5,1184.9844,542.5,1188.9844,532.5,1192.9844,536.5,1188.9844" style="stroke:#FF0000;stroke-width:1.0;"/><line style="stroke:#FF0000;stroke-width:1.0;" x1="422.5" x2="538.5" y1="1188.9844" y2="1188.9844"/><text fill="#000000" font-family="sans-serif" font-size="13" lengthAdjust="spacing" textLength="94" x="429.5" y="1184.2295">SSH disconnect</text><line style="stroke:#000000;stroke-width:1.0;stroke-dasharray:2.0,2.0;" x1="29" x2="640.5" y1="1204.9844" y2="1204.9844"/><text fill="#000000" font-family="sans-serif" font-size="11" font-weight="bold" lengthAdjust="spacing" textLength="297" x="34" y="1214.9424">[Netmiko exception (auth fail, timeout exception, etc.)]</text><polygon fill="#FF0000" points="320.5,1283.6055,310.5,1287.6055,320.5,1291.6055,316.5,1287.6055" style="stroke:#FF0000;stroke-width:1.0;"/><line style="stroke:#FF0000;stroke-width:1.0;" x1="314.5" x2="421.5" y1="1287.6055" y2="1287.6055"/><text fill="#000000" font-family="sans-serif" font-size="13" lengthAdjust="spacing" textLength="57" x="326.5" y="1282.8506">WS close</text><path d="M60,1223.2734 L60,1336.2734 L300,1336.2734 L300,1233.2734 L290,1223.2734 L60,1223.2734 " fill="#FEFFDD" filter="url(#f55asbyse5ufy)" style="stroke:#181818;stroke-width:0.5;"/><path d="M290,1223.2734 L290,1233.2734 L300,1233.2734 L290,1223.2734 " fill="#FEFFDD" style="stroke:#181818;stroke-width:0.5;"/><text fill="#000000" font-family="sans-serif" font-size="13" lengthAdjust="spacing" textLength="92" x="66" y="1240.042">WS data (Client</text><path d="M166.25,1230.8802 L163,1233.621 L166.25,1236.2969 L166.25,1234.1302 L171.6667,1234.1302 L171.6667,1233.0469 L166.25,1233.0469 L166.25,1230.8802 " fill="#000000" style="stroke:;stroke-width:0.0;stroke-dasharray:;"/><text fill="#000000" font-family="sans-serif" font-size="13" lengthAdjust="spacing" textLength="44" x="176.6667" y="1240.042">Server):</text><text fill="#000000" font-family="sans-serif" font-size="13" lengthAdjust="spacing" textLength="131" x="82" y="1254.5654">status: "disconnected"</text><line style="stroke:#181818;stroke-width:1.0;stroke-dasharray:1.0,2.0;" x1="61" x2="299.6667" y1="1257.3203" y2="1257.3203"/><text fill="#000000" font-family="sans-serif" font-size="13" lengthAdjust="spacing" textLength="92" x="66" y="1273.0889">Indiction status:</text><text fill="#000000" font-family="sans-serif" font-size="13" lengthAdjust="spacing" textLength="84" x="82" y="1287.6123">CONNECTING</text><path d="M176.4167,1278.4505 L176.4167,1280.6172 L171,1280.6172 L171,1281.7005 L176.4167,1281.7005 L176.4167,1283.8672 L179.6667,1281.1264 L176.4167,1278.4505 " fill="#000000" style="stroke:;stroke-width:0.0;stroke-dasharray:;"/><text fill="#000000" font-family="sans-serif" font-size="13" lengthAdjust="spacing" textLength="101" x="184.6667" y="1287.6123">DISCONNECTED</text><line style="stroke:#181818;stroke-width:1.0;stroke-dasharray:1.0,2.0;" x1="61" x2="299.6667" y1="1294.3672" y2="1294.3672"/><text fill="#000000" font-family="sans-serif" font-size="13" lengthAdjust="spacing" textLength="117" x="66" y="1310.1357">Form submit button:</text><text fill="#000000" font-family="sans-serif" font-size="13" lengthAdjust="spacing" textLength="52" x="82" y="1324.6592">DETACH</text><path d="M144.4167,1315.4974 L144.4167,1317.6641 L139,1317.6641 L139,1318.7474 L144.4167,1318.7474 L144.4167,1320.9141 L147.6667,1318.1732 L144.4167,1315.4974 " fill="#000000" style="stroke:;stroke-width:0.0;stroke-dasharray:;"/><text fill="#000000" font-family="sans-serif" font-size="13" lengthAdjust="spacing" textLength="62" x="152.6667" y="1324.6592">CONNECT</text><line style="stroke:#000000;stroke-width:1.0;stroke-dasharray:2.0,2.0;" x1="29" x2="640.5" y1="1345.4141" y2="1345.4141"/><text fill="#000000" font-family="sans-serif" font-size="11" font-weight="bold" lengthAdjust="spacing" textLength="199" x="34" y="1355.3721">[Websocket exception (disconnect)]</text><polygon fill="#FF0000" points="320.5,1405.5117,310.5,1409.5117,320.5,1413.5117,316.5,1409.5117" style="stroke:#FF0000;stroke-width:1.0;"/><polygon fill="#FF0000" points="410.5,1405.5117,420.5,1409.5117,410.5,1413.5117,414.5,1409.5117" style="stroke:#FF0000;stroke-width:1.0;"/><line style="stroke:#FF0000;stroke-width:1.0;" x1="314.5" x2="416.5" y1="1409.5117" y2="1409.5117"/><text fill="#000000" font-family="sans-serif" font-size="13" lengthAdjust="spacing" textLength="89" x="326.5" y="1404.7568">WS disconnect</text><path d="M69,1363.7031 L69,1439.7031 L300,1439.7031 L300,1373.7031 L290,1363.7031 L69,1363.7031 " fill="#FEFFDD" filter="url(#f55asbyse5ufy)" style="stroke:#181818;stroke-width:0.5;"/><path d="M290,1363.7031 L290,1373.7031 L300,1373.7031 L290,1363.7031 " fill="#FEFFDD" style="stroke:#181818;stroke-width:0.5;"/><text fill="#000000" font-family="sans-serif" font-size="13" lengthAdjust="spacing" textLength="92" x="75" y="1380.4717">Indiction status:</text><text fill="#000000" font-family="sans-serif" font-size="13" lengthAdjust="spacing" textLength="75" x="91" y="1394.9951">device model</text><path d="M176.4167,1385.8333 L176.4167,1388 L171,1388 L171,1389.0833 L176.4167,1389.0833 L176.4167,1391.25 L179.6667,1388.5092 L176.4167,1385.8333 " fill="#000000" style="stroke:;stroke-width:0.0;stroke-dasharray:;"/><text fill="#000000" font-family="sans-serif" font-size="13" lengthAdjust="spacing" textLength="101" x="184.6667" y="1394.9951">DISCONNECTED</text><line style="stroke:#181818;stroke-width:1.0;stroke-dasharray:1.0,2.0;" x1="70" x2="299.6667" y1="1397.75" y2="1397.75"/><text fill="#000000" font-family="sans-serif" font-size="13" lengthAdjust="spacing" textLength="117" x="75" y="1413.5186">Form submit button:</text><text fill="#000000" font-family="sans-serif" font-size="13" lengthAdjust="spacing" textLength="52" x="91" y="1428.042">DETACH</text><path d="M153.4167,1418.8802 L153.4167,1421.0469 L148,1421.0469 L148,1422.1302 L153.4167,1422.1302 L153.4167,1424.2969 L156.6667,1421.556 L153.4167,1418.8802 " fill="#000000" style="stroke:;stroke-width:0.0;stroke-dasharray:;"/><text fill="#000000" font-family="sans-serif" font-size="13" lengthAdjust="spacing" textLength="62" x="161.6667" y="1428.042">CONNECT</text><line style="stroke:#000000;stroke-width:1.0;stroke-dasharray:2.0,2.0;" x1="19" x2="650.5" y1="1455.7969" y2="1455.7969"/><text fill="#000000" font-family="sans-serif" font-size="11" font-weight="bold" lengthAdjust="spacing" textLength="122" x="24" y="1465.7549">[Unknown IP address]</text><polygon fill="#FF0000" points="320.5,1534.418,310.5,1538.418,320.5,1542.418,316.5,1538.418" style="stroke:#FF0000;stroke-width:1.0;"/><line style="stroke:#FF0000;stroke-width:1.0;" x1="314.5" x2="421.5" y1="1538.418" y2="1538.418"/><text fill="#000000" font-family="sans-serif" font-size="13" lengthAdjust="spacing" textLength="57" x="326.5" y="1533.6631">WS close</text><path d="M60,1474.0859 L60,1587.0859 L300,1587.0859 L300,1484.0859 L290,1474.0859 L60,1474.0859 " fill="#FEFFDD" filter="url(#f55asbyse5ufy)" style="stroke:#181818;stroke-width:0.5;"/><path d="M290,1474.0859 L290,1484.0859 L300,1484.0859 L290,1474.0859 " fill="#FEFFDD" style="stroke:#181818;stroke-width:0.5;"/><text fill="#000000" font-family="sans-serif" font-size="13" lengthAdjust="spacing" textLength="92" x="66" y="1490.8545">WS data (Client</text><path d="M166.25,1481.6927 L163,1484.4335 L166.25,1487.1094 L166.25,1484.9427 L171.6667,1484.9427 L171.6667,1483.8594 L166.25,1483.8594 L166.25,1481.6927 " fill="#000000" style="stroke:;stroke-width:0.0;stroke-dasharray:;"/><text fill="#000000" font-family="sans-serif" font-size="13" lengthAdjust="spacing" textLength="44" x="176.6667" y="1490.8545">Server):</text><text fill="#000000" font-family="sans-serif" font-size="13" lengthAdjust="spacing" textLength="131" x="82" y="1505.3779">status: "disconnected"</text><line style="stroke:#181818;stroke-width:1.0;stroke-dasharray:1.0,2.0;" x1="61" x2="299.6667" y1="1508.1328" y2="1508.1328"/><text fill="#000000" font-family="sans-serif" font-size="13" lengthAdjust="spacing" textLength="92" x="66" y="1523.9014">Indiction status:</text><text fill="#000000" font-family="sans-serif" font-size="13" lengthAdjust="spacing" textLength="84" x="82" y="1538.4248">CONNECTING</text><path d="M176.4167,1529.263 L176.4167,1531.4297 L171,1531.4297 L171,1532.513 L176.4167,1532.513 L176.4167,1534.6797 L179.6667,1531.9389 L176.4167,1529.263 " fill="#000000" style="stroke:;stroke-width:0.0;stroke-dasharray:;"/><text fill="#000000" font-family="sans-serif" font-size="13" lengthAdjust="spacing" textLength="101" x="184.6667" y="1538.4248">DISCONNECTED</text><line style="stroke:#181818;stroke-width:1.0;stroke-dasharray:1.0,2.0;" x1="61" x2="299.6667" y1="1545.1797" y2="1545.1797"/><text fill="#000000" font-family="sans-serif" font-size="13" lengthAdjust="spacing" textLength="117" x="66" y="1560.9482">Form submit button:</text><text fill="#000000" font-family="sans-serif" font-size="13" lengthAdjust="spacing" textLength="52" x="82" y="1575.4717">DETACH</text><path d="M144.4167,1566.3099 L144.4167,1568.4766 L139,1568.4766 L139,1569.5599 L144.4167,1569.5599 L144.4167,1571.7266 L147.6667,1568.9857 L144.4167,1566.3099 " fill="#000000" style="stroke:;stroke-width:0.0;stroke-dasharray:;"/><text fill="#000000" font-family="sans-serif" font-size="13" lengthAdjust="spacing" textLength="62" x="152.6667" y="1575.4717">CONNECT</text><polygon fill="#FEFFDD" filter="url(#f55asbyse5ufy)" points="240,1600.2266,378,1600.2266,388,1611.2266,378,1622.2266,240,1622.2266,230,1611.2266,240,1600.2266" style="stroke:#181818;stroke-width:0.5;"/><text fill="#000000" font-family="sans-serif" font-size="13" lengthAdjust="spacing" textLength="134" x="242" y="1615.9951">Alert "Unknown device"</text><line style="stroke:#000000;stroke-width:1.0;stroke-dasharray:2.0,2.0;" x1="19" x2="650.5" y1="1628.75" y2="1628.75"/><text fill="#000000" font-family="sans-serif" font-size="11" font-weight="bold" lengthAdjust="spacing" textLength="137" x="24" y="1638.708">[Unknown device model]</text><polygon fill="#FF0000" points="320.5,1707.3711,310.5,1711.3711,320.5,1715.3711,316.5,1711.3711" style="stroke:#FF0000;stroke-width:1.0;"/><line style="stroke:#FF0000;stroke-width:1.0;" x1="314.5" x2="421.5" y1="1711.3711" y2="1711.3711"/><text fill="#000000" font-family="sans-serif" font-size="13" lengthAdjust="spacing" textLength="57" x="326.5" y="1706.6162">WS close</text><path d="M60,1647.0391 L60,1760.0391 L300,1760.0391 L300,1657.0391 L290,1647.0391 L60,1647.0391 " fill="#FEFFDD" filter="url(#f55asbyse5ufy)" style="stroke:#181818;stroke-width:0.5;"/><path d="M290,1647.0391 L290,1657.0391 L300,1657.0391 L290,1647.0391 " fill="#FEFFDD" style="stroke:#181818;stroke-width:0.5;"/><text fill="#000000" font-family="sans-serif" font-size="13" lengthAdjust="spacing" textLength="92" x="66" y="1663.8076">WS data (Client</text><path d="M166.25,1654.6458 L163,1657.3867 L166.25,1660.0625 L166.25,1657.8958 L171.6667,1657.8958 L171.6667,1656.8125 L166.25,1656.8125 L166.25,1654.6458 " fill="#000000" style="stroke:;stroke-width:0.0;stroke-dasharray:;"/><text fill="#000000" font-family="sans-serif" font-size="13" lengthAdjust="spacing" textLength="44" x="176.6667" y="1663.8076">Server):</text><text fill="#000000" font-family="sans-serif" font-size="13" lengthAdjust="spacing" textLength="131" x="82" y="1678.3311">status: "disconnected"</text><line style="stroke:#181818;stroke-width:1.0;stroke-dasharray:1.0,2.0;" x1="61" x2="299.6667" y1="1681.0859" y2="1681.0859"/><text fill="#000000" font-family="sans-serif" font-size="13" lengthAdjust="spacing" textLength="92" x="66" y="1696.8545">Indiction status:</text><text fill="#000000" font-family="sans-serif" font-size="13" lengthAdjust="spacing" textLength="84" x="82" y="1711.3779">CONNECTING</text><path d="M176.4167,1702.2161 L176.4167,1704.3828 L171,1704.3828 L171,1705.4661 L176.4167,1705.4661 L176.4167,1707.6328 L179.6667,1704.892 L176.4167,1702.2161 " fill="#000000" style="stroke:;stroke-width:0.0;stroke-dasharray:;"/><text fill="#000000" font-family="sans-serif" font-size="13" lengthAdjust="spacing" textLength="101" x="184.6667" y="1711.3779">DISCONNECTED</text><line style="stroke:#181818;stroke-width:1.0;stroke-dasharray:1.0,2.0;" x1="61" x2="299.6667" y1="1718.1328" y2="1718.1328"/><text fill="#000000" font-family="sans-serif" font-size="13" lengthAdjust="spacing" textLength="117" x="66" y="1733.9014">Form submit button:</text><text fill="#000000" font-family="sans-serif" font-size="13" lengthAdjust="spacing" textLength="52" x="82" y="1748.4248">DETACH</text><path d="M144.4167,1739.263 L144.4167,1741.4297 L139,1741.4297 L139,1742.513 L144.4167,1742.513 L144.4167,1744.6797 L147.6667,1741.9389 L144.4167,1739.263 " fill="#000000" style="stroke:;stroke-width:0.0;stroke-dasharray:;"/><text fill="#000000" font-family="sans-serif" font-size="13" lengthAdjust="spacing" textLength="62" x="152.6667" y="1748.4248">CONNECT</text><polygon fill="#FEFFDD" filter="url(#f55asbyse5ufy)" points="241,1773.1797,378,1773.1797,388,1784.1797,378,1795.1797,241,1795.1797,231,1784.1797,241,1773.1797" style="stroke:#181818;stroke-width:0.5;"/><text fill="#000000" font-family="sans-serif" font-size="13" lengthAdjust="spacing" textLength="133" x="243" y="1788.9482">Alert "Unknown model"</text><line style="stroke:#000000;stroke-width:1.0;stroke-dasharray:2.0,2.0;" x1="19" x2="650.5" y1="1801.7031" y2="1801.7031"/><text fill="#000000" font-family="sans-serif" font-size="11" font-weight="bold" lengthAdjust="spacing" textLength="199" x="24" y="1811.6611">[Websocket exception (disconnect)]</text><polygon fill="#FF0000" points="320.5,1861.8008,310.5,1865.8008,320.5,1869.8008,316.5,1865.8008" style="stroke:#FF0000;stroke-width:1.0;"/><polygon fill="#FF0000" points="410.5,1861.8008,420.5,1865.8008,410.5,1869.8008,414.5,1865.8008" style="stroke:#FF0000;stroke-width:1.0;"/><line style="stroke:#FF0000;stroke-width:1.0;" x1="314.5" x2="416.5" y1="1865.8008" y2="1865.8008"/><text fill="#000000" font-family="sans-serif" font-size="13" lengthAdjust="spacing" textLength="89" x="326.5" y="1861.0459">WS disconnect</text><path d="M60,1819.9922 L60,1895.9922 L300,1895.9922 L300,1829.9922 L290,1819.9922 L60,1819.9922 " fill="#FEFFDD" filter="url(#f55asbyse5ufy)" style="stroke:#181818;stroke-width:0.5;"/><path d="M290,1819.9922 L290,1829.9922 L300,1829.9922 L290,1819.9922 " fill="#FEFFDD" style="stroke:#181818;stroke-width:0.5;"/><text fill="#000000" font-family="sans-serif" font-size="13" lengthAdjust="spacing" textLength="92" x="66" y="1836.7607">Indiction status:</text><text fill="#000000" font-family="sans-serif" font-size="13" lengthAdjust="spacing" textLength="84" x="82" y="1851.2842">CONNECTING</text><path d="M176.4167,1842.1224 L176.4167,1844.2891 L171,1844.2891 L171,1845.3724 L176.4167,1845.3724 L176.4167,1847.5391 L179.6667,1844.7982 L176.4167,1842.1224 " fill="#000000" style="stroke:;stroke-width:0.0;stroke-dasharray:;"/><text fill="#000000" font-family="sans-serif" font-size="13" lengthAdjust="spacing" textLength="101" x="184.6667" y="1851.2842">DISCONNECTED</text><line style="stroke:#181818;stroke-width:1.0;stroke-dasharray:1.0,2.0;" x1="61" x2="299.6667" y1="1854.0391" y2="1854.0391"/><text fill="#000000" font-family="sans-serif" font-size="13" lengthAdjust="spacing" textLength="117" x="66" y="1869.8076">Form submit button:</text><text fill="#000000" font-family="sans-serif" font-size="13" lengthAdjust="spacing" textLength="52" x="82" y="1884.3311">DETACH</text><path d="M144.4167,1875.1693 L144.4167,1877.3359 L139,1877.3359 L139,1878.4193 L144.4167,1878.4193 L144.4167,1880.5859 L147.6667,1877.8451 L144.4167,1875.1693 " fill="#000000" style="stroke:;stroke-width:0.0;stroke-dasharray:;"/><text fill="#000000" font-family="sans-serif" font-size="13" lengthAdjust="spacing" textLength="62" x="152.6667" y="1884.3311">CONNECT</text><line style="stroke:#000000;stroke-width:1.0;stroke-dasharray:2.0,2.0;" x1="9" x2="660.5" y1="1912.0859" y2="1912.0859"/><text fill="#000000" font-family="sans-serif" font-size="11" font-weight="bold" lengthAdjust="spacing" textLength="86" x="14" y="1922.0439">[Form not valid]</text><polygon fill="#FEFFDD" filter="url(#f55asbyse5ufy)" points="264,1930.375,355,1930.375,365,1941.375,355,1952.375,264,1952.375,254,1941.375,264,1930.375" style="stroke:#181818;stroke-width:0.5;"/><text fill="#000000" font-family="sans-serif" font-size="13" lengthAdjust="spacing" textLength="87" x="266" y="1946.1436">Validation error</text><!--SRC=[xLXHRzem47xFhpXHQIrIwTJs3Q5ABNGjqiGgqQqFKnzCSe2LO3FRWNNJ_liS4o0XYKbIfctQ_DJQFj_b-xwxCvO-PNCYo0pab7XyITa4b0ZHwKZr4k2LenSLTUcSC0NV7T3ZXhZ-dU0Xyxeyu09UC0ZuqldXTDx6Degg0E612zLQq6yWyKk8p4NmA9beLwap6zs08bCD81BUSNwUNXoYMA1OBrwa5mUebbpuuE62khZUTEcGGEa_n0mM9A0UKPGp4_XcNiyHSAVe-cO-6f5h-7mq2a9yRhMkZ3TemzCGNCuOkfj3ei6uGWXmhE3eFPrCrOsssYn6GviP7oUhZuFE6o84NxP4jFiALb_LRATiea7dxVXhW7YUG2apMpnKn9ssOKm2cNPwfaTgeiyyQW87gOWAPTPVhp_iVXWCRhkFjxtT8EE5_k3ExiKWAiFHZ2eOXKfnblKJdxNhedVxUDszt-n6vXbeDnCHORqL73ainBHTxD1sgMaR3kyj5kVGQSKs2PursdFETZ3ToxIDxSZEGdOqOcAWiOwMJHgv6sVSmq3lqm5f2OmfGo-zCGFU6i0xL2jhe6pCCuSR059uh04ysLeryymgm5WQobV2MGdI1Annpfd_CdjpaOr6mFdSm3lNbKwQe7CTMI3UMZQBJ2l2N0dg0y2T1_ckDkkWdXm6fVO-c7EhKxLwc5EpTFtRBLjxuovKJARJ91kDr6Q_ZivzhQTSZodrXIE1n8UZ1yfyE5wV5LqgZhLiNQGBz60i-0nM8HQ64XTtWTvpkhHxLCPAizck4YUoJdRpWCjYy3P8M-4v1CH9cCrzoxRHgkhgobxvtceuqvOJjuBNnLNcRf2vavXBGS5jfD3QAiYynDgTGotrMBFwNZcZFWVywkBSe7goLPob5PQIcbrYX-fzstYBQd4XT-Mrz2eD5VglefbgMidLI8Bt9nn9xlgweTTXFbdABGNAply_1dwTAfzCN7lIab1DTG-ZmIaeEaCU9eWz1LJkMTEfbyZ591xYju0zUNEvAwURuYkDLJ6v7iigfRnACWgfcvfLqxAOpNAmrax5tmPid489W3yod_4bW_v3vkMXN5haWrWp7KgaGetNZXhoh_NQKOwP32jJ0o7NYAmWRyDrW491OyrD_CvLH5tkpvB_vFqXv1bQCjoLhcjLQbe-ctyrn575Ii1cl4HFOUQ5ryaduDFczHTGEnAEFkGd]--></g></svg>