<?xml version="1.0" encoding="us-ascii" standalone="no"?><svg xmlns="http://www.w3.org/2000/svg" xmlns:xlink="http://www.w3.org/1999/xlink" contentStyleType="text/css" height="1833.65px" preserveAspectRatio="none" style="width:611px;height:1833px;background:#FFFFFF;" version="1.1" viewBox="0 0 611 1833" width="611.52px" zoomAndPan="magnify"><defs><filter height="300%" id="f16sfs7bvw1rso" width="300%" x="-1" y="-1"><feGaussianBlur result="blurOut" stdDeviation="1.82"/><feColorMatrix in="blurOut" result="blurOut2" type="matrix" values="0 0 0 0 0 0 0 0 0 0 0 0 0 0 0 0 0 0 .4 0"/><feOffset dx="3.64" dy="3.64" in="blurOut2" result="blurOut3"/><feBlend in="SourceGraphic" in2="blurOut3" mode="normal"/></filter></defs><g><text fill="#000000" font-family="sans-serif" font-size="12.74" font-weight="bold" lengthAdjust="spacing" textLength="171.08" x="219.0825" y="25.1832">Port-viz sequence diagram</text><rect fill="none" filter="url(#f16sfs7bvw1rso)" height="1697.7116" style="stroke:#000000;stroke-width:1.365;" width="592.865" x="8.19" y="83.9759"/><rect fill="none" filter="url(#f16sfs7bvw1rso)" height="1627.3359" style="stroke:#000000;stroke-width:1.365;" width="574.665" x="17.29" y="105.3823"/><rect fill="none" filter="url(#f16sfs7bvw1rso)" height="1062.7023" style="stroke:#000000;stroke-width:1.365;" width="556.465" x="26.39" y="254.7929"/><rect fill="none" filter="url(#f16sfs7bvw1rso)" height="726.5213" style="stroke:#000000;stroke-width:1.365;" width="538.265" x="35.49" y="362.7345"/><rect fill="none" filter="url(#f16sfs7bvw1rso)" height="364.3839" style="stroke:#000000;stroke-width:1.365;" width="520.065" x="44.59" y="470.6762"/><rect fill="#FFC0CB" filter="url(#f16sfs7bvw1rso)" height="155.7806" style="stroke:#000000;stroke-width:1.365;" width="501.865" x="53.69" y="672.9095"/><rect fill="#FFC0CB" height="127.791" style="stroke:none;stroke-width:0.91;" width="538.265" x="35.49" y="841.4301"/><rect fill="#FFC0CB" height="120.0347" style="stroke:none;stroke-width:0.91;" width="538.265" x="35.49" y="969.2211"/><rect fill="#FFC0CB" height="127.791" style="stroke:none;stroke-width:0.91;" width="556.465" x="26.39" y="1095.6258"/><rect fill="#FFC0CB" height="94.0784" style="stroke:none;stroke-width:0.91;" width="556.465" x="26.39" y="1223.4168"/><rect fill="#FFC0CB" height="157.3873" style="stroke:none;stroke-width:0.91;" width="574.665" x="17.29" y="1323.8652"/><rect fill="#FFC0CB" height="157.3873" style="stroke:none;stroke-width:0.91;" width="574.665" x="17.29" y="1481.2525"/><rect fill="#FFC0CB" height="94.0784" style="stroke:none;stroke-width:0.91;" width="574.665" x="17.29" y="1638.6398"/><rect fill="#FFC0CB" height="42.5994" style="stroke:none;stroke-width:0.91;" width="592.865" x="8.19" y="1739.0882"/><line style="stroke:#181818;stroke-width:0.455;stroke-dasharray:5.0,5.0;" x1="281.19" x2="281.19" y1="68.5059" y2="1797.1576"/><line style="stroke:#181818;stroke-width:0.455;stroke-dasharray:5.0,5.0;" x1="384.02" x2="384.02" y1="68.5059" y2="1797.1576"/><line style="stroke:#181818;stroke-width:0.455;stroke-dasharray:5.0,5.0;" x1="495.495" x2="495.495" y1="68.5059" y2="1797.1576"/><rect fill="#FFFF00" filter="url(#f16sfs7bvw1rso)" height="26.973" rx="2.275" ry="2.275" style="stroke:#181818;stroke-width:0.455;" width="45.5" x="257.53" y="37.893"/><text fill="#000000" font-family="sans-serif" font-size="12.74" lengthAdjust="spacing" textLength="32.76" x="263.9" y="55.7962">Client</text><rect fill="#FFFF00" filter="url(#f16sfs7bvw1rso)" height="26.973" rx="2.275" ry="2.275" style="stroke:#181818;stroke-width:0.455;" width="45.5" x="257.53" y="1796.2476"/><text fill="#000000" font-family="sans-serif" font-size="12.74" lengthAdjust="spacing" textLength="32.76" x="263.9" y="1814.1508">Client</text><rect fill="#FFFF00" filter="url(#f16sfs7bvw1rso)" height="26.973" rx="2.275" ry="2.275" style="stroke:#181818;stroke-width:0.455;" width="50.96" x="357.63" y="37.893"/><text fill="#000000" font-family="sans-serif" font-size="12.74" lengthAdjust="spacing" textLength="38.22" x="364" y="55.7962">Server</text><rect fill="#FFFF00" filter="url(#f16sfs7bvw1rso)" height="26.973" rx="2.275" ry="2.275" style="stroke:#181818;stroke-width:0.455;" width="50.96" x="357.63" y="1796.2476"/><text fill="#000000" font-family="sans-serif" font-size="12.74" lengthAdjust="spacing" textLength="38.22" x="364" y="1814.1508">Server</text><rect fill="#FFFF00" filter="url(#f16sfs7bvw1rso)" height="26.973" rx="2.275" ry="2.275" style="stroke:#181818;stroke-width:0.455;" width="99.19" x="444.535" y="37.893"/><text fill="#000000" font-family="sans-serif" font-size="12.74" lengthAdjust="spacing" textLength="86.45" x="450.905" y="55.7962">Network device</text><rect fill="#FFFF00" filter="url(#f16sfs7bvw1rso)" height="26.973" rx="2.275" ry="2.275" style="stroke:#181818;stroke-width:0.455;" width="99.19" x="444.535" y="1796.2476"/><text fill="#000000" font-family="sans-serif" font-size="12.74" lengthAdjust="spacing" textLength="86.45" x="450.905" y="1814.1508">Network device</text><path d="M8.19,83.9759 L63.7,83.9759 L63.7,89.9123 L54.6,99.0123 L8.19,99.0123 L8.19,83.9759 " fill="#EEEEEE" style="stroke:#000000;stroke-width:1.365;"/><rect fill="none" height="1697.7116" style="stroke:#000000;stroke-width:1.365;" width="592.865" x="8.19" y="83.9759"/><text fill="#000000" font-family="sans-serif" font-size="11.83" font-weight="bold" lengthAdjust="spacing" textLength="14.56" x="21.84" y="95.5953">alt</text><text fill="#000000" font-family="sans-serif" font-size="10.01" font-weight="bold" lengthAdjust="spacing" textLength="83.72" x="77.35" y="94.8577">[Form validation]</text><path d="M17.29,105.3823 L72.8,105.3823 L72.8,111.3186 L63.7,120.4186 L17.29,120.4186 L17.29,105.3823 " fill="#EEEEEE" style="stroke:#000000;stroke-width:1.365;"/><rect fill="none" height="1627.3359" style="stroke:#000000;stroke-width:1.365;" width="574.665" x="17.29" y="105.3823"/><text fill="#000000" font-family="sans-serif" font-size="11.83" font-weight="bold" lengthAdjust="spacing" textLength="14.56" x="30.94" y="117.0017">alt</text><text fill="#000000" font-family="sans-serif" font-size="10.01" font-weight="bold" lengthAdjust="spacing" textLength="90.09" x="86.45" y="116.2641">[Form data check]</text><polygon fill="#0000FF" points="373.555,186.4789,382.655,190.1189,373.555,193.7589,377.195,190.1189" style="stroke:#0000FF;stroke-width:0.91;"/><line style="stroke:#0000FF;stroke-width:0.91;stroke-dasharray:2.0,2.0;" x1="281.645" x2="379.015" y1="190.1189" y2="190.1189"/><text fill="#000000" font-family="sans-serif" font-size="11.83" lengthAdjust="spacing" textLength="80.99" x="288.015" y="185.792">WS connection</text><path d="M54.6,124.9686 L54.6,240.5386 L273,240.5386 L273,134.0686 L263.9,124.9686 L54.6,124.9686 " fill="#ADD8E6" filter="url(#f16sfs7bvw1rso)" style="stroke:#181818;stroke-width:0.455;"/><path d="M263.9,124.9686 L263.9,134.0686 L273,134.0686 L263.9,124.9686 " fill="#ADD8E6" style="stroke:#181818;stroke-width:0.455;"/><text fill="#000000" font-family="sans-serif" font-size="11.83" lengthAdjust="spacing" textLength="83.72" x="60.06" y="140.228">WS data (Client</text><path d="M153.2592,131.8908 L153.2592,133.8624 L148.33,133.8624 L148.33,134.8483 L153.2592,134.8483 L153.2592,136.8199 L156.2167,134.3258 L153.2592,131.8908 " fill="#000000" style="stroke:;stroke-width:0.0;stroke-dasharray:;"/><text fill="#000000" font-family="sans-serif" font-size="11.83" lengthAdjust="spacing" textLength="40.04" x="160.7667" y="140.228">Server):</text><text fill="#000000" font-family="sans-serif" font-size="11.83" lengthAdjust="spacing" textLength="94.64" x="74.62" y="153.4443">ip: device address</text><text fill="#000000" font-family="sans-serif" font-size="11.83" lengthAdjust="spacing" textLength="67.34" x="74.62" y="166.6606">detach: false</text><line style="stroke:#181818;stroke-width:0.91;stroke-dasharray:1.0,2.0;" x1="55.51" x2="272.6967" y1="169.1676" y2="169.1676"/><text fill="#000000" font-family="sans-serif" font-size="11.83" lengthAdjust="spacing" textLength="83.72" x="60.06" y="183.517">Indiction status:</text><text fill="#000000" font-family="sans-serif" font-size="11.83" lengthAdjust="spacing" textLength="91.91" x="74.62" y="196.7333">DISCONNECTED</text><path d="M176.0092,188.3961 L176.0092,190.3677 L171.08,190.3677 L171.08,191.3536 L176.0092,191.3536 L176.0092,193.3252 L178.9667,190.8311 L176.0092,188.3961 " fill="#000000" style="stroke:;stroke-width:0.0;stroke-dasharray:;"/><text fill="#000000" font-family="sans-serif" font-size="11.83" lengthAdjust="spacing" textLength="76.44" x="183.5167" y="196.7333">CONNECTING</text><line style="stroke:#181818;stroke-width:0.91;stroke-dasharray:1.0,2.0;" x1="55.51" x2="272.6967" y1="202.8802" y2="202.8802"/><text fill="#000000" font-family="sans-serif" font-size="11.83" lengthAdjust="spacing" textLength="106.47" x="60.06" y="217.2296">Form submit button:</text><text fill="#000000" font-family="sans-serif" font-size="11.83" lengthAdjust="spacing" textLength="56.42" x="74.62" y="230.4459">CONNECT</text><path d="M140.5192,222.1087 L140.5192,224.0804 L135.59,224.0804 L135.59,225.0662 L140.5192,225.0662 L140.5192,227.0379 L143.4767,224.5437 L140.5192,222.1087 " fill="#000000" style="stroke:;stroke-width:0.0;stroke-dasharray:;"/><text fill="#000000" font-family="sans-serif" font-size="11.83" lengthAdjust="spacing" textLength="47.32" x="148.0267" y="230.4459">DETACH</text><path d="M26.39,254.7929 L81.9,254.7929 L81.9,260.7292 L72.8,269.8292 L26.39,269.8292 L26.39,254.7929 " fill="#EEEEEE" style="stroke:#000000;stroke-width:1.365;"/><rect fill="none" height="1062.7023" style="stroke:#000000;stroke-width:1.365;" width="556.465" x="26.39" y="254.7929"/><text fill="#000000" font-family="sans-serif" font-size="11.83" font-weight="bold" lengthAdjust="spacing" textLength="14.56" x="40.04" y="266.4123">alt</text><text fill="#000000" font-family="sans-serif" font-size="10.01" font-weight="bold" lengthAdjust="spacing" textLength="98.28" x="95.55" y="265.6747">[Device connection]</text><polygon fill="#0000FF" points="484.575,284.8655,493.675,288.5055,484.575,292.1455,488.215,288.5055" style="stroke:#0000FF;stroke-width:0.91;"/><line style="stroke:#0000FF;stroke-width:0.91;stroke-dasharray:2.0,2.0;" x1="384.475" x2="490.035" y1="288.5055" y2="288.5055"/><text fill="#000000" font-family="sans-serif" font-size="11.83" lengthAdjust="spacing" textLength="85.54" x="390.845" y="284.1786">SSH connection</text><polygon fill="#0000FF" points="291.655,328.1332,282.555,331.7732,291.655,335.4132,288.015,331.7732" style="stroke:#0000FF;stroke-width:0.91;"/><line style="stroke:#0000FF;stroke-width:0.91;" x1="286.195" x2="383.565" y1="331.7732" y2="331.7732"/><text fill="#000000" font-family="sans-serif" font-size="11.83" lengthAdjust="spacing" textLength="71.89" x="297.115" y="327.4463">WS response</text><path d="M113.75,300.3355 L113.75,348.5655 L273,348.5655 L273,309.4355 L263.9,300.3355 L113.75,300.3355 " fill="#ADD8E6" filter="url(#f16sfs7bvw1rso)" style="stroke:#181818;stroke-width:0.455;"/><path d="M263.9,300.3355 L263.9,309.4355 L273,309.4355 L263.9,300.3355 " fill="#ADD8E6" style="stroke:#181818;stroke-width:0.455;"/><text fill="#000000" font-family="sans-serif" font-size="11.83" lengthAdjust="spacing" textLength="83.72" x="119.21" y="315.5949">WS data (Client</text><path d="M210.4375,307.2577 L207.48,309.7519 L210.4375,312.1869 L210.4375,310.2152 L215.3667,310.2152 L215.3667,309.2294 L210.4375,309.2294 L210.4375,307.2577 " fill="#000000" style="stroke:;stroke-width:0.0;stroke-dasharray:;"/><text fill="#000000" font-family="sans-serif" font-size="11.83" lengthAdjust="spacing" textLength="40.04" x="219.9167" y="315.5949">Server):</text><text fill="#000000" font-family="sans-serif" font-size="11.83" lengthAdjust="spacing" textLength="106.47" x="133.77" y="328.8113">status: "connecting"</text><text fill="#000000" font-family="sans-serif" font-size="11.83" lengthAdjust="spacing" textLength="105.56" x="133.77" y="342.0276">model: "not defined"</text><path d="M35.49,362.7345 L91,362.7345 L91,368.6709 L81.9,377.7709 L35.49,377.7709 L35.49,362.7345 " fill="#EEEEEE" style="stroke:#000000;stroke-width:1.365;"/><rect fill="none" height="726.5213" style="stroke:#000000;stroke-width:1.365;" width="538.265" x="35.49" y="362.7345"/><text fill="#000000" font-family="sans-serif" font-size="11.83" font-weight="bold" lengthAdjust="spacing" textLength="14.56" x="49.14" y="374.3539">alt</text><text fill="#000000" font-family="sans-serif" font-size="10.01" font-weight="bold" lengthAdjust="spacing" textLength="80.99" x="104.65" y="373.6163">[Get model info]</text><polygon fill="#0000FF" points="394.485,392.8072,385.385,396.4472,394.485,400.0872,390.845,396.4472" style="stroke:#0000FF;stroke-width:0.91;"/><line style="stroke:#0000FF;stroke-width:0.91;" x1="389.025" x2="494.585" y1="396.4472" y2="396.4472"/><text fill="#000000" font-family="sans-serif" font-size="11.83" lengthAdjust="spacing" textLength="89.18" x="399.945" y="392.1202">SSH (model info)</text><polygon fill="#0000FF" points="291.655,436.0748,282.555,439.7148,291.655,443.3548,288.015,439.7148" style="stroke:#0000FF;stroke-width:0.91;"/><line style="stroke:#0000FF;stroke-width:0.91;" x1="286.195" x2="383.565" y1="439.7148" y2="439.7148"/><text fill="#000000" font-family="sans-serif" font-size="11.83" lengthAdjust="spacing" textLength="71.89" x="297.115" y="435.3879">WS response</text><path d="M113.75,408.2772 L113.75,456.5072 L273,456.5072 L273,417.3772 L263.9,408.2772 L113.75,408.2772 " fill="#ADD8E6" filter="url(#f16sfs7bvw1rso)" style="stroke:#181818;stroke-width:0.455;"/><path d="M263.9,408.2772 L263.9,417.3772 L273,417.3772 L263.9,408.2772 " fill="#ADD8E6" style="stroke:#181818;stroke-width:0.455;"/><text fill="#000000" font-family="sans-serif" font-size="11.83" lengthAdjust="spacing" textLength="83.72" x="119.21" y="423.5366">WS data (Client</text><path d="M210.4375,415.1993 L207.48,417.6935 L210.4375,420.1285 L210.4375,418.1568 L215.3667,418.1568 L215.3667,417.171 L210.4375,417.171 L210.4375,415.1993 " fill="#000000" style="stroke:;stroke-width:0.0;stroke-dasharray:;"/><text fill="#000000" font-family="sans-serif" font-size="11.83" lengthAdjust="spacing" textLength="40.04" x="219.9167" y="423.5366">Server):</text><text fill="#000000" font-family="sans-serif" font-size="11.83" lengthAdjust="spacing" textLength="106.47" x="133.77" y="436.7529">status: "connecting"</text><text fill="#000000" font-family="sans-serif" font-size="11.83" lengthAdjust="spacing" textLength="107.38" x="133.77" y="449.9692">model: device model</text><path d="M44.59,470.6762 L111.02,470.6762 L111.02,476.6125 L101.92,485.7125 L44.59,485.7125 L44.59,470.6762 " fill="#EEEEEE" style="stroke:#000000;stroke-width:1.365;"/><rect fill="none" height="364.3839" style="stroke:#000000;stroke-width:1.365;" width="520.065" x="44.59" y="470.6762"/><text fill="#000000" font-family="sans-serif" font-size="11.83" font-weight="bold" lengthAdjust="spacing" textLength="25.48" x="58.24" y="482.2956">loop</text><text fill="#000000" font-family="sans-serif" font-size="10.01" font-weight="bold" lengthAdjust="spacing" textLength="78.26" x="124.67" y="481.558">[Get ports data]</text><polygon fill="#0000FF" points="394.485,500.7488,385.385,504.3888,394.485,508.0288,390.845,504.3888" style="stroke:#0000FF;stroke-width:0.91;"/><line style="stroke:#0000FF;stroke-width:0.91;" x1="389.025" x2="494.585" y1="504.3888" y2="504.3888"/><text fill="#000000" font-family="sans-serif" font-size="11.83" lengthAdjust="spacing" textLength="88.27" x="399.945" y="500.0619">SSH (ports data)</text><polygon fill="#0000FF" points="291.655,567.481,282.555,571.121,291.655,574.761,288.015,571.121" style="stroke:#0000FF;stroke-width:0.91;"/><line style="stroke:#0000FF;stroke-width:0.91;" x1="286.195" x2="383.565" y1="571.121" y2="571.121"/><text fill="#000000" font-family="sans-serif" font-size="11.83" lengthAdjust="spacing" textLength="71.89" x="297.115" y="566.794">WS response</text><path d="M78.26,516.2188 L78.26,611.7688 L273,611.7688 L273,525.3188 L263.9,516.2188 L78.26,516.2188 " fill="#ADD8E6" filter="url(#f16sfs7bvw1rso)" style="stroke:#181818;stroke-width:0.455;"/><path d="M263.9,516.2188 L263.9,525.3188 L273,525.3188 L263.9,516.2188 " fill="#ADD8E6" style="stroke:#181818;stroke-width:0.455;"/><text fill="#000000" font-family="sans-serif" font-size="11.83" lengthAdjust="spacing" textLength="83.72" x="83.72" y="531.4782">WS data (Client</text><path d="M174.9475,523.141 L171.99,525.6351 L174.9475,528.0702 L174.9475,526.0985 L179.8767,526.0985 L179.8767,525.1127 L174.9475,525.1127 L174.9475,523.141 " fill="#000000" style="stroke:;stroke-width:0.0;stroke-dasharray:;"/><text fill="#000000" font-family="sans-serif" font-size="11.83" lengthAdjust="spacing" textLength="40.04" x="184.4267" y="531.4782">Server):</text><text fill="#000000" font-family="sans-serif" font-size="11.83" lengthAdjust="spacing" textLength="103.74" x="98.28" y="544.6945">status: "connected"</text><text fill="#000000" font-family="sans-serif" font-size="11.83" lengthAdjust="spacing" textLength="107.38" x="98.28" y="557.9109">model: device model</text><text fill="#000000" font-family="sans-serif" font-size="11.83" lengthAdjust="spacing" textLength="86.45" x="98.28" y="571.1272">ports: ports data</text><line style="stroke:#181818;stroke-width:0.91;stroke-dasharray:1.0,2.0;" x1="79.17" x2="272.6967" y1="573.6341" y2="573.6341"/><text fill="#000000" font-family="sans-serif" font-size="11.83" lengthAdjust="spacing" textLength="83.72" x="83.72" y="587.9835">Indiction status:</text><text fill="#000000" font-family="sans-serif" font-size="11.83" lengthAdjust="spacing" textLength="76.44" x="98.28" y="601.1999">CONNECTING</text><path d="M184.1992,592.8626 L184.1992,594.8343 L179.27,594.8343 L179.27,595.8201 L184.1992,595.8201 L184.1992,597.7918 L187.1567,595.2976 L184.1992,592.8626 " fill="#000000" style="stroke:;stroke-width:0.0;stroke-dasharray:;"/><text fill="#000000" font-family="sans-serif" font-size="11.83" lengthAdjust="spacing" textLength="68.25" x="191.7067" y="601.1999">device model</text><polygon fill="#0000FF" points="373.555,644.9163,382.655,648.5563,373.555,652.1963,377.195,648.5563" style="stroke:#0000FF;stroke-width:0.91;"/><line style="stroke:#0000FF;stroke-width:0.91;" x1="281.645" x2="379.015" y1="648.5563" y2="648.5563"/><text fill="#000000" font-family="sans-serif" font-size="11.83" lengthAdjust="spacing" textLength="49.14" x="288.015" y="644.2293">WS send</text><path d="M113.75,623.7268 L113.75,659.2168 L273,659.2168 L273,632.8268 L263.9,623.7268 L113.75,623.7268 " fill="#ADD8E6" filter="url(#f16sfs7bvw1rso)" style="stroke:#181818;stroke-width:0.455;"/><path d="M263.9,623.7268 L263.9,632.8268 L273,632.8268 L263.9,623.7268 " fill="#ADD8E6" style="stroke:#181818;stroke-width:0.455;"/><text fill="#000000" font-family="sans-serif" font-size="11.83" lengthAdjust="spacing" textLength="83.72" x="119.21" y="638.9862">WS data (Client</text><path d="M212.4092,630.649 L212.4092,632.6206 L207.48,632.6206 L207.48,633.6065 L212.4092,633.6065 L212.4092,635.5781 L215.3667,633.084 L212.4092,630.649 " fill="#000000" style="stroke:;stroke-width:0.0;stroke-dasharray:;"/><text fill="#000000" font-family="sans-serif" font-size="11.83" lengthAdjust="spacing" textLength="40.04" x="219.9167" y="638.9862">Server):</text><text fill="#000000" font-family="sans-serif" font-size="11.83" lengthAdjust="spacing" textLength="67.34" x="133.77" y="652.2025">detach: false</text><path d="M53.69,672.9095 L127.4,672.9095 L127.4,678.8458 L118.3,687.9458 L53.69,687.9458 L53.69,672.9095 " fill="#EEEEEE" style="stroke:#000000;stroke-width:1.365;"/><rect fill="none" height="155.7806" style="stroke:#000000;stroke-width:1.365;" width="501.865" x="53.69" y="672.9095"/><text fill="#000000" font-family="sans-serif" font-size="11.83" font-weight="bold" lengthAdjust="spacing" textLength="32.76" x="67.34" y="684.5288">break</text><text fill="#000000" font-family="sans-serif" font-size="10.01" font-weight="bold" lengthAdjust="spacing" textLength="178.36" x="141.05" y="683.7912">['detach: true' received from Client]</text><polygon fill="#FF0000" points="484.575,702.9821,493.675,706.6221,484.575,710.2621,488.215,706.6221" style="stroke:#FF0000;stroke-width:0.91;"/><line style="stroke:#FF0000;stroke-width:0.91;" x1="384.475" x2="490.035" y1="706.6221" y2="706.6221"/><text fill="#000000" font-family="sans-serif" font-size="11.83" lengthAdjust="spacing" textLength="85.54" x="390.845" y="702.2952">SSH disconnect</text><polygon fill="#FF0000" points="291.655,773.3543,282.555,776.9943,291.655,780.6343,288.015,776.9943" style="stroke:#FF0000;stroke-width:0.91;"/><line style="stroke:#FF0000;stroke-width:0.91;" x1="286.195" x2="383.565" y1="776.9943" y2="776.9943"/><text fill="#000000" font-family="sans-serif" font-size="11.83" lengthAdjust="spacing" textLength="51.87" x="297.115" y="772.6673">WS close</text><path d="M62.79,718.4521 L62.79,821.2821 L273,821.2821 L273,727.5521 L263.9,718.4521 L62.79,718.4521 " fill="#FEFFDD" filter="url(#f16sfs7bvw1rso)" style="stroke:#181818;stroke-width:0.455;"/><path d="M263.9,718.4521 L263.9,727.5521 L273,727.5521 L263.9,718.4521 " fill="#FEFFDD" style="stroke:#181818;stroke-width:0.455;"/><text fill="#000000" font-family="sans-serif" font-size="11.83" lengthAdjust="spacing" textLength="83.72" x="68.25" y="733.7115">WS data (Client</text><path d="M161.4492,725.3743 L161.4492,727.3459 L156.52,727.3459 L156.52,728.3318 L161.4492,728.3318 L161.4492,730.3034 L164.4067,727.8093 L161.4492,725.3743 " fill="#000000" style="stroke:;stroke-width:0.0;stroke-dasharray:;"/><text fill="#000000" font-family="sans-serif" font-size="11.83" lengthAdjust="spacing" textLength="40.04" x="168.9567" y="733.7115">Server):</text><text fill="#000000" font-family="sans-serif" font-size="11.83" lengthAdjust="spacing" textLength="62.79" x="82.81" y="746.9278">detach: true</text><line style="stroke:#181818;stroke-width:0.91;stroke-dasharray:1.0,2.0;" x1="63.7" x2="272.6967" y1="749.4348" y2="749.4348"/><text fill="#000000" font-family="sans-serif" font-size="11.83" lengthAdjust="spacing" textLength="83.72" x="68.25" y="763.7842">Indiction status:</text><text fill="#000000" font-family="sans-serif" font-size="11.83" lengthAdjust="spacing" textLength="68.25" x="82.81" y="777.0005">device model</text><path d="M160.5392,768.6633 L160.5392,770.6349 L155.61,770.6349 L155.61,771.6208 L160.5392,771.6208 L160.5392,773.5924 L163.4967,771.0983 L160.5392,768.6633 " fill="#000000" style="stroke:;stroke-width:0.0;stroke-dasharray:;"/><text fill="#000000" font-family="sans-serif" font-size="11.83" lengthAdjust="spacing" textLength="91.91" x="168.0467" y="777.0005">DISCONNECTED</text><line style="stroke:#181818;stroke-width:0.91;stroke-dasharray:1.0,2.0;" x1="63.7" x2="272.6967" y1="783.1474" y2="783.1474"/><text fill="#000000" font-family="sans-serif" font-size="11.83" lengthAdjust="spacing" textLength="106.47" x="68.25" y="797.4968">Form submit button:</text><text fill="#000000" font-family="sans-serif" font-size="11.83" lengthAdjust="spacing" textLength="47.32" x="82.81" y="810.7131">DETACH</text><path d="M139.6092,802.3759 L139.6092,804.3476 L134.68,804.3476 L134.68,805.3334 L139.6092,805.3334 L139.6092,807.3051 L142.5667,804.8109 L139.6092,802.3759 " fill="#000000" style="stroke:;stroke-width:0.0;stroke-dasharray:;"/><text fill="#000000" font-family="sans-serif" font-size="11.83" lengthAdjust="spacing" textLength="56.42" x="147.1167" y="810.7131">CONNECT</text><line style="stroke:#000000;stroke-width:0.91;stroke-dasharray:2.0,2.0;" x1="35.49" x2="573.755" y1="842.3401" y2="842.3401"/><text fill="#000000" font-family="sans-serif" font-size="10.01" font-weight="bold" lengthAdjust="spacing" textLength="166.53" x="40.04" y="851.4019">[Netmiko exception (disconnect)]</text><polygon fill="#FF0000" points="291.655,913.8853,282.555,917.5253,291.655,921.1653,288.015,917.5253" style="stroke:#FF0000;stroke-width:0.91;"/><line style="stroke:#FF0000;stroke-width:0.91;" x1="286.195" x2="383.565" y1="917.5253" y2="917.5253"/><text fill="#000000" font-family="sans-serif" font-size="11.83" lengthAdjust="spacing" textLength="51.87" x="297.115" y="913.1983">WS close</text><path d="M62.79,858.9831 L62.79,961.8131 L273,961.8131 L273,868.0831 L263.9,858.9831 L62.79,858.9831 " fill="#FEFFDD" filter="url(#f16sfs7bvw1rso)" style="stroke:#181818;stroke-width:0.455;"/><path d="M263.9,858.9831 L263.9,868.0831 L273,868.0831 L263.9,858.9831 " fill="#FEFFDD" style="stroke:#181818;stroke-width:0.455;"/><text fill="#000000" font-family="sans-serif" font-size="11.83" lengthAdjust="spacing" textLength="83.72" x="68.25" y="874.2425">WS data (Client</text><path d="M159.4775,865.9053 L156.52,868.3994 L159.4775,870.8345 L159.4775,868.8628 L164.4067,868.8628 L164.4067,867.877 L159.4775,867.877 L159.4775,865.9053 " fill="#000000" style="stroke:;stroke-width:0.0;stroke-dasharray:;"/><text fill="#000000" font-family="sans-serif" font-size="11.83" lengthAdjust="spacing" textLength="40.04" x="168.9567" y="874.2425">Server):</text><text fill="#000000" font-family="sans-serif" font-size="11.83" lengthAdjust="spacing" textLength="119.21" x="82.81" y="887.4588">status: "disconnected"</text><line style="stroke:#181818;stroke-width:0.91;stroke-dasharray:1.0,2.0;" x1="63.7" x2="272.6967" y1="889.9658" y2="889.9658"/><text fill="#000000" font-family="sans-serif" font-size="11.83" lengthAdjust="spacing" textLength="83.72" x="68.25" y="904.3152">Indiction status:</text><text fill="#000000" font-family="sans-serif" font-size="11.83" lengthAdjust="spacing" textLength="68.25" x="82.81" y="917.5315">device model</text><path d="M160.5392,909.1943 L160.5392,911.1659 L155.61,911.1659 L155.61,912.1518 L160.5392,912.1518 L160.5392,914.1234 L163.4967,911.6293 L160.5392,909.1943 " fill="#000000" style="stroke:;stroke-width:0.0;stroke-dasharray:;"/><text fill="#000000" font-family="sans-serif" font-size="11.83" lengthAdjust="spacing" textLength="91.91" x="168.0467" y="917.5315">DISCONNECTED</text><line style="stroke:#181818;stroke-width:0.91;stroke-dasharray:1.0,2.0;" x1="63.7" x2="272.6967" y1="923.6784" y2="923.6784"/><text fill="#000000" font-family="sans-serif" font-size="11.83" lengthAdjust="spacing" textLength="106.47" x="68.25" y="938.0278">Form submit button:</text><text fill="#000000" font-family="sans-serif" font-size="11.83" lengthAdjust="spacing" textLength="47.32" x="82.81" y="951.2442">DETACH</text><path d="M139.6092,942.9069 L139.6092,944.8786 L134.68,944.8786 L134.68,945.8644 L139.6092,945.8644 L139.6092,947.8361 L142.5667,945.3419 L139.6092,942.9069 " fill="#000000" style="stroke:;stroke-width:0.0;stroke-dasharray:;"/><text fill="#000000" font-family="sans-serif" font-size="11.83" lengthAdjust="spacing" textLength="56.42" x="147.1167" y="951.2442">CONNECT</text><line style="stroke:#000000;stroke-width:0.91;stroke-dasharray:2.0,2.0;" x1="35.49" x2="573.755" y1="970.1311" y2="970.1311"/><text fill="#000000" font-family="sans-serif" font-size="10.01" font-weight="bold" lengthAdjust="spacing" textLength="181.09" x="40.04" y="979.1929">[Websocket exception (disconnect)]</text><polygon fill="#FF0000" points="291.655,1024.82,282.555,1028.46,291.655,1032.1,288.015,1028.46" style="stroke:#FF0000;stroke-width:0.91;"/><polygon fill="#FF0000" points="373.555,1024.82,382.655,1028.46,373.555,1032.1,377.195,1028.46" style="stroke:#FF0000;stroke-width:0.91;"/><line style="stroke:#FF0000;stroke-width:0.91;" x1="286.195" x2="379.015" y1="1028.46" y2="1028.46"/><text fill="#000000" font-family="sans-serif" font-size="11.83" lengthAdjust="spacing" textLength="80.99" x="297.115" y="1024.133">WS disconnect</text><path d="M62.79,986.7741 L62.79,1055.9341 L273,1055.9341 L273,995.8741 L263.9,986.7741 L62.79,986.7741 " fill="#FEFFDD" filter="url(#f16sfs7bvw1rso)" style="stroke:#181818;stroke-width:0.455;"/><path d="M263.9,986.7741 L263.9,995.8741 L273,995.8741 L263.9,986.7741 " fill="#FEFFDD" style="stroke:#181818;stroke-width:0.455;"/><text fill="#000000" font-family="sans-serif" font-size="11.83" lengthAdjust="spacing" textLength="83.72" x="68.25" y="1002.0335">Indiction status:</text><text fill="#000000" font-family="sans-serif" font-size="11.83" lengthAdjust="spacing" textLength="68.25" x="82.81" y="1015.2499">device model</text><path d="M160.5392,1006.9126 L160.5392,1008.8843 L155.61,1008.8843 L155.61,1009.8701 L160.5392,1009.8701 L160.5392,1011.8418 L163.4967,1009.3476 L160.5392,1006.9126 " fill="#000000" style="stroke:;stroke-width:0.0;stroke-dasharray:;"/><text fill="#000000" font-family="sans-serif" font-size="11.83" lengthAdjust="spacing" textLength="91.91" x="168.0467" y="1015.2499">DISCONNECTED</text><line style="stroke:#181818;stroke-width:0.91;stroke-dasharray:1.0,2.0;" x1="63.7" x2="272.6967" y1="1017.7568" y2="1017.7568"/><text fill="#000000" font-family="sans-serif" font-size="11.83" lengthAdjust="spacing" textLength="106.47" x="68.25" y="1032.1062">Form submit button:</text><text fill="#000000" font-family="sans-serif" font-size="11.83" lengthAdjust="spacing" textLength="47.32" x="82.81" y="1045.3225">DETACH</text><path d="M139.6092,1036.9853 L139.6092,1038.957 L134.68,1038.957 L134.68,1039.9428 L139.6092,1039.9428 L139.6092,1041.9145 L142.5667,1039.4203 L139.6092,1036.9853 " fill="#000000" style="stroke:;stroke-width:0.0;stroke-dasharray:;"/><text fill="#000000" font-family="sans-serif" font-size="11.83" lengthAdjust="spacing" textLength="56.42" x="147.1167" y="1045.3225">CONNECT</text><polygon fill="#FF0000" points="484.575,1078.3358,493.675,1081.9758,484.575,1085.6158,488.215,1081.9758" style="stroke:#FF0000;stroke-width:0.91;"/><line style="stroke:#FF0000;stroke-width:0.91;" x1="384.475" x2="490.035" y1="1081.9758" y2="1081.9758"/><text fill="#000000" font-family="sans-serif" font-size="11.83" lengthAdjust="spacing" textLength="85.54" x="390.845" y="1077.6488">SSH disconnect</text><line style="stroke:#000000;stroke-width:0.91;stroke-dasharray:2.0,2.0;" x1="26.39" x2="582.855" y1="1096.5358" y2="1096.5358"/><text fill="#000000" font-family="sans-serif" font-size="10.01" font-weight="bold" lengthAdjust="spacing" textLength="270.27" x="30.94" y="1105.5976">[Netmiko exception (auth fail, timeout exception, etc.)]</text><polygon fill="#FF0000" points="291.655,1168.081,282.555,1171.721,291.655,1175.361,288.015,1171.721" style="stroke:#FF0000;stroke-width:0.91;"/><line style="stroke:#FF0000;stroke-width:0.91;" x1="286.195" x2="383.565" y1="1171.721" y2="1171.721"/><text fill="#000000" font-family="sans-serif" font-size="11.83" lengthAdjust="spacing" textLength="51.87" x="297.115" y="1167.394">WS close</text><path d="M54.6,1113.1788 L54.6,1216.0088 L273,1216.0088 L273,1122.2788 L263.9,1113.1788 L54.6,1113.1788 " fill="#FEFFDD" filter="url(#f16sfs7bvw1rso)" style="stroke:#181818;stroke-width:0.455;"/><path d="M263.9,1113.1788 L263.9,1122.2788 L273,1122.2788 L263.9,1113.1788 " fill="#FEFFDD" style="stroke:#181818;stroke-width:0.455;"/><text fill="#000000" font-family="sans-serif" font-size="11.83" lengthAdjust="spacing" textLength="83.72" x="60.06" y="1128.4382">WS data (Client</text><path d="M151.2875,1120.101 L148.33,1122.5951 L151.2875,1125.0302 L151.2875,1123.0585 L156.2167,1123.0585 L156.2167,1122.0727 L151.2875,1122.0727 L151.2875,1120.101 " fill="#000000" style="stroke:;stroke-width:0.0;stroke-dasharray:;"/><text fill="#000000" font-family="sans-serif" font-size="11.83" lengthAdjust="spacing" textLength="40.04" x="160.7667" y="1128.4382">Server):</text><text fill="#000000" font-family="sans-serif" font-size="11.83" lengthAdjust="spacing" textLength="119.21" x="74.62" y="1141.6545">status: "disconnected"</text><line style="stroke:#181818;stroke-width:0.91;stroke-dasharray:1.0,2.0;" x1="55.51" x2="272.6967" y1="1144.1615" y2="1144.1615"/><text fill="#000000" font-family="sans-serif" font-size="11.83" lengthAdjust="spacing" textLength="83.72" x="60.06" y="1158.5109">Indiction status:</text><text fill="#000000" font-family="sans-serif" font-size="11.83" lengthAdjust="spacing" textLength="76.44" x="74.62" y="1171.7272">CONNECTING</text><path d="M160.5392,1163.39 L160.5392,1165.3616 L155.61,1165.3616 L155.61,1166.3475 L160.5392,1166.3475 L160.5392,1168.3191 L163.4967,1165.825 L160.5392,1163.39 " fill="#000000" style="stroke:;stroke-width:0.0;stroke-dasharray:;"/><text fill="#000000" font-family="sans-serif" font-size="11.83" lengthAdjust="spacing" textLength="91.91" x="168.0467" y="1171.7272">DISCONNECTED</text><line style="stroke:#181818;stroke-width:0.91;stroke-dasharray:1.0,2.0;" x1="55.51" x2="272.6967" y1="1177.8741" y2="1177.8741"/><text fill="#000000" font-family="sans-serif" font-size="11.83" lengthAdjust="spacing" textLength="106.47" x="60.06" y="1192.2235">Form submit button:</text><text fill="#000000" font-family="sans-serif" font-size="11.83" lengthAdjust="spacing" textLength="47.32" x="74.62" y="1205.4399">DETACH</text><path d="M131.4192,1197.1026 L131.4192,1199.0743 L126.49,1199.0743 L126.49,1200.0601 L131.4192,1200.0601 L131.4192,1202.0318 L134.3767,1199.5376 L131.4192,1197.1026 " fill="#000000" style="stroke:;stroke-width:0.0;stroke-dasharray:;"/><text fill="#000000" font-family="sans-serif" font-size="11.83" lengthAdjust="spacing" textLength="56.42" x="138.9267" y="1205.4399">CONNECT</text><line style="stroke:#000000;stroke-width:0.91;stroke-dasharray:2.0,2.0;" x1="26.39" x2="582.855" y1="1224.3268" y2="1224.3268"/><text fill="#000000" font-family="sans-serif" font-size="10.01" font-weight="bold" lengthAdjust="spacing" textLength="181.09" x="30.94" y="1233.3886">[Websocket exception (disconnect)]</text><polygon fill="#FF0000" points="291.655,1279.0157,282.555,1282.6557,291.655,1286.2957,288.015,1282.6557" style="stroke:#FF0000;stroke-width:0.91;"/><polygon fill="#FF0000" points="373.555,1279.0157,382.655,1282.6557,373.555,1286.2957,377.195,1282.6557" style="stroke:#FF0000;stroke-width:0.91;"/><line style="stroke:#FF0000;stroke-width:0.91;" x1="286.195" x2="379.015" y1="1282.6557" y2="1282.6557"/><text fill="#000000" font-family="sans-serif" font-size="11.83" lengthAdjust="spacing" textLength="80.99" x="297.115" y="1278.3287">WS disconnect</text><path d="M62.79,1240.9698 L62.79,1310.1298 L273,1310.1298 L273,1250.0698 L263.9,1240.9698 L62.79,1240.9698 " fill="#FEFFDD" filter="url(#f16sfs7bvw1rso)" style="stroke:#181818;stroke-width:0.455;"/><path d="M263.9,1240.9698 L263.9,1250.0698 L273,1250.0698 L263.9,1240.9698 " fill="#FEFFDD" style="stroke:#181818;stroke-width:0.455;"/><text fill="#000000" font-family="sans-serif" font-size="11.83" lengthAdjust="spacing" textLength="83.72" x="68.25" y="1256.2292">Indiction status:</text><text fill="#000000" font-family="sans-serif" font-size="11.83" lengthAdjust="spacing" textLength="68.25" x="82.81" y="1269.4456">device model</text><path d="M160.5392,1261.1083 L160.5392,1263.08 L155.61,1263.08 L155.61,1264.0658 L160.5392,1264.0658 L160.5392,1266.0375 L163.4967,1263.5433 L160.5392,1261.1083 " fill="#000000" style="stroke:;stroke-width:0.0;stroke-dasharray:;"/><text fill="#000000" font-family="sans-serif" font-size="11.83" lengthAdjust="spacing" textLength="91.91" x="168.0467" y="1269.4456">DISCONNECTED</text><line style="stroke:#181818;stroke-width:0.91;stroke-dasharray:1.0,2.0;" x1="63.7" x2="272.6967" y1="1271.9525" y2="1271.9525"/><text fill="#000000" font-family="sans-serif" font-size="11.83" lengthAdjust="spacing" textLength="106.47" x="68.25" y="1286.3019">Form submit button:</text><text fill="#000000" font-family="sans-serif" font-size="11.83" lengthAdjust="spacing" textLength="47.32" x="82.81" y="1299.5182">DETACH</text><path d="M139.6092,1291.181 L139.6092,1293.1527 L134.68,1293.1527 L134.68,1294.1385 L139.6092,1294.1385 L139.6092,1296.1102 L142.5667,1293.616 L139.6092,1291.181 " fill="#000000" style="stroke:;stroke-width:0.0;stroke-dasharray:;"/><text fill="#000000" font-family="sans-serif" font-size="11.83" lengthAdjust="spacing" textLength="56.42" x="147.1167" y="1299.5182">CONNECT</text><line style="stroke:#000000;stroke-width:0.91;stroke-dasharray:2.0,2.0;" x1="17.29" x2="591.955" y1="1324.7752" y2="1324.7752"/><text fill="#000000" font-family="sans-serif" font-size="10.01" font-weight="bold" lengthAdjust="spacing" textLength="111.02" x="21.84" y="1333.8369">[Unknown IP address]</text><polygon fill="#FF0000" points="291.655,1396.3204,282.555,1399.9604,291.655,1403.6004,288.015,1399.9604" style="stroke:#FF0000;stroke-width:0.91;"/><line style="stroke:#FF0000;stroke-width:0.91;" x1="286.195" x2="383.565" y1="1399.9604" y2="1399.9604"/><text fill="#000000" font-family="sans-serif" font-size="11.83" lengthAdjust="spacing" textLength="51.87" x="297.115" y="1395.6334">WS close</text><path d="M54.6,1341.4182 L54.6,1444.2482 L273,1444.2482 L273,1350.5182 L263.9,1341.4182 L54.6,1341.4182 " fill="#FEFFDD" filter="url(#f16sfs7bvw1rso)" style="stroke:#181818;stroke-width:0.455;"/><path d="M263.9,1341.4182 L263.9,1350.5182 L273,1350.5182 L263.9,1341.4182 " fill="#FEFFDD" style="stroke:#181818;stroke-width:0.455;"/><text fill="#000000" font-family="sans-serif" font-size="11.83" lengthAdjust="spacing" textLength="83.72" x="60.06" y="1356.6776">WS data (Client</text><path d="M151.2875,1348.3404 L148.33,1350.8345 L151.2875,1353.2695 L151.2875,1351.2979 L156.2167,1351.2979 L156.2167,1350.312 L151.2875,1350.312 L151.2875,1348.3404 " fill="#000000" style="stroke:;stroke-width:0.0;stroke-dasharray:;"/><text fill="#000000" font-family="sans-serif" font-size="11.83" lengthAdjust="spacing" textLength="40.04" x="160.7667" y="1356.6776">Server):</text><text fill="#000000" font-family="sans-serif" font-size="11.83" lengthAdjust="spacing" textLength="119.21" x="74.62" y="1369.8939">status: "disconnected"</text><line style="stroke:#181818;stroke-width:0.91;stroke-dasharray:1.0,2.0;" x1="55.51" x2="272.6967" y1="1372.4009" y2="1372.4009"/><text fill="#000000" font-family="sans-serif" font-size="11.83" lengthAdjust="spacing" textLength="83.72" x="60.06" y="1386.7502">Indiction status:</text><text fill="#000000" font-family="sans-serif" font-size="11.83" lengthAdjust="spacing" textLength="76.44" x="74.62" y="1399.9666">CONNECTING</text><path d="M160.5392,1391.6293 L160.5392,1393.601 L155.61,1393.601 L155.61,1394.5868 L160.5392,1394.5868 L160.5392,1396.5585 L163.4967,1394.0644 L160.5392,1391.6293 " fill="#000000" style="stroke:;stroke-width:0.0;stroke-dasharray:;"/><text fill="#000000" font-family="sans-serif" font-size="11.83" lengthAdjust="spacing" textLength="91.91" x="168.0467" y="1399.9666">DISCONNECTED</text><line style="stroke:#181818;stroke-width:0.91;stroke-dasharray:1.0,2.0;" x1="55.51" x2="272.6967" y1="1406.1135" y2="1406.1135"/><text fill="#000000" font-family="sans-serif" font-size="11.83" lengthAdjust="spacing" textLength="106.47" x="60.06" y="1420.4629">Form submit button:</text><text fill="#000000" font-family="sans-serif" font-size="11.83" lengthAdjust="spacing" textLength="47.32" x="74.62" y="1433.6792">DETACH</text><path d="M131.4192,1425.342 L131.4192,1427.3137 L126.49,1427.3137 L126.49,1428.2995 L131.4192,1428.2995 L131.4192,1430.2712 L134.3767,1427.777 L131.4192,1425.342 " fill="#000000" style="stroke:;stroke-width:0.0;stroke-dasharray:;"/><text fill="#000000" font-family="sans-serif" font-size="11.83" lengthAdjust="spacing" textLength="56.42" x="138.9267" y="1433.6792">CONNECT</text><polygon fill="#FEFFDD" filter="url(#f16sfs7bvw1rso)" points="215.67,1456.2062,347.62,1456.2062,356.72,1466.2162,347.62,1476.2262,215.67,1476.2262,206.57,1466.2162,215.67,1456.2062" style="stroke:#181818;stroke-width:0.455;"/><text fill="#000000" font-family="sans-serif" font-size="11.83" lengthAdjust="spacing" textLength="128.31" x="217.49" y="1470.5556">Alarm "Unknown device"</text><line style="stroke:#000000;stroke-width:0.91;stroke-dasharray:2.0,2.0;" x1="17.29" x2="591.955" y1="1482.1625" y2="1482.1625"/><text fill="#000000" font-family="sans-serif" font-size="10.01" font-weight="bold" lengthAdjust="spacing" textLength="124.67" x="21.84" y="1491.2243">[Unknown device model]</text><polygon fill="#FF0000" points="291.655,1553.7077,282.555,1557.3477,291.655,1560.9877,288.015,1557.3477" style="stroke:#FF0000;stroke-width:0.91;"/><line style="stroke:#FF0000;stroke-width:0.91;" x1="286.195" x2="383.565" y1="1557.3477" y2="1557.3477"/><text fill="#000000" font-family="sans-serif" font-size="11.83" lengthAdjust="spacing" textLength="51.87" x="297.115" y="1553.0208">WS close</text><path d="M54.6,1498.8055 L54.6,1601.6355 L273,1601.6355 L273,1507.9055 L263.9,1498.8055 L54.6,1498.8055 " fill="#FEFFDD" filter="url(#f16sfs7bvw1rso)" style="stroke:#181818;stroke-width:0.455;"/><path d="M263.9,1498.8055 L263.9,1507.9055 L273,1507.9055 L263.9,1498.8055 " fill="#FEFFDD" style="stroke:#181818;stroke-width:0.455;"/><text fill="#000000" font-family="sans-serif" font-size="11.83" lengthAdjust="spacing" textLength="83.72" x="60.06" y="1514.0649">WS data (Client</text><path d="M151.2875,1505.7277 L148.33,1508.2219 L151.2875,1510.6569 L151.2875,1508.6852 L156.2167,1508.6852 L156.2167,1507.6994 L151.2875,1507.6994 L151.2875,1505.7277 " fill="#000000" style="stroke:;stroke-width:0.0;stroke-dasharray:;"/><text fill="#000000" font-family="sans-serif" font-size="11.83" lengthAdjust="spacing" textLength="40.04" x="160.7667" y="1514.0649">Server):</text><text fill="#000000" font-family="sans-serif" font-size="11.83" lengthAdjust="spacing" textLength="119.21" x="74.62" y="1527.2813">status: "disconnected"</text><line style="stroke:#181818;stroke-width:0.91;stroke-dasharray:1.0,2.0;" x1="55.51" x2="272.6967" y1="1529.7882" y2="1529.7882"/><text fill="#000000" font-family="sans-serif" font-size="11.83" lengthAdjust="spacing" textLength="83.72" x="60.06" y="1544.1376">Indiction status:</text><text fill="#000000" font-family="sans-serif" font-size="11.83" lengthAdjust="spacing" textLength="76.44" x="74.62" y="1557.3539">CONNECTING</text><path d="M160.5392,1549.0167 L160.5392,1550.9884 L155.61,1550.9884 L155.61,1551.9742 L160.5392,1551.9742 L160.5392,1553.9459 L163.4967,1551.4517 L160.5392,1549.0167 " fill="#000000" style="stroke:;stroke-width:0.0;stroke-dasharray:;"/><text fill="#000000" font-family="sans-serif" font-size="11.83" lengthAdjust="spacing" textLength="91.91" x="168.0467" y="1557.3539">DISCONNECTED</text><line style="stroke:#181818;stroke-width:0.91;stroke-dasharray:1.0,2.0;" x1="55.51" x2="272.6967" y1="1563.5009" y2="1563.5009"/><text fill="#000000" font-family="sans-serif" font-size="11.83" lengthAdjust="spacing" textLength="106.47" x="60.06" y="1577.8502">Form submit button:</text><text fill="#000000" font-family="sans-serif" font-size="11.83" lengthAdjust="spacing" textLength="47.32" x="74.62" y="1591.0666">DETACH</text><path d="M131.4192,1582.7293 L131.4192,1584.701 L126.49,1584.701 L126.49,1585.6868 L131.4192,1585.6868 L131.4192,1587.6585 L134.3767,1585.1644 L131.4192,1582.7293 " fill="#000000" style="stroke:;stroke-width:0.0;stroke-dasharray:;"/><text fill="#000000" font-family="sans-serif" font-size="11.83" lengthAdjust="spacing" textLength="56.42" x="138.9267" y="1591.0666">CONNECT</text><polygon fill="#FEFFDD" filter="url(#f16sfs7bvw1rso)" points="215.67,1613.5935,346.71,1613.5935,355.81,1623.6035,346.71,1633.6135,215.67,1633.6135,206.57,1623.6035,215.67,1613.5935" style="stroke:#181818;stroke-width:0.455;"/><text fill="#000000" font-family="sans-serif" font-size="11.83" lengthAdjust="spacing" textLength="127.4" x="217.49" y="1627.9429">Alarm "Unknown model"</text><line style="stroke:#000000;stroke-width:0.91;stroke-dasharray:2.0,2.0;" x1="17.29" x2="591.955" y1="1639.5498" y2="1639.5498"/><text fill="#000000" font-family="sans-serif" font-size="10.01" font-weight="bold" lengthAdjust="spacing" textLength="181.09" x="21.84" y="1648.6116">[Websocket exception (disconnect)]</text><polygon fill="#FF0000" points="291.655,1694.2387,282.555,1697.8787,291.655,1701.5187,288.015,1697.8787" style="stroke:#FF0000;stroke-width:0.91;"/><polygon fill="#FF0000" points="373.555,1694.2387,382.655,1697.8787,373.555,1701.5187,377.195,1697.8787" style="stroke:#FF0000;stroke-width:0.91;"/><line style="stroke:#FF0000;stroke-width:0.91;" x1="286.195" x2="379.015" y1="1697.8787" y2="1697.8787"/><text fill="#000000" font-family="sans-serif" font-size="11.83" lengthAdjust="spacing" textLength="80.99" x="297.115" y="1693.5518">WS disconnect</text><path d="M54.6,1656.1929 L54.6,1725.3529 L273,1725.3529 L273,1665.2929 L263.9,1656.1929 L54.6,1656.1929 " fill="#FEFFDD" filter="url(#f16sfs7bvw1rso)" style="stroke:#181818;stroke-width:0.455;"/><path d="M263.9,1656.1929 L263.9,1665.2929 L273,1665.2929 L263.9,1656.1929 " fill="#FEFFDD" style="stroke:#181818;stroke-width:0.455;"/><text fill="#000000" font-family="sans-serif" font-size="11.83" lengthAdjust="spacing" textLength="83.72" x="60.06" y="1671.4523">Indiction status:</text><text fill="#000000" font-family="sans-serif" font-size="11.83" lengthAdjust="spacing" textLength="76.44" x="74.62" y="1684.6686">CONNECTING</text><path d="M160.5392,1676.3314 L160.5392,1678.303 L155.61,1678.303 L155.61,1679.2889 L160.5392,1679.2889 L160.5392,1681.2605 L163.4967,1678.7664 L160.5392,1676.3314 " fill="#000000" style="stroke:;stroke-width:0.0;stroke-dasharray:;"/><text fill="#000000" font-family="sans-serif" font-size="11.83" lengthAdjust="spacing" textLength="91.91" x="168.0467" y="1684.6686">DISCONNECTED</text><line style="stroke:#181818;stroke-width:0.91;stroke-dasharray:1.0,2.0;" x1="55.51" x2="272.6967" y1="1687.1755" y2="1687.1755"/><text fill="#000000" font-family="sans-serif" font-size="11.83" lengthAdjust="spacing" textLength="106.47" x="60.06" y="1701.5249">Form submit button:</text><text fill="#000000" font-family="sans-serif" font-size="11.83" lengthAdjust="spacing" textLength="47.32" x="74.62" y="1714.7413">DETACH</text><path d="M131.4192,1706.404 L131.4192,1708.3757 L126.49,1708.3757 L126.49,1709.3615 L131.4192,1709.3615 L131.4192,1711.3332 L134.3767,1708.839 L131.4192,1706.404 " fill="#000000" style="stroke:;stroke-width:0.0;stroke-dasharray:;"/><text fill="#000000" font-family="sans-serif" font-size="11.83" lengthAdjust="spacing" textLength="56.42" x="138.9267" y="1714.7413">CONNECT</text><line style="stroke:#000000;stroke-width:0.91;stroke-dasharray:2.0,2.0;" x1="8.19" x2="601.055" y1="1739.9982" y2="1739.9982"/><text fill="#000000" font-family="sans-serif" font-size="10.01" font-weight="bold" lengthAdjust="spacing" textLength="78.26" x="12.74" y="1749.06">[Form not valid]</text><polygon fill="#FEFFDD" filter="url(#f16sfs7bvw1rso)" points="240.24,1756.6413,323.05,1756.6413,332.15,1766.6513,323.05,1776.6613,240.24,1776.6613,231.14,1766.6513,240.24,1756.6413" style="stroke:#181818;stroke-width:0.455;"/><text fill="#000000" font-family="sans-serif" font-size="11.83" lengthAdjust="spacing" textLength="79.17" x="242.06" y="1770.9906">Validation error</text><!--SRC=[xLXHRzem47xFhpXHQIrIwTJs3Q5ABNGjqiGgqQqFKnzCSe2LO3FRWNNJ_liS4o0XYKbIfctQ_DJQFj_b-xwxCvO-PNCYo0pab7XyITa4b0ZHwKZr4k2LenSLTUcSC0NV7T3ZXhZ-dU0Xyxeyu09UC0ZuqldXTDx6Degg0E612zLQq6yWyKk8p4NmA9beLwap6zs08bCD81BUSNwUNXoYMA1OBrwa5mUebbpuuE62khZUTEcGGEa_n0mM9A0UKPGp4_XcNiyHSAVe-cO-6f5h-7mq2a9yRhMkZ3TemzCGNCuOkfj3ei6uGWXmhE3eFPrCrOsssYn6GviP7oUhZuFE6o84NxP4jFiALb_LRATiea7dxVXhW7YUG2apMpnKn9ssOKm2cNPwfaTgeiyyQW87gOWAPTPVhp_iVXWCRhkFjxtT8EE5_k3ExiKWAiFHZ2eOXKfnblKJdxNhedVxUDszt-n6vXbeDnCHORqL73ainBHTxD1sgMaR3kyj5kVGQSKs2PursdFETZ3ToxIDxSZEGdOqOcAWiOwMJHgv6sVSmq3lqm5f2OmfGo-zCGFU6i0xL2jhe6pCCuSR059uh04ysLeryymgm5WQobV2MGdI1Annpfd_CdjpaOr6mFdSm3lNbKwQe7CTMI3UMZQBJ2l2N0dg0y2T1_ckDkkWdXm6fVO-c7EhKxLwc5EpTFtRBLjxuovKJARJ91kDr6Q_ZivzhQTSZodrXIE1n8UZ1yfyE5wV5LqgZhLiNQGBz60i-0nM8HQ64XTtWTvpkhHxLCPAizck4YUoJdRpWCjYy3P8M-4v1CH9cCrzoxRHgkhgobxvtceuqvOJjuBNnLNcRf2vavXBGS5jfD3QAiYynDgTGotrMBFwNZcZFWVywkBSe7goLPob5PQIcbrYX-fzstYBQd4XT-Mrz2eD5VglefbgMidLI8Bt9nn9xlgweTTXFbdABGNAply_1dwTAfzCN7lIab1DTG-ZmIaeEaCU9eWz1LJkMTEfbyZ591xYju0zUNEvAwURuYkDLJ6v7iigfRnACWgfcvfLqxAOpNAmrax5tmPid489W3yod_4bW_v3vkMXN5haWrWp7KgaGetNZXhoh_NQKOwP32jJ0o7NYAmWRyDrGBItnfgR-9shYBhSdoN_oVj3o3EqPBWhNTUgrBHyDlzgYAEAbO3DU8cUmimBhvDFmAVDwo-WTYGSVSXF]--></g></svg>