<svg width="1052" height="167" viewBox="0 0 1052 167" fill="none" xmlns="http://www.w3.org/2000/svg">
<g clip-path="url(#clip0_5_388)" filter="url(#filter0_i_5_388)">
<path d="M0 15C0 6.71573 6.71573 0 15 0H84V167H15C6.71573 167 0 160.284 0 152V15Z" fill="url(#paint0_linear_5_388)"/>
<path d="M968 0H1037C1045.28 0 1052 6.71573 1052 15V152C1052 160.284 1045.28 167 1037 167H968V0Z" fill="url(#paint1_linear_5_388)"/>
<rect x="84" width="884" height="167" fill="url(#paint2_linear_5_388)"/>
<path d="M125.72 25.768C125.768 25.768 125.809 25.7867 125.844 25.824L126.18 26.192C125.945 26.4693 125.659 26.684 125.32 26.836C124.984 26.988 124.579 27.064 124.104 27.064C123.688 27.064 123.311 26.992 122.972 26.848C122.636 26.704 122.348 26.5027 122.108 26.244C121.871 25.9853 121.687 25.676 121.556 25.316C121.425 24.956 121.36 24.56 121.36 24.128C121.36 23.696 121.428 23.3 121.564 22.94C121.703 22.58 121.896 22.2707 122.144 22.012C122.392 21.7533 122.688 21.552 123.032 21.408C123.379 21.264 123.761 21.192 124.18 21.192C124.588 21.192 124.951 21.2587 125.268 21.392C125.585 21.5253 125.861 21.7027 126.096 21.924L125.816 22.32C125.797 22.3493 125.773 22.3733 125.744 22.392C125.717 22.4107 125.681 22.42 125.636 22.42C125.585 22.42 125.525 22.3947 125.456 22.344C125.389 22.2933 125.3 22.2373 125.188 22.176C125.079 22.112 124.943 22.0547 124.78 22.004C124.617 21.9533 124.415 21.928 124.172 21.928C123.887 21.928 123.625 21.9787 123.388 22.08C123.151 22.1787 122.945 22.3227 122.772 22.512C122.601 22.6987 122.468 22.9293 122.372 23.204C122.279 23.476 122.232 23.784 122.232 24.128C122.232 24.4773 122.281 24.788 122.38 25.06C122.479 25.332 122.615 25.5627 122.788 25.752C122.961 25.9413 123.165 26.0853 123.4 26.184C123.635 26.2827 123.888 26.332 124.16 26.332C124.325 26.332 124.473 26.3227 124.604 26.304C124.737 26.2827 124.859 26.252 124.968 26.212C125.08 26.172 125.185 26.1213 125.284 26.06C125.383 25.996 125.48 25.92 125.576 25.832C125.597 25.8133 125.62 25.7987 125.644 25.788C125.668 25.7747 125.693 25.768 125.72 25.768ZM132.279 24.128C132.279 24.5573 132.209 24.952 132.071 25.312C131.935 25.6693 131.741 25.9787 131.491 26.24C131.24 26.4987 130.94 26.7 130.591 26.844C130.241 26.988 129.853 27.06 129.427 27.06C129.003 27.06 128.615 26.988 128.263 26.844C127.913 26.7 127.613 26.4987 127.363 26.24C127.115 25.9787 126.921 25.6693 126.783 25.312C126.644 24.952 126.575 24.5573 126.575 24.128C126.575 23.7013 126.644 23.308 126.783 22.948C126.921 22.588 127.115 22.2787 127.363 22.02C127.613 21.7587 127.913 21.556 128.263 21.412C128.615 21.2653 129.003 21.192 129.427 21.192C129.853 21.192 130.241 21.2653 130.591 21.412C130.94 21.556 131.24 21.7587 131.491 22.02C131.741 22.2787 131.935 22.588 132.071 22.948C132.209 23.308 132.279 23.7013 132.279 24.128ZM131.407 24.128C131.407 23.7867 131.36 23.48 131.267 23.208C131.173 22.936 131.04 22.7053 130.867 22.516C130.696 22.3267 130.488 22.1813 130.243 22.08C130 21.9787 129.728 21.928 129.427 21.928C129.125 21.928 128.852 21.9787 128.607 22.08C128.364 22.1813 128.156 22.3267 127.983 22.516C127.809 22.7053 127.676 22.936 127.583 23.208C127.489 23.48 127.443 23.7867 127.443 24.128C127.443 24.472 127.489 24.78 127.583 25.052C127.676 25.3213 127.809 25.5507 127.983 25.74C128.156 25.9293 128.364 26.0747 128.607 26.176C128.852 26.2747 129.125 26.324 129.427 26.324C129.728 26.324 130 26.2747 130.243 26.176C130.488 26.0747 130.696 25.9293 130.867 25.74C131.04 25.5507 131.173 25.3213 131.267 25.052C131.36 24.78 131.407 24.472 131.407 24.128ZM138.053 21.256V27H137.621C137.554 27 137.498 26.988 137.453 26.964C137.41 26.94 137.366 26.9013 137.321 26.848L134.077 22.652C134.082 22.724 134.086 22.7947 134.089 22.864C134.094 22.9333 134.097 22.9987 134.097 23.06V27H133.349V21.256H133.789C133.863 21.256 133.919 21.2653 133.957 21.284C133.994 21.3 134.035 21.3387 134.081 21.4L137.333 25.6C137.325 25.5227 137.318 25.448 137.313 25.376C137.31 25.3013 137.309 25.232 137.309 25.168V21.256H138.053ZM144.178 21.256V27H143.746C143.679 27 143.623 26.988 143.578 26.964C143.535 26.94 143.491 26.9013 143.446 26.848L140.202 22.652C140.207 22.724 140.211 22.7947 140.214 22.864C140.219 22.9333 140.222 22.9987 140.222 23.06V27H139.474V21.256H139.914C139.988 21.256 140.044 21.2653 140.082 21.284C140.119 21.3 140.16 21.3387 140.206 21.4L143.458 25.6C143.45 25.5227 143.443 25.448 143.438 25.376C143.435 25.3013 143.434 25.232 143.434 25.168V21.256H144.178ZM149.163 26.308L149.159 27H145.599V21.256H149.159V21.948H146.455V23.768H148.631V24.436H146.455V26.308H149.163ZM154.103 25.768C154.151 25.768 154.192 25.7867 154.227 25.824L154.563 26.192C154.328 26.4693 154.041 26.684 153.703 26.836C153.367 26.988 152.961 27.064 152.487 27.064C152.071 27.064 151.693 26.992 151.355 26.848C151.019 26.704 150.731 26.5027 150.491 26.244C150.253 25.9853 150.069 25.676 149.939 25.316C149.808 24.956 149.743 24.56 149.743 24.128C149.743 23.696 149.811 23.3 149.947 22.94C150.085 22.58 150.279 22.2707 150.527 22.012C150.775 21.7533 151.071 21.552 151.415 21.408C151.761 21.264 152.144 21.192 152.563 21.192C152.971 21.192 153.333 21.2587 153.651 21.392C153.968 21.5253 154.244 21.7027 154.479 21.924L154.199 22.32C154.18 22.3493 154.156 22.3733 154.127 22.392C154.1 22.4107 154.064 22.42 154.019 22.42C153.968 22.42 153.908 22.3947 153.839 22.344C153.772 22.2933 153.683 22.2373 153.571 22.176C153.461 22.112 153.325 22.0547 153.163 22.004C153 21.9533 152.797 21.928 152.555 21.928C152.269 21.928 152.008 21.9787 151.771 22.08C151.533 22.1787 151.328 22.3227 151.155 22.512C150.984 22.6987 150.851 22.9293 150.755 23.204C150.661 23.476 150.615 23.784 150.615 24.128C150.615 24.4773 150.664 24.788 150.763 25.06C150.861 25.332 150.997 25.5627 151.171 25.752C151.344 25.9413 151.548 26.0853 151.783 26.184C152.017 26.2827 152.271 26.332 152.543 26.332C152.708 26.332 152.856 26.3227 152.987 26.304C153.12 26.2827 153.241 26.252 153.351 26.212C153.463 26.172 153.568 26.1213 153.667 26.06C153.765 25.996 153.863 25.92 153.959 25.832C153.98 25.8133 154.003 25.7987 154.027 25.788C154.051 25.7747 154.076 25.768 154.103 25.768ZM159.335 21.968H157.511V27H156.663V21.968H154.831V21.256H159.335V21.968ZM163.725 26.308L163.721 27H160.161V21.256H163.721V21.948H161.017V23.768H163.193V24.436H161.017V26.308H163.725ZM169.79 24.128C169.79 24.5573 169.721 24.948 169.582 25.3C169.446 25.652 169.253 25.9547 169.002 26.208C168.752 26.4587 168.452 26.6533 168.102 26.792C167.753 26.9307 167.365 27 166.938 27H164.778V21.256H166.938C167.365 21.256 167.753 21.3253 168.102 21.464C168.452 21.6027 168.752 21.7987 169.002 22.052C169.253 22.3027 169.446 22.6053 169.582 22.96C169.721 23.312 169.79 23.7013 169.79 24.128ZM168.918 24.128C168.918 23.7867 168.872 23.4813 168.778 23.212C168.685 22.94 168.552 22.7107 168.378 22.524C168.208 22.3347 168 22.1907 167.754 22.092C167.512 21.9933 167.24 21.944 166.938 21.944H165.634V26.312H166.938C167.24 26.312 167.512 26.2627 167.754 26.164C168 26.0653 168.208 25.9227 168.378 25.736C168.552 25.5467 168.685 25.3173 168.778 25.048C168.872 24.7787 168.918 24.472 168.918 24.128Z" fill="#7D73A1"/>
<path d="M22 24C22 17.3726 27.3726 12 34 12H52C58.6274 12 64 17.3726 64 24V24C64 30.6274 58.6274 36 52 36H34C27.3726 36 22 30.6274 22 24V24Z" fill="white"/>
<path d="M990 24C990 17.3726 995.373 12 1002 12H1020C1026.63 12 1032 17.3726 1032 24V24C1032 30.6274 1026.63 36 1020 36H1002C995.373 36 990 30.6274 990 24V24Z" fill="white"/>
<path d="M990 143C990 136.373 995.373 131 1002 131H1020C1026.63 131 1032 136.373 1032 143V143C1032 149.627 1026.63 155 1020 155H1002C995.373 155 990 149.627 990 143V143Z" fill="white"/>
<path d="M22 143C22 136.373 27.3726 131 34 131H52C58.6274 131 64 136.373 64 143V143C64 149.627 58.6274 155 52 155H34C27.3726 155 22 149.627 22 143V143Z" fill="white"/>
<path d="M512 41C512 38.2386 514.239 36 517 36H553C555.761 36 558 38.2386 558 41V77C558 79.7614 555.761 82 553 82H517C514.239 82 512 79.7614 512 77V41Z" fill="white"/>
<path d="M522.396 44.204V46.444C522.105 46.652 521.796 46.808 521.468 46.912C521.14 47.0133 520.783 47.064 520.396 47.064C519.932 47.064 519.512 46.992 519.136 46.848C518.763 46.704 518.444 46.5027 518.18 46.244C517.916 45.9853 517.712 45.676 517.568 45.316C517.427 44.956 517.356 44.56 517.356 44.128C517.356 43.6933 517.424 43.296 517.56 42.936C517.699 42.5733 517.896 42.264 518.152 42.008C518.408 41.7493 518.717 41.5493 519.08 41.408C519.445 41.264 519.855 41.192 520.308 41.192C520.537 41.192 520.749 41.2093 520.944 41.244C521.141 41.2787 521.324 41.328 521.492 41.392C521.66 41.456 521.815 41.5333 521.956 41.624C522.1 41.712 522.233 41.812 522.356 41.924L522.112 42.308C522.075 42.3693 522.025 42.408 521.964 42.424C521.903 42.44 521.836 42.4253 521.764 42.38C521.695 42.34 521.617 42.2933 521.532 42.24C521.449 42.1867 521.349 42.1373 521.232 42.092C521.117 42.0467 520.983 42.008 520.828 41.976C520.673 41.944 520.491 41.928 520.28 41.928C519.965 41.928 519.681 41.98 519.428 42.084C519.175 42.1853 518.959 42.332 518.78 42.524C518.601 42.716 518.464 42.948 518.368 43.22C518.272 43.4893 518.224 43.792 518.224 44.128C518.224 44.48 518.275 44.796 518.376 45.076C518.477 45.3533 518.62 45.5893 518.804 45.784C518.991 45.976 519.216 46.1227 519.48 46.224C519.747 46.3253 520.044 46.376 520.372 46.376C520.5 46.376 520.619 46.3693 520.728 46.356C520.84 46.34 520.947 46.3187 521.048 46.292C521.149 46.2653 521.247 46.232 521.34 46.192C521.436 46.152 521.531 46.108 521.624 46.06V44.856H520.776C520.723 44.856 520.679 44.84 520.644 44.808C520.612 44.776 520.596 44.736 520.596 44.688V44.204H522.396ZM527.108 46.308L527.104 47H523.544V41.256H527.104V41.948H524.4V43.768H526.576V44.436H524.4V46.308H527.108ZM533.885 44.128C533.885 44.6293 533.83 45.064 533.721 45.432C533.614 45.8 533.466 46.1053 533.277 46.348C533.09 46.588 532.869 46.7667 532.613 46.884C532.359 47.0013 532.086 47.06 531.793 47.06C531.499 47.06 531.225 47.0013 530.969 46.884C530.715 46.7667 530.495 46.588 530.309 46.348C530.122 46.1053 529.975 45.8 529.869 45.432C529.762 45.064 529.709 44.6293 529.709 44.128C529.709 43.6267 529.762 43.192 529.869 42.824C529.975 42.4533 530.122 42.148 530.309 41.908C530.495 41.6653 530.715 41.4853 530.969 41.368C531.225 41.2507 531.499 41.192 531.793 41.192C532.086 41.192 532.359 41.2507 532.613 41.368C532.869 41.4853 533.09 41.6653 533.277 41.908C533.466 42.148 533.614 42.4533 533.721 42.824C533.83 43.192 533.885 43.6267 533.885 44.128ZM533.077 44.128C533.077 43.696 533.041 43.3347 532.969 43.044C532.899 42.7533 532.805 42.52 532.685 42.344C532.567 42.1653 532.431 42.0387 532.277 41.964C532.122 41.8893 531.961 41.852 531.793 41.852C531.625 41.852 531.463 41.8893 531.309 41.964C531.154 42.0387 531.017 42.1653 530.897 42.344C530.779 42.52 530.686 42.7533 530.617 43.044C530.547 43.3347 530.513 43.696 530.513 44.128C530.513 44.56 530.547 44.9213 530.617 45.212C530.686 45.5027 530.779 45.736 530.897 45.912C531.017 46.088 531.154 46.2133 531.309 46.288C531.463 46.3627 531.625 46.4 531.793 46.4C531.961 46.4 532.122 46.3627 532.277 46.288C532.431 46.2133 532.567 46.088 532.685 45.912C532.805 45.736 532.899 45.5027 532.969 45.212C533.041 44.9213 533.077 44.56 533.077 44.128ZM535.129 47.064C535.092 47.1653 535.033 47.24 534.953 47.288C534.873 47.3387 534.791 47.364 534.705 47.364H534.377L536.761 41.38C536.799 41.2893 536.852 41.22 536.921 41.172C536.993 41.1213 537.076 41.096 537.169 41.096H537.501L535.129 47.064ZM542.166 44.128C542.166 44.6293 542.111 45.064 542.002 45.432C541.895 45.8 541.747 46.1053 541.558 46.348C541.371 46.588 541.15 46.7667 540.894 46.884C540.64 47.0013 540.367 47.06 540.074 47.06C539.78 47.06 539.506 47.0013 539.25 46.884C538.996 46.7667 538.776 46.588 538.59 46.348C538.403 46.1053 538.256 45.8 538.15 45.432C538.043 45.064 537.99 44.6293 537.99 44.128C537.99 43.6267 538.043 43.192 538.15 42.824C538.256 42.4533 538.403 42.148 538.59 41.908C538.776 41.6653 538.996 41.4853 539.25 41.368C539.506 41.2507 539.78 41.192 540.074 41.192C540.367 41.192 540.64 41.2507 540.894 41.368C541.15 41.4853 541.371 41.6653 541.558 41.908C541.747 42.148 541.895 42.4533 542.002 42.824C542.111 43.192 542.166 43.6267 542.166 44.128ZM541.358 44.128C541.358 43.696 541.322 43.3347 541.25 43.044C541.18 42.7533 541.086 42.52 540.966 42.344C540.848 42.1653 540.712 42.0387 540.558 41.964C540.403 41.8893 540.242 41.852 540.074 41.852C539.906 41.852 539.744 41.8893 539.59 41.964C539.435 42.0387 539.298 42.1653 539.178 42.344C539.06 42.52 538.967 42.7533 538.898 43.044C538.828 43.3347 538.794 43.696 538.794 44.128C538.794 44.56 538.828 44.9213 538.898 45.212C538.967 45.5027 539.06 45.736 539.178 45.912C539.298 46.088 539.435 46.2133 539.59 46.288C539.744 46.3627 539.906 46.4 540.074 46.4C540.242 46.4 540.403 46.3627 540.558 46.288C540.712 46.2133 540.848 46.088 540.966 45.912C541.086 45.736 541.18 45.5027 541.25 45.212C541.322 44.9213 541.358 44.56 541.358 44.128Z" fill="#7D73A1"/>
<path d="M708 41C708 38.2386 710.239 36 713 36H749C751.761 36 754 38.2386 754 41V77C754 79.7614 751.761 82 749 82H713C710.239 82 708 79.7614 708 77V41Z" fill="white"/>
<path d="M718.396 44.204V46.444C718.105 46.652 717.796 46.808 717.468 46.912C717.14 47.0133 716.783 47.064 716.396 47.064C715.932 47.064 715.512 46.992 715.136 46.848C714.763 46.704 714.444 46.5027 714.18 46.244C713.916 45.9853 713.712 45.676 713.568 45.316C713.427 44.956 713.356 44.56 713.356 44.128C713.356 43.6933 713.424 43.296 713.56 42.936C713.699 42.5733 713.896 42.264 714.152 42.008C714.408 41.7493 714.717 41.5493 715.08 41.408C715.445 41.264 715.855 41.192 716.308 41.192C716.537 41.192 716.749 41.2093 716.944 41.244C717.141 41.2787 717.324 41.328 717.492 41.392C717.66 41.456 717.815 41.5333 717.956 41.624C718.1 41.712 718.233 41.812 718.356 41.924L718.112 42.308C718.075 42.3693 718.025 42.408 717.964 42.424C717.903 42.44 717.836 42.4253 717.764 42.38C717.695 42.34 717.617 42.2933 717.532 42.24C717.449 42.1867 717.349 42.1373 717.232 42.092C717.117 42.0467 716.983 42.008 716.828 41.976C716.673 41.944 716.491 41.928 716.28 41.928C715.965 41.928 715.681 41.98 715.428 42.084C715.175 42.1853 714.959 42.332 714.78 42.524C714.601 42.716 714.464 42.948 714.368 43.22C714.272 43.4893 714.224 43.792 714.224 44.128C714.224 44.48 714.275 44.796 714.376 45.076C714.477 45.3533 714.62 45.5893 714.804 45.784C714.991 45.976 715.216 46.1227 715.48 46.224C715.747 46.3253 716.044 46.376 716.372 46.376C716.5 46.376 716.619 46.3693 716.728 46.356C716.84 46.34 716.947 46.3187 717.048 46.292C717.149 46.2653 717.247 46.232 717.34 46.192C717.436 46.152 717.531 46.108 717.624 46.06V44.856H716.776C716.723 44.856 716.679 44.84 716.644 44.808C716.612 44.776 716.596 44.736 716.596 44.688V44.204H718.396ZM723.108 46.308L723.104 47H719.544V41.256H723.104V41.948H720.4V43.768H722.576V44.436H720.4V46.308H723.108ZM729.421 46.26C729.506 46.26 729.573 46.2853 729.621 46.336C729.669 46.384 729.693 46.448 729.693 46.528V47H725.837V46.732C725.837 46.6787 725.847 46.6227 725.869 46.564C725.89 46.5027 725.926 46.448 725.977 46.4L727.793 44.58C727.945 44.428 728.082 44.2813 728.205 44.14C728.327 43.9987 728.431 43.8587 728.517 43.72C728.602 43.5787 728.667 43.4347 728.713 43.288C728.761 43.1413 728.785 42.9867 728.785 42.824C728.785 42.664 728.759 42.524 728.709 42.404C728.658 42.2813 728.589 42.18 728.501 42.1C728.413 42.02 728.309 41.96 728.189 41.92C728.069 41.88 727.939 41.86 727.801 41.86C727.662 41.86 727.534 41.88 727.417 41.92C727.302 41.96 727.199 42.016 727.109 42.088C727.018 42.16 726.942 42.2453 726.881 42.344C726.819 42.4427 726.775 42.5493 726.749 42.664C726.711 42.7653 726.663 42.8333 726.605 42.868C726.549 42.9027 726.466 42.9107 726.357 42.892L725.949 42.82C725.986 42.5533 726.059 42.3187 726.169 42.116C726.278 41.9133 726.415 41.744 726.581 41.608C726.746 41.4693 726.935 41.3653 727.149 41.296C727.365 41.2267 727.597 41.192 727.845 41.192C728.095 41.192 728.326 41.2293 728.537 41.304C728.75 41.376 728.934 41.4813 729.089 41.62C729.243 41.7587 729.365 41.928 729.453 42.128C729.541 42.3253 729.585 42.5493 729.585 42.8C729.585 43.0133 729.553 43.212 729.489 43.396C729.427 43.5773 729.342 43.7507 729.233 43.916C729.126 44.0813 729.001 44.2427 728.857 44.4C728.715 44.5547 728.565 44.712 728.405 44.872L726.949 46.36C727.061 46.3307 727.173 46.3067 727.285 46.288C727.399 46.2693 727.507 46.26 727.609 46.26H729.421ZM731.129 47.064C731.092 47.1653 731.033 47.24 730.953 47.288C730.873 47.3387 730.791 47.364 730.705 47.364H730.377L732.761 41.38C732.799 41.2893 732.852 41.22 732.921 41.172C732.993 41.1213 733.076 41.096 733.169 41.096H733.501L731.129 47.064ZM738.166 44.128C738.166 44.6293 738.111 45.064 738.002 45.432C737.895 45.8 737.747 46.1053 737.558 46.348C737.371 46.588 737.15 46.7667 736.894 46.884C736.64 47.0013 736.367 47.06 736.074 47.06C735.78 47.06 735.506 47.0013 735.25 46.884C734.996 46.7667 734.776 46.588 734.59 46.348C734.403 46.1053 734.256 45.8 734.15 45.432C734.043 45.064 733.99 44.6293 733.99 44.128C733.99 43.6267 734.043 43.192 734.15 42.824C734.256 42.4533 734.403 42.148 734.59 41.908C734.776 41.6653 734.996 41.4853 735.25 41.368C735.506 41.2507 735.78 41.192 736.074 41.192C736.367 41.192 736.64 41.2507 736.894 41.368C737.15 41.4853 737.371 41.6653 737.558 41.908C737.747 42.148 737.895 42.4533 738.002 42.824C738.111 43.192 738.166 43.6267 738.166 44.128ZM737.358 44.128C737.358 43.696 737.322 43.3347 737.25 43.044C737.18 42.7533 737.086 42.52 736.966 42.344C736.848 42.1653 736.712 42.0387 736.558 41.964C736.403 41.8893 736.242 41.852 736.074 41.852C735.906 41.852 735.744 41.8893 735.59 41.964C735.435 42.0387 735.298 42.1653 735.178 42.344C735.06 42.52 734.967 42.7533 734.898 43.044C734.828 43.3347 734.794 43.696 734.794 44.128C734.794 44.56 734.828 44.9213 734.898 45.212C734.967 45.5027 735.06 45.736 735.178 45.912C735.298 46.088 735.435 46.2133 735.59 46.288C735.744 46.3627 735.906 46.4 736.074 46.4C736.242 46.4 736.403 46.3627 736.558 46.288C736.712 46.2133 736.848 46.088 736.966 45.912C737.086 45.736 737.18 45.5027 737.25 45.212C737.322 44.9213 737.358 44.56 737.358 44.128Z" fill="#7D73A1"/>
<path d="M610 41C610 38.2386 612.239 36 615 36H651C653.761 36 656 38.2386 656 41V77C656 79.7614 653.761 82 651 82H615C612.239 82 610 79.7614 610 77V41Z" fill="white"/>
<path d="M620.396 44.204V46.444C620.105 46.652 619.796 46.808 619.468 46.912C619.14 47.0133 618.783 47.064 618.396 47.064C617.932 47.064 617.512 46.992 617.136 46.848C616.763 46.704 616.444 46.5027 616.18 46.244C615.916 45.9853 615.712 45.676 615.568 45.316C615.427 44.956 615.356 44.56 615.356 44.128C615.356 43.6933 615.424 43.296 615.56 42.936C615.699 42.5733 615.896 42.264 616.152 42.008C616.408 41.7493 616.717 41.5493 617.08 41.408C617.445 41.264 617.855 41.192 618.308 41.192C618.537 41.192 618.749 41.2093 618.944 41.244C619.141 41.2787 619.324 41.328 619.492 41.392C619.66 41.456 619.815 41.5333 619.956 41.624C620.1 41.712 620.233 41.812 620.356 41.924L620.112 42.308C620.075 42.3693 620.025 42.408 619.964 42.424C619.903 42.44 619.836 42.4253 619.764 42.38C619.695 42.34 619.617 42.2933 619.532 42.24C619.449 42.1867 619.349 42.1373 619.232 42.092C619.117 42.0467 618.983 42.008 618.828 41.976C618.673 41.944 618.491 41.928 618.28 41.928C617.965 41.928 617.681 41.98 617.428 42.084C617.175 42.1853 616.959 42.332 616.78 42.524C616.601 42.716 616.464 42.948 616.368 43.22C616.272 43.4893 616.224 43.792 616.224 44.128C616.224 44.48 616.275 44.796 616.376 45.076C616.477 45.3533 616.62 45.5893 616.804 45.784C616.991 45.976 617.216 46.1227 617.48 46.224C617.747 46.3253 618.044 46.376 618.372 46.376C618.5 46.376 618.619 46.3693 618.728 46.356C618.84 46.34 618.947 46.3187 619.048 46.292C619.149 46.2653 619.247 46.232 619.34 46.192C619.436 46.152 619.531 46.108 619.624 46.06V44.856H618.776C618.723 44.856 618.679 44.84 618.644 44.808C618.612 44.776 618.596 44.736 618.596 44.688V44.204H620.396ZM625.108 46.308L625.104 47H621.544V41.256H625.104V41.948H622.4V43.768H624.576V44.436H622.4V46.308H625.108ZM631.565 46.404V47H628.461V46.404H629.677V42.64C629.677 42.52 629.681 42.396 629.689 42.268L628.713 43.096C628.675 43.1253 628.638 43.144 628.601 43.152C628.563 43.16 628.527 43.1613 628.493 43.156C628.461 43.1507 628.431 43.14 628.405 43.124C628.381 43.1053 628.361 43.0867 628.345 43.068L628.101 42.728L629.821 41.244H630.457V46.404H631.565ZM633.129 47.064C633.092 47.1653 633.033 47.24 632.953 47.288C632.873 47.3387 632.791 47.364 632.705 47.364H632.377L634.761 41.38C634.799 41.2893 634.852 41.22 634.921 41.172C634.993 41.1213 635.076 41.096 635.169 41.096H635.501L633.129 47.064ZM640.166 44.128C640.166 44.6293 640.111 45.064 640.002 45.432C639.895 45.8 639.747 46.1053 639.558 46.348C639.371 46.588 639.15 46.7667 638.894 46.884C638.64 47.0013 638.367 47.06 638.074 47.06C637.78 47.06 637.506 47.0013 637.25 46.884C636.996 46.7667 636.776 46.588 636.59 46.348C636.403 46.1053 636.256 45.8 636.15 45.432C636.043 45.064 635.99 44.6293 635.99 44.128C635.99 43.6267 636.043 43.192 636.15 42.824C636.256 42.4533 636.403 42.148 636.59 41.908C636.776 41.6653 636.996 41.4853 637.25 41.368C637.506 41.2507 637.78 41.192 638.074 41.192C638.367 41.192 638.64 41.2507 638.894 41.368C639.15 41.4853 639.371 41.6653 639.558 41.908C639.747 42.148 639.895 42.4533 640.002 42.824C640.111 43.192 640.166 43.6267 640.166 44.128ZM639.358 44.128C639.358 43.696 639.322 43.3347 639.25 43.044C639.18 42.7533 639.086 42.52 638.966 42.344C638.848 42.1653 638.712 42.0387 638.558 41.964C638.403 41.8893 638.242 41.852 638.074 41.852C637.906 41.852 637.744 41.8893 637.59 41.964C637.435 42.0387 637.298 42.1653 637.178 42.344C637.06 42.52 636.967 42.7533 636.898 43.044C636.828 43.3347 636.794 43.696 636.794 44.128C636.794 44.56 636.828 44.9213 636.898 45.212C636.967 45.5027 637.06 45.736 637.178 45.912C637.298 46.088 637.435 46.2133 637.59 46.288C637.744 46.3627 637.906 46.4 638.074 46.4C638.242 46.4 638.403 46.3627 638.558 46.288C638.712 46.2133 638.848 46.088 638.966 45.912C639.086 45.736 639.18 45.5027 639.25 45.212C639.322 44.9213 639.358 44.56 639.358 44.128Z" fill="#7D73A1"/>
<path d="M806 41C806 38.2386 808.239 36 811 36H847C849.761 36 852 38.2386 852 41V77C852 79.7614 849.761 82 847 82H811C808.239 82 806 79.7614 806 77V41Z" fill="white"/>
<path d="M816.396 44.204V46.444C816.105 46.652 815.796 46.808 815.468 46.912C815.14 47.0133 814.783 47.064 814.396 47.064C813.932 47.064 813.512 46.992 813.136 46.848C812.763 46.704 812.444 46.5027 812.18 46.244C811.916 45.9853 811.712 45.676 811.568 45.316C811.427 44.956 811.356 44.56 811.356 44.128C811.356 43.6933 811.424 43.296 811.56 42.936C811.699 42.5733 811.896 42.264 812.152 42.008C812.408 41.7493 812.717 41.5493 813.08 41.408C813.445 41.264 813.855 41.192 814.308 41.192C814.537 41.192 814.749 41.2093 814.944 41.244C815.141 41.2787 815.324 41.328 815.492 41.392C815.66 41.456 815.815 41.5333 815.956 41.624C816.1 41.712 816.233 41.812 816.356 41.924L816.112 42.308C816.075 42.3693 816.025 42.408 815.964 42.424C815.903 42.44 815.836 42.4253 815.764 42.38C815.695 42.34 815.617 42.2933 815.532 42.24C815.449 42.1867 815.349 42.1373 815.232 42.092C815.117 42.0467 814.983 42.008 814.828 41.976C814.673 41.944 814.491 41.928 814.28 41.928C813.965 41.928 813.681 41.98 813.428 42.084C813.175 42.1853 812.959 42.332 812.78 42.524C812.601 42.716 812.464 42.948 812.368 43.22C812.272 43.4893 812.224 43.792 812.224 44.128C812.224 44.48 812.275 44.796 812.376 45.076C812.477 45.3533 812.62 45.5893 812.804 45.784C812.991 45.976 813.216 46.1227 813.48 46.224C813.747 46.3253 814.044 46.376 814.372 46.376C814.5 46.376 814.619 46.3693 814.728 46.356C814.84 46.34 814.947 46.3187 815.048 46.292C815.149 46.2653 815.247 46.232 815.34 46.192C815.436 46.152 815.531 46.108 815.624 46.06V44.856H814.776C814.723 44.856 814.679 44.84 814.644 44.808C814.612 44.776 814.596 44.736 814.596 44.688V44.204H816.396ZM821.108 46.308L821.104 47H817.544V41.256H821.104V41.948H818.4V43.768H820.576V44.436H818.4V46.308H821.108ZM823.973 42.82C824.013 42.5533 824.087 42.3187 824.197 42.116C824.306 41.9133 824.443 41.744 824.609 41.608C824.774 41.4693 824.963 41.3653 825.177 41.296C825.393 41.2267 825.625 41.192 825.873 41.192C826.121 41.192 826.349 41.228 826.557 41.3C826.765 41.3693 826.942 41.4693 827.089 41.6C827.238 41.728 827.354 41.8827 827.437 42.064C827.519 42.2453 827.561 42.4453 827.561 42.664C827.561 42.848 827.538 43.0107 827.493 43.152C827.447 43.2933 827.382 43.4173 827.297 43.524C827.214 43.6307 827.113 43.7213 826.993 43.796C826.873 43.868 826.738 43.928 826.589 43.976C826.954 44.0773 827.229 44.2427 827.413 44.472C827.597 44.6987 827.689 44.9867 827.689 45.336C827.689 45.6053 827.638 45.848 827.537 46.064C827.435 46.2773 827.297 46.4587 827.121 46.608C826.945 46.7547 826.739 46.868 826.505 46.948C826.273 47.0253 826.025 47.064 825.761 47.064C825.459 47.064 825.201 47.028 824.985 46.956C824.769 46.8813 824.585 46.7787 824.433 46.648C824.281 46.5147 824.154 46.356 824.053 46.172C823.954 45.9853 823.87 45.7813 823.801 45.56L824.141 45.416C824.229 45.3787 824.314 45.368 824.397 45.384C824.479 45.4 824.539 45.4467 824.577 45.524C824.617 45.604 824.662 45.6947 824.713 45.796C824.766 45.8947 824.837 45.9893 824.925 46.08C825.013 46.168 825.122 46.2427 825.253 46.304C825.386 46.3653 825.553 46.396 825.753 46.396C825.945 46.396 826.113 46.3653 826.257 46.304C826.401 46.24 826.521 46.1587 826.617 46.06C826.713 45.9587 826.785 45.8467 826.833 45.724C826.881 45.6013 826.905 45.48 826.905 45.36C826.905 45.2107 826.886 45.0733 826.849 44.948C826.811 44.8227 826.739 44.716 826.633 44.628C826.529 44.5373 826.383 44.4667 826.197 44.416C826.01 44.3653 825.767 44.34 825.469 44.34V43.772C825.714 43.7693 825.921 43.744 826.089 43.696C826.259 43.648 826.397 43.5813 826.501 43.496C826.605 43.4107 826.679 43.3093 826.725 43.192C826.773 43.0747 826.797 42.944 826.797 42.8C826.797 42.6427 826.773 42.5053 826.725 42.388C826.677 42.2707 826.609 42.1733 826.521 42.096C826.435 42.016 826.333 41.9573 826.213 41.92C826.095 41.88 825.967 41.86 825.829 41.86C825.69 41.86 825.562 41.88 825.445 41.92C825.327 41.96 825.223 42.016 825.133 42.088C825.042 42.16 824.966 42.2453 824.905 42.344C824.843 42.4427 824.799 42.5493 824.773 42.664C824.735 42.7653 824.687 42.8333 824.629 42.868C824.573 42.9027 824.491 42.9107 824.385 42.892L823.973 42.82ZM829.129 47.064C829.092 47.1653 829.033 47.24 828.953 47.288C828.873 47.3387 828.791 47.364 828.705 47.364H828.377L830.761 41.38C830.799 41.2893 830.852 41.22 830.921 41.172C830.993 41.1213 831.076 41.096 831.169 41.096H831.501L829.129 47.064ZM836.166 44.128C836.166 44.6293 836.111 45.064 836.002 45.432C835.895 45.8 835.747 46.1053 835.558 46.348C835.371 46.588 835.15 46.7667 834.894 46.884C834.64 47.0013 834.367 47.06 834.074 47.06C833.78 47.06 833.506 47.0013 833.25 46.884C832.996 46.7667 832.776 46.588 832.59 46.348C832.403 46.1053 832.256 45.8 832.15 45.432C832.043 45.064 831.99 44.6293 831.99 44.128C831.99 43.6267 832.043 43.192 832.15 42.824C832.256 42.4533 832.403 42.148 832.59 41.908C832.776 41.6653 832.996 41.4853 833.25 41.368C833.506 41.2507 833.78 41.192 834.074 41.192C834.367 41.192 834.64 41.2507 834.894 41.368C835.15 41.4853 835.371 41.6653 835.558 41.908C835.747 42.148 835.895 42.4533 836.002 42.824C836.111 43.192 836.166 43.6267 836.166 44.128ZM835.358 44.128C835.358 43.696 835.322 43.3347 835.25 43.044C835.18 42.7533 835.086 42.52 834.966 42.344C834.848 42.1653 834.712 42.0387 834.558 41.964C834.403 41.8893 834.242 41.852 834.074 41.852C833.906 41.852 833.744 41.8893 833.59 41.964C833.435 42.0387 833.298 42.1653 833.178 42.344C833.06 42.52 832.967 42.7533 832.898 43.044C832.828 43.3347 832.794 43.696 832.794 44.128C832.794 44.56 832.828 44.9213 832.898 45.212C832.967 45.5027 833.06 45.736 833.178 45.912C833.298 46.088 833.435 46.2133 833.59 46.288C833.744 46.3627 833.906 46.4 834.074 46.4C834.242 46.4 834.403 46.3627 834.558 46.288C834.712 46.2133 834.848 46.088 834.966 45.912C835.086 45.736 835.18 45.5027 835.25 45.212C835.322 44.9213 835.358 44.56 835.358 44.128Z" fill="#7D73A1"/>
<path d="M512 90C512 87.2386 514.239 85 517 85H553C555.761 85 558 87.2386 558 90V126C558 128.761 555.761 131 553 131H517C514.239 131 512 128.761 512 126V90Z" fill="white"/>
<path d="M522.396 93.204V95.444C522.105 95.652 521.796 95.808 521.468 95.912C521.14 96.0133 520.783 96.064 520.396 96.064C519.932 96.064 519.512 95.992 519.136 95.848C518.763 95.704 518.444 95.5027 518.18 95.244C517.916 94.9853 517.712 94.676 517.568 94.316C517.427 93.956 517.356 93.56 517.356 93.128C517.356 92.6933 517.424 92.296 517.56 91.936C517.699 91.5733 517.896 91.264 518.152 91.008C518.408 90.7493 518.717 90.5493 519.08 90.408C519.445 90.264 519.855 90.192 520.308 90.192C520.537 90.192 520.749 90.2093 520.944 90.244C521.141 90.2787 521.324 90.328 521.492 90.392C521.66 90.456 521.815 90.5333 521.956 90.624C522.1 90.712 522.233 90.812 522.356 90.924L522.112 91.308C522.075 91.3693 522.025 91.408 521.964 91.424C521.903 91.44 521.836 91.4253 521.764 91.38C521.695 91.34 521.617 91.2933 521.532 91.24C521.449 91.1867 521.349 91.1373 521.232 91.092C521.117 91.0467 520.983 91.008 520.828 90.976C520.673 90.944 520.491 90.928 520.28 90.928C519.965 90.928 519.681 90.98 519.428 91.084C519.175 91.1853 518.959 91.332 518.78 91.524C518.601 91.716 518.464 91.948 518.368 92.22C518.272 92.4893 518.224 92.792 518.224 93.128C518.224 93.48 518.275 93.796 518.376 94.076C518.477 94.3533 518.62 94.5893 518.804 94.784C518.991 94.976 519.216 95.1227 519.48 95.224C519.747 95.3253 520.044 95.376 520.372 95.376C520.5 95.376 520.619 95.3693 520.728 95.356C520.84 95.34 520.947 95.3187 521.048 95.292C521.149 95.2653 521.247 95.232 521.34 95.192C521.436 95.152 521.531 95.108 521.624 95.06V93.856H520.776C520.723 93.856 520.679 93.84 520.644 93.808C520.612 93.776 520.596 93.736 520.596 93.688V93.204H522.396ZM527.108 95.308L527.104 96H523.544V90.256H527.104V90.948H524.4V92.768H526.576V93.436H524.4V95.308H527.108ZM533.885 93.128C533.885 93.6293 533.83 94.064 533.721 94.432C533.614 94.8 533.466 95.1053 533.277 95.348C533.09 95.588 532.869 95.7667 532.613 95.884C532.359 96.0013 532.086 96.06 531.793 96.06C531.499 96.06 531.225 96.0013 530.969 95.884C530.715 95.7667 530.495 95.588 530.309 95.348C530.122 95.1053 529.975 94.8 529.869 94.432C529.762 94.064 529.709 93.6293 529.709 93.128C529.709 92.6267 529.762 92.192 529.869 91.824C529.975 91.4533 530.122 91.148 530.309 90.908C530.495 90.6653 530.715 90.4853 530.969 90.368C531.225 90.2507 531.499 90.192 531.793 90.192C532.086 90.192 532.359 90.2507 532.613 90.368C532.869 90.4853 533.09 90.6653 533.277 90.908C533.466 91.148 533.614 91.4533 533.721 91.824C533.83 92.192 533.885 92.6267 533.885 93.128ZM533.077 93.128C533.077 92.696 533.041 92.3347 532.969 92.044C532.899 91.7533 532.805 91.52 532.685 91.344C532.567 91.1653 532.431 91.0387 532.277 90.964C532.122 90.8893 531.961 90.852 531.793 90.852C531.625 90.852 531.463 90.8893 531.309 90.964C531.154 91.0387 531.017 91.1653 530.897 91.344C530.779 91.52 530.686 91.7533 530.617 92.044C530.547 92.3347 530.513 92.696 530.513 93.128C530.513 93.56 530.547 93.9213 530.617 94.212C530.686 94.5027 530.779 94.736 530.897 94.912C531.017 95.088 531.154 95.2133 531.309 95.288C531.463 95.3627 531.625 95.4 531.793 95.4C531.961 95.4 532.122 95.3627 532.277 95.288C532.431 95.2133 532.567 95.088 532.685 94.912C532.805 94.736 532.899 94.5027 532.969 94.212C533.041 93.9213 533.077 93.56 533.077 93.128ZM535.129 96.064C535.092 96.1653 535.033 96.24 534.953 96.288C534.873 96.3387 534.791 96.364 534.705 96.364H534.377L536.761 90.38C536.799 90.2893 536.852 90.22 536.921 90.172C536.993 90.1213 537.076 90.096 537.169 90.096H537.501L535.129 96.064ZM541.846 95.404V96H538.742V95.404H539.958V91.64C539.958 91.52 539.962 91.396 539.97 91.268L538.994 92.096C538.956 92.1253 538.919 92.144 538.882 92.152C538.844 92.16 538.808 92.1613 538.774 92.156C538.742 92.1507 538.712 92.14 538.686 92.124C538.662 92.1053 538.642 92.0867 538.626 92.068L538.382 91.728L540.102 90.244H540.738V95.404H541.846Z" fill="#7D73A1"/>
<path d="M708 90C708 87.2386 710.239 85 713 85H749C751.761 85 754 87.2386 754 90V126C754 128.761 751.761 131 749 131H713C710.239 131 708 128.761 708 126V90Z" fill="white"/>
<path d="M718.396 93.204V95.444C718.105 95.652 717.796 95.808 717.468 95.912C717.14 96.0133 716.783 96.064 716.396 96.064C715.932 96.064 715.512 95.992 715.136 95.848C714.763 95.704 714.444 95.5027 714.18 95.244C713.916 94.9853 713.712 94.676 713.568 94.316C713.427 93.956 713.356 93.56 713.356 93.128C713.356 92.6933 713.424 92.296 713.56 91.936C713.699 91.5733 713.896 91.264 714.152 91.008C714.408 90.7493 714.717 90.5493 715.08 90.408C715.445 90.264 715.855 90.192 716.308 90.192C716.537 90.192 716.749 90.2093 716.944 90.244C717.141 90.2787 717.324 90.328 717.492 90.392C717.66 90.456 717.815 90.5333 717.956 90.624C718.1 90.712 718.233 90.812 718.356 90.924L718.112 91.308C718.075 91.3693 718.025 91.408 717.964 91.424C717.903 91.44 717.836 91.4253 717.764 91.38C717.695 91.34 717.617 91.2933 717.532 91.24C717.449 91.1867 717.349 91.1373 717.232 91.092C717.117 91.0467 716.983 91.008 716.828 90.976C716.673 90.944 716.491 90.928 716.28 90.928C715.965 90.928 715.681 90.98 715.428 91.084C715.175 91.1853 714.959 91.332 714.78 91.524C714.601 91.716 714.464 91.948 714.368 92.22C714.272 92.4893 714.224 92.792 714.224 93.128C714.224 93.48 714.275 93.796 714.376 94.076C714.477 94.3533 714.62 94.5893 714.804 94.784C714.991 94.976 715.216 95.1227 715.48 95.224C715.747 95.3253 716.044 95.376 716.372 95.376C716.5 95.376 716.619 95.3693 716.728 95.356C716.84 95.34 716.947 95.3187 717.048 95.292C717.149 95.2653 717.247 95.232 717.34 95.192C717.436 95.152 717.531 95.108 717.624 95.06V93.856H716.776C716.723 93.856 716.679 93.84 716.644 93.808C716.612 93.776 716.596 93.736 716.596 93.688V93.204H718.396ZM723.108 95.308L723.104 96H719.544V90.256H723.104V90.948H720.4V92.768H722.576V93.436H720.4V95.308H723.108ZM729.421 95.26C729.506 95.26 729.573 95.2853 729.621 95.336C729.669 95.384 729.693 95.448 729.693 95.528V96H725.837V95.732C725.837 95.6787 725.847 95.6227 725.869 95.564C725.89 95.5027 725.926 95.448 725.977 95.4L727.793 93.58C727.945 93.428 728.082 93.2813 728.205 93.14C728.327 92.9987 728.431 92.8587 728.517 92.72C728.602 92.5787 728.667 92.4347 728.713 92.288C728.761 92.1413 728.785 91.9867 728.785 91.824C728.785 91.664 728.759 91.524 728.709 91.404C728.658 91.2813 728.589 91.18 728.501 91.1C728.413 91.02 728.309 90.96 728.189 90.92C728.069 90.88 727.939 90.86 727.801 90.86C727.662 90.86 727.534 90.88 727.417 90.92C727.302 90.96 727.199 91.016 727.109 91.088C727.018 91.16 726.942 91.2453 726.881 91.344C726.819 91.4427 726.775 91.5493 726.749 91.664C726.711 91.7653 726.663 91.8333 726.605 91.868C726.549 91.9027 726.466 91.9107 726.357 91.892L725.949 91.82C725.986 91.5533 726.059 91.3187 726.169 91.116C726.278 90.9133 726.415 90.744 726.581 90.608C726.746 90.4693 726.935 90.3653 727.149 90.296C727.365 90.2267 727.597 90.192 727.845 90.192C728.095 90.192 728.326 90.2293 728.537 90.304C728.75 90.376 728.934 90.4813 729.089 90.62C729.243 90.7587 729.365 90.928 729.453 91.128C729.541 91.3253 729.585 91.5493 729.585 91.8C729.585 92.0133 729.553 92.212 729.489 92.396C729.427 92.5773 729.342 92.7507 729.233 92.916C729.126 93.0813 729.001 93.2427 728.857 93.4C728.715 93.5547 728.565 93.712 728.405 93.872L726.949 95.36C727.061 95.3307 727.173 95.3067 727.285 95.288C727.399 95.2693 727.507 95.26 727.609 95.26H729.421ZM731.129 96.064C731.092 96.1653 731.033 96.24 730.953 96.288C730.873 96.3387 730.791 96.364 730.705 96.364H730.377L732.761 90.38C732.799 90.2893 732.852 90.22 732.921 90.172C732.993 90.1213 733.076 90.096 733.169 90.096H733.501L731.129 96.064ZM737.846 95.404V96H734.742V95.404H735.958V91.64C735.958 91.52 735.962 91.396 735.97 91.268L734.994 92.096C734.956 92.1253 734.919 92.144 734.882 92.152C734.844 92.16 734.808 92.1613 734.774 92.156C734.742 92.1507 734.712 92.14 734.686 92.124C734.662 92.1053 734.642 92.0867 734.626 92.068L734.382 91.728L736.102 90.244H736.738V95.404H737.846Z" fill="#7D73A1"/>
<path d="M610 90C610 87.2386 612.239 85 615 85H651C653.761 85 656 87.2386 656 90V126C656 128.761 653.761 131 651 131H615C612.239 131 610 128.761 610 126V90Z" fill="white"/>
<path d="M620.396 93.204V95.444C620.105 95.652 619.796 95.808 619.468 95.912C619.14 96.0133 618.783 96.064 618.396 96.064C617.932 96.064 617.512 95.992 617.136 95.848C616.763 95.704 616.444 95.5027 616.18 95.244C615.916 94.9853 615.712 94.676 615.568 94.316C615.427 93.956 615.356 93.56 615.356 93.128C615.356 92.6933 615.424 92.296 615.56 91.936C615.699 91.5733 615.896 91.264 616.152 91.008C616.408 90.7493 616.717 90.5493 617.08 90.408C617.445 90.264 617.855 90.192 618.308 90.192C618.537 90.192 618.749 90.2093 618.944 90.244C619.141 90.2787 619.324 90.328 619.492 90.392C619.66 90.456 619.815 90.5333 619.956 90.624C620.1 90.712 620.233 90.812 620.356 90.924L620.112 91.308C620.075 91.3693 620.025 91.408 619.964 91.424C619.903 91.44 619.836 91.4253 619.764 91.38C619.695 91.34 619.617 91.2933 619.532 91.24C619.449 91.1867 619.349 91.1373 619.232 91.092C619.117 91.0467 618.983 91.008 618.828 90.976C618.673 90.944 618.491 90.928 618.28 90.928C617.965 90.928 617.681 90.98 617.428 91.084C617.175 91.1853 616.959 91.332 616.78 91.524C616.601 91.716 616.464 91.948 616.368 92.22C616.272 92.4893 616.224 92.792 616.224 93.128C616.224 93.48 616.275 93.796 616.376 94.076C616.477 94.3533 616.62 94.5893 616.804 94.784C616.991 94.976 617.216 95.1227 617.48 95.224C617.747 95.3253 618.044 95.376 618.372 95.376C618.5 95.376 618.619 95.3693 618.728 95.356C618.84 95.34 618.947 95.3187 619.048 95.292C619.149 95.2653 619.247 95.232 619.34 95.192C619.436 95.152 619.531 95.108 619.624 95.06V93.856H618.776C618.723 93.856 618.679 93.84 618.644 93.808C618.612 93.776 618.596 93.736 618.596 93.688V93.204H620.396ZM625.108 95.308L625.104 96H621.544V90.256H625.104V90.948H622.4V92.768H624.576V93.436H622.4V95.308H625.108ZM631.565 95.404V96H628.461V95.404H629.677V91.64C629.677 91.52 629.681 91.396 629.689 91.268L628.713 92.096C628.675 92.1253 628.638 92.144 628.601 92.152C628.563 92.16 628.527 92.1613 628.493 92.156C628.461 92.1507 628.431 92.14 628.405 92.124C628.381 92.1053 628.361 92.0867 628.345 92.068L628.101 91.728L629.821 90.244H630.457V95.404H631.565ZM633.129 96.064C633.092 96.1653 633.033 96.24 632.953 96.288C632.873 96.3387 632.791 96.364 632.705 96.364H632.377L634.761 90.38C634.799 90.2893 634.852 90.22 634.921 90.172C634.993 90.1213 635.076 90.096 635.169 90.096H635.501L633.129 96.064ZM639.846 95.404V96H636.742V95.404H637.958V91.64C637.958 91.52 637.962 91.396 637.97 91.268L636.994 92.096C636.956 92.1253 636.919 92.144 636.882 92.152C636.844 92.16 636.808 92.1613 636.774 92.156C636.742 92.1507 636.712 92.14 636.686 92.124C636.662 92.1053 636.642 92.0867 636.626 92.068L636.382 91.728L638.102 90.244H638.738V95.404H639.846Z" fill="#7D73A1"/>
<path d="M806 90C806 87.2386 808.239 85 811 85H847C849.761 85 852 87.2386 852 90V126C852 128.761 849.761 131 847 131H811C808.239 131 806 128.761 806 126V90Z" fill="white"/>
<path d="M816.396 93.204V95.444C816.105 95.652 815.796 95.808 815.468 95.912C815.14 96.0133 814.783 96.064 814.396 96.064C813.932 96.064 813.512 95.992 813.136 95.848C812.763 95.704 812.444 95.5027 812.18 95.244C811.916 94.9853 811.712 94.676 811.568 94.316C811.427 93.956 811.356 93.56 811.356 93.128C811.356 92.6933 811.424 92.296 811.56 91.936C811.699 91.5733 811.896 91.264 812.152 91.008C812.408 90.7493 812.717 90.5493 813.08 90.408C813.445 90.264 813.855 90.192 814.308 90.192C814.537 90.192 814.749 90.2093 814.944 90.244C815.141 90.2787 815.324 90.328 815.492 90.392C815.66 90.456 815.815 90.5333 815.956 90.624C816.1 90.712 816.233 90.812 816.356 90.924L816.112 91.308C816.075 91.3693 816.025 91.408 815.964 91.424C815.903 91.44 815.836 91.4253 815.764 91.38C815.695 91.34 815.617 91.2933 815.532 91.24C815.449 91.1867 815.349 91.1373 815.232 91.092C815.117 91.0467 814.983 91.008 814.828 90.976C814.673 90.944 814.491 90.928 814.28 90.928C813.965 90.928 813.681 90.98 813.428 91.084C813.175 91.1853 812.959 91.332 812.78 91.524C812.601 91.716 812.464 91.948 812.368 92.22C812.272 92.4893 812.224 92.792 812.224 93.128C812.224 93.48 812.275 93.796 812.376 94.076C812.477 94.3533 812.62 94.5893 812.804 94.784C812.991 94.976 813.216 95.1227 813.48 95.224C813.747 95.3253 814.044 95.376 814.372 95.376C814.5 95.376 814.619 95.3693 814.728 95.356C814.84 95.34 814.947 95.3187 815.048 95.292C815.149 95.2653 815.247 95.232 815.34 95.192C815.436 95.152 815.531 95.108 815.624 95.06V93.856H814.776C814.723 93.856 814.679 93.84 814.644 93.808C814.612 93.776 814.596 93.736 814.596 93.688V93.204H816.396ZM821.108 95.308L821.104 96H817.544V90.256H821.104V90.948H818.4V92.768H820.576V93.436H818.4V95.308H821.108ZM823.973 91.82C824.013 91.5533 824.087 91.3187 824.197 91.116C824.306 90.9133 824.443 90.744 824.609 90.608C824.774 90.4693 824.963 90.3653 825.177 90.296C825.393 90.2267 825.625 90.192 825.873 90.192C826.121 90.192 826.349 90.228 826.557 90.3C826.765 90.3693 826.942 90.4693 827.089 90.6C827.238 90.728 827.354 90.8827 827.437 91.064C827.519 91.2453 827.561 91.4453 827.561 91.664C827.561 91.848 827.538 92.0107 827.493 92.152C827.447 92.2933 827.382 92.4173 827.297 92.524C827.214 92.6307 827.113 92.7213 826.993 92.796C826.873 92.868 826.738 92.928 826.589 92.976C826.954 93.0773 827.229 93.2427 827.413 93.472C827.597 93.6987 827.689 93.9867 827.689 94.336C827.689 94.6053 827.638 94.848 827.537 95.064C827.435 95.2773 827.297 95.4587 827.121 95.608C826.945 95.7547 826.739 95.868 826.505 95.948C826.273 96.0253 826.025 96.064 825.761 96.064C825.459 96.064 825.201 96.028 824.985 95.956C824.769 95.8813 824.585 95.7787 824.433 95.648C824.281 95.5147 824.154 95.356 824.053 95.172C823.954 94.9853 823.87 94.7813 823.801 94.56L824.141 94.416C824.229 94.3787 824.314 94.368 824.397 94.384C824.479 94.4 824.539 94.4467 824.577 94.524C824.617 94.604 824.662 94.6947 824.713 94.796C824.766 94.8947 824.837 94.9893 824.925 95.08C825.013 95.168 825.122 95.2427 825.253 95.304C825.386 95.3653 825.553 95.396 825.753 95.396C825.945 95.396 826.113 95.3653 826.257 95.304C826.401 95.24 826.521 95.1587 826.617 95.06C826.713 94.9587 826.785 94.8467 826.833 94.724C826.881 94.6013 826.905 94.48 826.905 94.36C826.905 94.2107 826.886 94.0733 826.849 93.948C826.811 93.8227 826.739 93.716 826.633 93.628C826.529 93.5373 826.383 93.4667 826.197 93.416C826.01 93.3653 825.767 93.34 825.469 93.34V92.772C825.714 92.7693 825.921 92.744 826.089 92.696C826.259 92.648 826.397 92.5813 826.501 92.496C826.605 92.4107 826.679 92.3093 826.725 92.192C826.773 92.0747 826.797 91.944 826.797 91.8C826.797 91.6427 826.773 91.5053 826.725 91.388C826.677 91.2707 826.609 91.1733 826.521 91.096C826.435 91.016 826.333 90.9573 826.213 90.92C826.095 90.88 825.967 90.86 825.829 90.86C825.69 90.86 825.562 90.88 825.445 90.92C825.327 90.96 825.223 91.016 825.133 91.088C825.042 91.16 824.966 91.2453 824.905 91.344C824.843 91.4427 824.799 91.5493 824.773 91.664C824.735 91.7653 824.687 91.8333 824.629 91.868C824.573 91.9027 824.491 91.9107 824.385 91.892L823.973 91.82ZM829.129 96.064C829.092 96.1653 829.033 96.24 828.953 96.288C828.873 96.3387 828.791 96.364 828.705 96.364H828.377L830.761 90.38C830.799 90.2893 830.852 90.22 830.921 90.172C830.993 90.1213 831.076 90.096 831.169 90.096H831.501L829.129 96.064ZM835.846 95.404V96H832.742V95.404H833.958V91.64C833.958 91.52 833.962 91.396 833.97 91.268L832.994 92.096C832.956 92.1253 832.919 92.144 832.882 92.152C832.844 92.16 832.808 92.1613 832.774 92.156C832.742 92.1507 832.712 92.14 832.686 92.124C832.662 92.1053 832.642 92.0867 832.626 92.068L832.382 91.728L834.102 90.244H834.738V95.404H835.846Z" fill="#7D73A1"/>
<path d="M561 41C561 38.2386 563.239 36 566 36H602C604.761 36 607 38.2386 607 41V77C607 79.7614 604.761 82 602 82H566C563.239 82 561 79.7614 561 77V41Z" fill="white"/>
<path d="M571.396 44.204V46.444C571.105 46.652 570.796 46.808 570.468 46.912C570.14 47.0133 569.783 47.064 569.396 47.064C568.932 47.064 568.512 46.992 568.136 46.848C567.763 46.704 567.444 46.5027 567.18 46.244C566.916 45.9853 566.712 45.676 566.568 45.316C566.427 44.956 566.356 44.56 566.356 44.128C566.356 43.6933 566.424 43.296 566.56 42.936C566.699 42.5733 566.896 42.264 567.152 42.008C567.408 41.7493 567.717 41.5493 568.08 41.408C568.445 41.264 568.855 41.192 569.308 41.192C569.537 41.192 569.749 41.2093 569.944 41.244C570.141 41.2787 570.324 41.328 570.492 41.392C570.66 41.456 570.815 41.5333 570.956 41.624C571.1 41.712 571.233 41.812 571.356 41.924L571.112 42.308C571.075 42.3693 571.025 42.408 570.964 42.424C570.903 42.44 570.836 42.4253 570.764 42.38C570.695 42.34 570.617 42.2933 570.532 42.24C570.449 42.1867 570.349 42.1373 570.232 42.092C570.117 42.0467 569.983 42.008 569.828 41.976C569.673 41.944 569.491 41.928 569.28 41.928C568.965 41.928 568.681 41.98 568.428 42.084C568.175 42.1853 567.959 42.332 567.78 42.524C567.601 42.716 567.464 42.948 567.368 43.22C567.272 43.4893 567.224 43.792 567.224 44.128C567.224 44.48 567.275 44.796 567.376 45.076C567.477 45.3533 567.62 45.5893 567.804 45.784C567.991 45.976 568.216 46.1227 568.48 46.224C568.747 46.3253 569.044 46.376 569.372 46.376C569.5 46.376 569.619 46.3693 569.728 46.356C569.84 46.34 569.947 46.3187 570.048 46.292C570.149 46.2653 570.247 46.232 570.34 46.192C570.436 46.152 570.531 46.108 570.624 46.06V44.856H569.776C569.723 44.856 569.679 44.84 569.644 44.808C569.612 44.776 569.596 44.736 569.596 44.688V44.204H571.396ZM576.108 46.308L576.104 47H572.544V41.256H576.104V41.948H573.4V43.768H575.576V44.436H573.4V46.308H576.108ZM582.885 44.128C582.885 44.6293 582.83 45.064 582.721 45.432C582.614 45.8 582.466 46.1053 582.277 46.348C582.09 46.588 581.869 46.7667 581.613 46.884C581.359 47.0013 581.086 47.06 580.793 47.06C580.499 47.06 580.225 47.0013 579.969 46.884C579.715 46.7667 579.495 46.588 579.309 46.348C579.122 46.1053 578.975 45.8 578.869 45.432C578.762 45.064 578.709 44.6293 578.709 44.128C578.709 43.6267 578.762 43.192 578.869 42.824C578.975 42.4533 579.122 42.148 579.309 41.908C579.495 41.6653 579.715 41.4853 579.969 41.368C580.225 41.2507 580.499 41.192 580.793 41.192C581.086 41.192 581.359 41.2507 581.613 41.368C581.869 41.4853 582.09 41.6653 582.277 41.908C582.466 42.148 582.614 42.4533 582.721 42.824C582.83 43.192 582.885 43.6267 582.885 44.128ZM582.077 44.128C582.077 43.696 582.041 43.3347 581.969 43.044C581.899 42.7533 581.805 42.52 581.685 42.344C581.567 42.1653 581.431 42.0387 581.277 41.964C581.122 41.8893 580.961 41.852 580.793 41.852C580.625 41.852 580.463 41.8893 580.309 41.964C580.154 42.0387 580.017 42.1653 579.897 42.344C579.779 42.52 579.686 42.7533 579.617 43.044C579.547 43.3347 579.513 43.696 579.513 44.128C579.513 44.56 579.547 44.9213 579.617 45.212C579.686 45.5027 579.779 45.736 579.897 45.912C580.017 46.088 580.154 46.2133 580.309 46.288C580.463 46.3627 580.625 46.4 580.793 46.4C580.961 46.4 581.122 46.3627 581.277 46.288C581.431 46.2133 581.567 46.088 581.685 45.912C581.805 45.736 581.899 45.5027 581.969 45.212C582.041 44.9213 582.077 44.56 582.077 44.128ZM584.129 47.064C584.092 47.1653 584.033 47.24 583.953 47.288C583.873 47.3387 583.791 47.364 583.705 47.364H583.377L585.761 41.38C585.799 41.2893 585.852 41.22 585.921 41.172C585.993 41.1213 586.076 41.096 586.169 41.096H586.501L584.129 47.064ZM590.702 46.26C590.787 46.26 590.854 46.2853 590.902 46.336C590.95 46.384 590.974 46.448 590.974 46.528V47H587.118V46.732C587.118 46.6787 587.128 46.6227 587.15 46.564C587.171 46.5027 587.207 46.448 587.258 46.4L589.074 44.58C589.226 44.428 589.363 44.2813 589.486 44.14C589.608 43.9987 589.712 43.8587 589.798 43.72C589.883 43.5787 589.948 43.4347 589.994 43.288C590.042 43.1413 590.066 42.9867 590.066 42.824C590.066 42.664 590.04 42.524 589.99 42.404C589.939 42.2813 589.87 42.18 589.782 42.1C589.694 42.02 589.59 41.96 589.47 41.92C589.35 41.88 589.22 41.86 589.082 41.86C588.943 41.86 588.815 41.88 588.698 41.92C588.583 41.96 588.48 42.016 588.39 42.088C588.299 42.16 588.223 42.2453 588.162 42.344C588.1 42.4427 588.056 42.5493 588.03 42.664C587.992 42.7653 587.944 42.8333 587.886 42.868C587.83 42.9027 587.747 42.9107 587.638 42.892L587.23 42.82C587.267 42.5533 587.34 42.3187 587.45 42.116C587.559 41.9133 587.696 41.744 587.862 41.608C588.027 41.4693 588.216 41.3653 588.43 41.296C588.646 41.2267 588.878 41.192 589.126 41.192C589.376 41.192 589.607 41.2293 589.818 41.304C590.031 41.376 590.215 41.4813 590.37 41.62C590.524 41.7587 590.646 41.928 590.734 42.128C590.822 42.3253 590.866 42.5493 590.866 42.8C590.866 43.0133 590.834 43.212 590.77 43.396C590.708 43.5773 590.623 43.7507 590.514 43.916C590.407 44.0813 590.282 44.2427 590.138 44.4C589.996 44.5547 589.846 44.712 589.686 44.872L588.23 46.36C588.342 46.3307 588.454 46.3067 588.566 46.288C588.68 46.2693 588.788 46.26 588.89 46.26H590.702Z" fill="#7D73A1"/>
<path d="M757 41C757 38.2386 759.239 36 762 36H798C800.761 36 803 38.2386 803 41V77C803 79.7614 800.761 82 798 82H762C759.239 82 757 79.7614 757 77V41Z" fill="white"/>
<path d="M767.396 44.204V46.444C767.105 46.652 766.796 46.808 766.468 46.912C766.14 47.0133 765.783 47.064 765.396 47.064C764.932 47.064 764.512 46.992 764.136 46.848C763.763 46.704 763.444 46.5027 763.18 46.244C762.916 45.9853 762.712 45.676 762.568 45.316C762.427 44.956 762.356 44.56 762.356 44.128C762.356 43.6933 762.424 43.296 762.56 42.936C762.699 42.5733 762.896 42.264 763.152 42.008C763.408 41.7493 763.717 41.5493 764.08 41.408C764.445 41.264 764.855 41.192 765.308 41.192C765.537 41.192 765.749 41.2093 765.944 41.244C766.141 41.2787 766.324 41.328 766.492 41.392C766.66 41.456 766.815 41.5333 766.956 41.624C767.1 41.712 767.233 41.812 767.356 41.924L767.112 42.308C767.075 42.3693 767.025 42.408 766.964 42.424C766.903 42.44 766.836 42.4253 766.764 42.38C766.695 42.34 766.617 42.2933 766.532 42.24C766.449 42.1867 766.349 42.1373 766.232 42.092C766.117 42.0467 765.983 42.008 765.828 41.976C765.673 41.944 765.491 41.928 765.28 41.928C764.965 41.928 764.681 41.98 764.428 42.084C764.175 42.1853 763.959 42.332 763.78 42.524C763.601 42.716 763.464 42.948 763.368 43.22C763.272 43.4893 763.224 43.792 763.224 44.128C763.224 44.48 763.275 44.796 763.376 45.076C763.477 45.3533 763.62 45.5893 763.804 45.784C763.991 45.976 764.216 46.1227 764.48 46.224C764.747 46.3253 765.044 46.376 765.372 46.376C765.5 46.376 765.619 46.3693 765.728 46.356C765.84 46.34 765.947 46.3187 766.048 46.292C766.149 46.2653 766.247 46.232 766.34 46.192C766.436 46.152 766.531 46.108 766.624 46.06V44.856H765.776C765.723 44.856 765.679 44.84 765.644 44.808C765.612 44.776 765.596 44.736 765.596 44.688V44.204H767.396ZM772.108 46.308L772.104 47H768.544V41.256H772.104V41.948H769.4V43.768H771.576V44.436H769.4V46.308H772.108ZM778.421 46.26C778.506 46.26 778.573 46.2853 778.621 46.336C778.669 46.384 778.693 46.448 778.693 46.528V47H774.837V46.732C774.837 46.6787 774.847 46.6227 774.869 46.564C774.89 46.5027 774.926 46.448 774.977 46.4L776.793 44.58C776.945 44.428 777.082 44.2813 777.205 44.14C777.327 43.9987 777.431 43.8587 777.517 43.72C777.602 43.5787 777.667 43.4347 777.713 43.288C777.761 43.1413 777.785 42.9867 777.785 42.824C777.785 42.664 777.759 42.524 777.709 42.404C777.658 42.2813 777.589 42.18 777.501 42.1C777.413 42.02 777.309 41.96 777.189 41.92C777.069 41.88 776.939 41.86 776.801 41.86C776.662 41.86 776.534 41.88 776.417 41.92C776.302 41.96 776.199 42.016 776.109 42.088C776.018 42.16 775.942 42.2453 775.881 42.344C775.819 42.4427 775.775 42.5493 775.749 42.664C775.711 42.7653 775.663 42.8333 775.605 42.868C775.549 42.9027 775.466 42.9107 775.357 42.892L774.949 42.82C774.986 42.5533 775.059 42.3187 775.169 42.116C775.278 41.9133 775.415 41.744 775.581 41.608C775.746 41.4693 775.935 41.3653 776.149 41.296C776.365 41.2267 776.597 41.192 776.845 41.192C777.095 41.192 777.326 41.2293 777.537 41.304C777.75 41.376 777.934 41.4813 778.089 41.62C778.243 41.7587 778.365 41.928 778.453 42.128C778.541 42.3253 778.585 42.5493 778.585 42.8C778.585 43.0133 778.553 43.212 778.489 43.396C778.427 43.5773 778.342 43.7507 778.233 43.916C778.126 44.0813 778.001 44.2427 777.857 44.4C777.715 44.5547 777.565 44.712 777.405 44.872L775.949 46.36C776.061 46.3307 776.173 46.3067 776.285 46.288C776.399 46.2693 776.507 46.26 776.609 46.26H778.421ZM780.129 47.064C780.092 47.1653 780.033 47.24 779.953 47.288C779.873 47.3387 779.791 47.364 779.705 47.364H779.377L781.761 41.38C781.799 41.2893 781.852 41.22 781.921 41.172C781.993 41.1213 782.076 41.096 782.169 41.096H782.501L780.129 47.064ZM786.702 46.26C786.787 46.26 786.854 46.2853 786.902 46.336C786.95 46.384 786.974 46.448 786.974 46.528V47H783.118V46.732C783.118 46.6787 783.128 46.6227 783.15 46.564C783.171 46.5027 783.207 46.448 783.258 46.4L785.074 44.58C785.226 44.428 785.363 44.2813 785.486 44.14C785.608 43.9987 785.712 43.8587 785.798 43.72C785.883 43.5787 785.948 43.4347 785.994 43.288C786.042 43.1413 786.066 42.9867 786.066 42.824C786.066 42.664 786.04 42.524 785.99 42.404C785.939 42.2813 785.87 42.18 785.782 42.1C785.694 42.02 785.59 41.96 785.47 41.92C785.35 41.88 785.22 41.86 785.082 41.86C784.943 41.86 784.815 41.88 784.698 41.92C784.583 41.96 784.48 42.016 784.39 42.088C784.299 42.16 784.223 42.2453 784.162 42.344C784.1 42.4427 784.056 42.5493 784.03 42.664C783.992 42.7653 783.944 42.8333 783.886 42.868C783.83 42.9027 783.747 42.9107 783.638 42.892L783.23 42.82C783.267 42.5533 783.34 42.3187 783.45 42.116C783.559 41.9133 783.696 41.744 783.862 41.608C784.027 41.4693 784.216 41.3653 784.43 41.296C784.646 41.2267 784.878 41.192 785.126 41.192C785.376 41.192 785.607 41.2293 785.818 41.304C786.031 41.376 786.215 41.4813 786.37 41.62C786.524 41.7587 786.646 41.928 786.734 42.128C786.822 42.3253 786.866 42.5493 786.866 42.8C786.866 43.0133 786.834 43.212 786.77 43.396C786.708 43.5773 786.623 43.7507 786.514 43.916C786.407 44.0813 786.282 44.2427 786.138 44.4C785.996 44.5547 785.846 44.712 785.686 44.872L784.23 46.36C784.342 46.3307 784.454 46.3067 784.566 46.288C784.68 46.2693 784.788 46.26 784.89 46.26H786.702Z" fill="#7D73A1"/>
<path d="M659 41C659 38.2386 661.239 36 664 36H700C702.761 36 705 38.2386 705 41V77C705 79.7614 702.761 82 700 82H664C661.239 82 659 79.7614 659 77V41Z" fill="white"/>
<path d="M669.396 44.204V46.444C669.105 46.652 668.796 46.808 668.468 46.912C668.14 47.0133 667.783 47.064 667.396 47.064C666.932 47.064 666.512 46.992 666.136 46.848C665.763 46.704 665.444 46.5027 665.18 46.244C664.916 45.9853 664.712 45.676 664.568 45.316C664.427 44.956 664.356 44.56 664.356 44.128C664.356 43.6933 664.424 43.296 664.56 42.936C664.699 42.5733 664.896 42.264 665.152 42.008C665.408 41.7493 665.717 41.5493 666.08 41.408C666.445 41.264 666.855 41.192 667.308 41.192C667.537 41.192 667.749 41.2093 667.944 41.244C668.141 41.2787 668.324 41.328 668.492 41.392C668.66 41.456 668.815 41.5333 668.956 41.624C669.1 41.712 669.233 41.812 669.356 41.924L669.112 42.308C669.075 42.3693 669.025 42.408 668.964 42.424C668.903 42.44 668.836 42.4253 668.764 42.38C668.695 42.34 668.617 42.2933 668.532 42.24C668.449 42.1867 668.349 42.1373 668.232 42.092C668.117 42.0467 667.983 42.008 667.828 41.976C667.673 41.944 667.491 41.928 667.28 41.928C666.965 41.928 666.681 41.98 666.428 42.084C666.175 42.1853 665.959 42.332 665.78 42.524C665.601 42.716 665.464 42.948 665.368 43.22C665.272 43.4893 665.224 43.792 665.224 44.128C665.224 44.48 665.275 44.796 665.376 45.076C665.477 45.3533 665.62 45.5893 665.804 45.784C665.991 45.976 666.216 46.1227 666.48 46.224C666.747 46.3253 667.044 46.376 667.372 46.376C667.5 46.376 667.619 46.3693 667.728 46.356C667.84 46.34 667.947 46.3187 668.048 46.292C668.149 46.2653 668.247 46.232 668.34 46.192C668.436 46.152 668.531 46.108 668.624 46.06V44.856H667.776C667.723 44.856 667.679 44.84 667.644 44.808C667.612 44.776 667.596 44.736 667.596 44.688V44.204H669.396ZM674.108 46.308L674.104 47H670.544V41.256H674.104V41.948H671.4V43.768H673.576V44.436H671.4V46.308H674.108ZM680.565 46.404V47H677.461V46.404H678.677V42.64C678.677 42.52 678.681 42.396 678.689 42.268L677.713 43.096C677.675 43.1253 677.638 43.144 677.601 43.152C677.563 43.16 677.527 43.1613 677.493 43.156C677.461 43.1507 677.431 43.14 677.405 43.124C677.381 43.1053 677.361 43.0867 677.345 43.068L677.101 42.728L678.821 41.244H679.457V46.404H680.565ZM682.129 47.064C682.092 47.1653 682.033 47.24 681.953 47.288C681.873 47.3387 681.791 47.364 681.705 47.364H681.377L683.761 41.38C683.799 41.2893 683.852 41.22 683.921 41.172C683.993 41.1213 684.076 41.096 684.169 41.096H684.501L682.129 47.064ZM688.702 46.26C688.787 46.26 688.854 46.2853 688.902 46.336C688.95 46.384 688.974 46.448 688.974 46.528V47H685.118V46.732C685.118 46.6787 685.128 46.6227 685.15 46.564C685.171 46.5027 685.207 46.448 685.258 46.4L687.074 44.58C687.226 44.428 687.363 44.2813 687.486 44.14C687.608 43.9987 687.712 43.8587 687.798 43.72C687.883 43.5787 687.948 43.4347 687.994 43.288C688.042 43.1413 688.066 42.9867 688.066 42.824C688.066 42.664 688.04 42.524 687.99 42.404C687.939 42.2813 687.87 42.18 687.782 42.1C687.694 42.02 687.59 41.96 687.47 41.92C687.35 41.88 687.22 41.86 687.082 41.86C686.943 41.86 686.815 41.88 686.698 41.92C686.583 41.96 686.48 42.016 686.39 42.088C686.299 42.16 686.223 42.2453 686.162 42.344C686.1 42.4427 686.056 42.5493 686.03 42.664C685.992 42.7653 685.944 42.8333 685.886 42.868C685.83 42.9027 685.747 42.9107 685.638 42.892L685.23 42.82C685.267 42.5533 685.34 42.3187 685.45 42.116C685.559 41.9133 685.696 41.744 685.862 41.608C686.027 41.4693 686.216 41.3653 686.43 41.296C686.646 41.2267 686.878 41.192 687.126 41.192C687.376 41.192 687.607 41.2293 687.818 41.304C688.031 41.376 688.215 41.4813 688.37 41.62C688.524 41.7587 688.646 41.928 688.734 42.128C688.822 42.3253 688.866 42.5493 688.866 42.8C688.866 43.0133 688.834 43.212 688.77 43.396C688.708 43.5773 688.623 43.7507 688.514 43.916C688.407 44.0813 688.282 44.2427 688.138 44.4C687.996 44.5547 687.846 44.712 687.686 44.872L686.23 46.36C686.342 46.3307 686.454 46.3067 686.566 46.288C686.68 46.2693 686.788 46.26 686.89 46.26H688.702Z" fill="#7D73A1"/>
<path d="M855 41C855 38.2386 857.239 36 860 36H896C898.761 36 901 38.2386 901 41V77C901 79.7614 898.761 82 896 82H860C857.239 82 855 79.7614 855 77V41Z" fill="white"/>
<path d="M865.396 44.204V46.444C865.105 46.652 864.796 46.808 864.468 46.912C864.14 47.0133 863.783 47.064 863.396 47.064C862.932 47.064 862.512 46.992 862.136 46.848C861.763 46.704 861.444 46.5027 861.18 46.244C860.916 45.9853 860.712 45.676 860.568 45.316C860.427 44.956 860.356 44.56 860.356 44.128C860.356 43.6933 860.424 43.296 860.56 42.936C860.699 42.5733 860.896 42.264 861.152 42.008C861.408 41.7493 861.717 41.5493 862.08 41.408C862.445 41.264 862.855 41.192 863.308 41.192C863.537 41.192 863.749 41.2093 863.944 41.244C864.141 41.2787 864.324 41.328 864.492 41.392C864.66 41.456 864.815 41.5333 864.956 41.624C865.1 41.712 865.233 41.812 865.356 41.924L865.112 42.308C865.075 42.3693 865.025 42.408 864.964 42.424C864.903 42.44 864.836 42.4253 864.764 42.38C864.695 42.34 864.617 42.2933 864.532 42.24C864.449 42.1867 864.349 42.1373 864.232 42.092C864.117 42.0467 863.983 42.008 863.828 41.976C863.673 41.944 863.491 41.928 863.28 41.928C862.965 41.928 862.681 41.98 862.428 42.084C862.175 42.1853 861.959 42.332 861.78 42.524C861.601 42.716 861.464 42.948 861.368 43.22C861.272 43.4893 861.224 43.792 861.224 44.128C861.224 44.48 861.275 44.796 861.376 45.076C861.477 45.3533 861.62 45.5893 861.804 45.784C861.991 45.976 862.216 46.1227 862.48 46.224C862.747 46.3253 863.044 46.376 863.372 46.376C863.5 46.376 863.619 46.3693 863.728 46.356C863.84 46.34 863.947 46.3187 864.048 46.292C864.149 46.2653 864.247 46.232 864.34 46.192C864.436 46.152 864.531 46.108 864.624 46.06V44.856H863.776C863.723 44.856 863.679 44.84 863.644 44.808C863.612 44.776 863.596 44.736 863.596 44.688V44.204H865.396ZM870.108 46.308L870.104 47H866.544V41.256H870.104V41.948H867.4V43.768H869.576V44.436H867.4V46.308H870.108ZM872.973 42.82C873.013 42.5533 873.087 42.3187 873.197 42.116C873.306 41.9133 873.443 41.744 873.609 41.608C873.774 41.4693 873.963 41.3653 874.177 41.296C874.393 41.2267 874.625 41.192 874.873 41.192C875.121 41.192 875.349 41.228 875.557 41.3C875.765 41.3693 875.942 41.4693 876.089 41.6C876.238 41.728 876.354 41.8827 876.437 42.064C876.519 42.2453 876.561 42.4453 876.561 42.664C876.561 42.848 876.538 43.0107 876.493 43.152C876.447 43.2933 876.382 43.4173 876.297 43.524C876.214 43.6307 876.113 43.7213 875.993 43.796C875.873 43.868 875.738 43.928 875.589 43.976C875.954 44.0773 876.229 44.2427 876.413 44.472C876.597 44.6987 876.689 44.9867 876.689 45.336C876.689 45.6053 876.638 45.848 876.537 46.064C876.435 46.2773 876.297 46.4587 876.121 46.608C875.945 46.7547 875.739 46.868 875.505 46.948C875.273 47.0253 875.025 47.064 874.761 47.064C874.459 47.064 874.201 47.028 873.985 46.956C873.769 46.8813 873.585 46.7787 873.433 46.648C873.281 46.5147 873.154 46.356 873.053 46.172C872.954 45.9853 872.87 45.7813 872.801 45.56L873.141 45.416C873.229 45.3787 873.314 45.368 873.397 45.384C873.479 45.4 873.539 45.4467 873.577 45.524C873.617 45.604 873.662 45.6947 873.713 45.796C873.766 45.8947 873.837 45.9893 873.925 46.08C874.013 46.168 874.122 46.2427 874.253 46.304C874.386 46.3653 874.553 46.396 874.753 46.396C874.945 46.396 875.113 46.3653 875.257 46.304C875.401 46.24 875.521 46.1587 875.617 46.06C875.713 45.9587 875.785 45.8467 875.833 45.724C875.881 45.6013 875.905 45.48 875.905 45.36C875.905 45.2107 875.886 45.0733 875.849 44.948C875.811 44.8227 875.739 44.716 875.633 44.628C875.529 44.5373 875.383 44.4667 875.197 44.416C875.01 44.3653 874.767 44.34 874.469 44.34V43.772C874.714 43.7693 874.921 43.744 875.089 43.696C875.259 43.648 875.397 43.5813 875.501 43.496C875.605 43.4107 875.679 43.3093 875.725 43.192C875.773 43.0747 875.797 42.944 875.797 42.8C875.797 42.6427 875.773 42.5053 875.725 42.388C875.677 42.2707 875.609 42.1733 875.521 42.096C875.435 42.016 875.333 41.9573 875.213 41.92C875.095 41.88 874.967 41.86 874.829 41.86C874.69 41.86 874.562 41.88 874.445 41.92C874.327 41.96 874.223 42.016 874.133 42.088C874.042 42.16 873.966 42.2453 873.905 42.344C873.843 42.4427 873.799 42.5493 873.773 42.664C873.735 42.7653 873.687 42.8333 873.629 42.868C873.573 42.9027 873.491 42.9107 873.385 42.892L872.973 42.82ZM878.129 47.064C878.092 47.1653 878.033 47.24 877.953 47.288C877.873 47.3387 877.791 47.364 877.705 47.364H877.377L879.761 41.38C879.799 41.2893 879.852 41.22 879.921 41.172C879.993 41.1213 880.076 41.096 880.169 41.096H880.501L878.129 47.064ZM884.702 46.26C884.787 46.26 884.854 46.2853 884.902 46.336C884.95 46.384 884.974 46.448 884.974 46.528V47H881.118V46.732C881.118 46.6787 881.128 46.6227 881.15 46.564C881.171 46.5027 881.207 46.448 881.258 46.4L883.074 44.58C883.226 44.428 883.363 44.2813 883.486 44.14C883.608 43.9987 883.712 43.8587 883.798 43.72C883.883 43.5787 883.948 43.4347 883.994 43.288C884.042 43.1413 884.066 42.9867 884.066 42.824C884.066 42.664 884.04 42.524 883.99 42.404C883.939 42.2813 883.87 42.18 883.782 42.1C883.694 42.02 883.59 41.96 883.47 41.92C883.35 41.88 883.22 41.86 883.082 41.86C882.943 41.86 882.815 41.88 882.698 41.92C882.583 41.96 882.48 42.016 882.39 42.088C882.299 42.16 882.223 42.2453 882.162 42.344C882.1 42.4427 882.056 42.5493 882.03 42.664C881.992 42.7653 881.944 42.8333 881.886 42.868C881.83 42.9027 881.747 42.9107 881.638 42.892L881.23 42.82C881.267 42.5533 881.34 42.3187 881.45 42.116C881.559 41.9133 881.696 41.744 881.862 41.608C882.027 41.4693 882.216 41.3653 882.43 41.296C882.646 41.2267 882.878 41.192 883.126 41.192C883.376 41.192 883.607 41.2293 883.818 41.304C884.031 41.376 884.215 41.4813 884.37 41.62C884.524 41.7587 884.646 41.928 884.734 42.128C884.822 42.3253 884.866 42.5493 884.866 42.8C884.866 43.0133 884.834 43.212 884.77 43.396C884.708 43.5773 884.623 43.7507 884.514 43.916C884.407 44.0813 884.282 44.2427 884.138 44.4C883.996 44.5547 883.846 44.712 883.686 44.872L882.23 46.36C882.342 46.3307 882.454 46.3067 882.566 46.288C882.68 46.2693 882.788 46.26 882.89 46.26H884.702Z" fill="#7D73A1"/>
<path d="M561 90C561 87.2386 563.239 85 566 85H602C604.761 85 607 87.2386 607 90V126C607 128.761 604.761 131 602 131H566C563.239 131 561 128.761 561 126V90Z" fill="white"/>
<path d="M571.396 93.204V95.444C571.105 95.652 570.796 95.808 570.468 95.912C570.14 96.0133 569.783 96.064 569.396 96.064C568.932 96.064 568.512 95.992 568.136 95.848C567.763 95.704 567.444 95.5027 567.18 95.244C566.916 94.9853 566.712 94.676 566.568 94.316C566.427 93.956 566.356 93.56 566.356 93.128C566.356 92.6933 566.424 92.296 566.56 91.936C566.699 91.5733 566.896 91.264 567.152 91.008C567.408 90.7493 567.717 90.5493 568.08 90.408C568.445 90.264 568.855 90.192 569.308 90.192C569.537 90.192 569.749 90.2093 569.944 90.244C570.141 90.2787 570.324 90.328 570.492 90.392C570.66 90.456 570.815 90.5333 570.956 90.624C571.1 90.712 571.233 90.812 571.356 90.924L571.112 91.308C571.075 91.3693 571.025 91.408 570.964 91.424C570.903 91.44 570.836 91.4253 570.764 91.38C570.695 91.34 570.617 91.2933 570.532 91.24C570.449 91.1867 570.349 91.1373 570.232 91.092C570.117 91.0467 569.983 91.008 569.828 90.976C569.673 90.944 569.491 90.928 569.28 90.928C568.965 90.928 568.681 90.98 568.428 91.084C568.175 91.1853 567.959 91.332 567.78 91.524C567.601 91.716 567.464 91.948 567.368 92.22C567.272 92.4893 567.224 92.792 567.224 93.128C567.224 93.48 567.275 93.796 567.376 94.076C567.477 94.3533 567.62 94.5893 567.804 94.784C567.991 94.976 568.216 95.1227 568.48 95.224C568.747 95.3253 569.044 95.376 569.372 95.376C569.5 95.376 569.619 95.3693 569.728 95.356C569.84 95.34 569.947 95.3187 570.048 95.292C570.149 95.2653 570.247 95.232 570.34 95.192C570.436 95.152 570.531 95.108 570.624 95.06V93.856H569.776C569.723 93.856 569.679 93.84 569.644 93.808C569.612 93.776 569.596 93.736 569.596 93.688V93.204H571.396ZM576.108 95.308L576.104 96H572.544V90.256H576.104V90.948H573.4V92.768H575.576V93.436H573.4V95.308H576.108ZM582.885 93.128C582.885 93.6293 582.83 94.064 582.721 94.432C582.614 94.8 582.466 95.1053 582.277 95.348C582.09 95.588 581.869 95.7667 581.613 95.884C581.359 96.0013 581.086 96.06 580.793 96.06C580.499 96.06 580.225 96.0013 579.969 95.884C579.715 95.7667 579.495 95.588 579.309 95.348C579.122 95.1053 578.975 94.8 578.869 94.432C578.762 94.064 578.709 93.6293 578.709 93.128C578.709 92.6267 578.762 92.192 578.869 91.824C578.975 91.4533 579.122 91.148 579.309 90.908C579.495 90.6653 579.715 90.4853 579.969 90.368C580.225 90.2507 580.499 90.192 580.793 90.192C581.086 90.192 581.359 90.2507 581.613 90.368C581.869 90.4853 582.09 90.6653 582.277 90.908C582.466 91.148 582.614 91.4533 582.721 91.824C582.83 92.192 582.885 92.6267 582.885 93.128ZM582.077 93.128C582.077 92.696 582.041 92.3347 581.969 92.044C581.899 91.7533 581.805 91.52 581.685 91.344C581.567 91.1653 581.431 91.0387 581.277 90.964C581.122 90.8893 580.961 90.852 580.793 90.852C580.625 90.852 580.463 90.8893 580.309 90.964C580.154 91.0387 580.017 91.1653 579.897 91.344C579.779 91.52 579.686 91.7533 579.617 92.044C579.547 92.3347 579.513 92.696 579.513 93.128C579.513 93.56 579.547 93.9213 579.617 94.212C579.686 94.5027 579.779 94.736 579.897 94.912C580.017 95.088 580.154 95.2133 580.309 95.288C580.463 95.3627 580.625 95.4 580.793 95.4C580.961 95.4 581.122 95.3627 581.277 95.288C581.431 95.2133 581.567 95.088 581.685 94.912C581.805 94.736 581.899 94.5027 581.969 94.212C582.041 93.9213 582.077 93.56 582.077 93.128ZM584.129 96.064C584.092 96.1653 584.033 96.24 583.953 96.288C583.873 96.3387 583.791 96.364 583.705 96.364H583.377L585.761 90.38C585.799 90.2893 585.852 90.22 585.921 90.172C585.993 90.1213 586.076 90.096 586.169 90.096H586.501L584.129 96.064ZM587.254 91.82C587.294 91.5533 587.368 91.3187 587.478 91.116C587.587 90.9133 587.724 90.744 587.89 90.608C588.055 90.4693 588.244 90.3653 588.458 90.296C588.674 90.2267 588.906 90.192 589.154 90.192C589.402 90.192 589.63 90.228 589.838 90.3C590.046 90.3693 590.223 90.4693 590.37 90.6C590.519 90.728 590.635 90.8827 590.718 91.064C590.8 91.2453 590.842 91.4453 590.842 91.664C590.842 91.848 590.819 92.0107 590.774 92.152C590.728 92.2933 590.663 92.4173 590.578 92.524C590.495 92.6307 590.394 92.7213 590.274 92.796C590.154 92.868 590.019 92.928 589.87 92.976C590.235 93.0773 590.51 93.2427 590.694 93.472C590.878 93.6987 590.97 93.9867 590.97 94.336C590.97 94.6053 590.919 94.848 590.818 95.064C590.716 95.2773 590.578 95.4587 590.402 95.608C590.226 95.7547 590.02 95.868 589.786 95.948C589.554 96.0253 589.306 96.064 589.042 96.064C588.74 96.064 588.482 96.028 588.266 95.956C588.05 95.8813 587.866 95.7787 587.714 95.648C587.562 95.5147 587.435 95.356 587.334 95.172C587.235 94.9853 587.151 94.7813 587.082 94.56L587.422 94.416C587.51 94.3787 587.595 94.368 587.678 94.384C587.76 94.4 587.82 94.4467 587.858 94.524C587.898 94.604 587.943 94.6947 587.994 94.796C588.047 94.8947 588.118 94.9893 588.206 95.08C588.294 95.168 588.403 95.2427 588.534 95.304C588.667 95.3653 588.834 95.396 589.034 95.396C589.226 95.396 589.394 95.3653 589.538 95.304C589.682 95.24 589.802 95.1587 589.898 95.06C589.994 94.9587 590.066 94.8467 590.114 94.724C590.162 94.6013 590.186 94.48 590.186 94.36C590.186 94.2107 590.167 94.0733 590.13 93.948C590.092 93.8227 590.02 93.716 589.914 93.628C589.81 93.5373 589.664 93.4667 589.478 93.416C589.291 93.3653 589.048 93.34 588.75 93.34V92.772C588.995 92.7693 589.202 92.744 589.37 92.696C589.54 92.648 589.678 92.5813 589.782 92.496C589.886 92.4107 589.96 92.3093 590.006 92.192C590.054 92.0747 590.078 91.944 590.078 91.8C590.078 91.6427 590.054 91.5053 590.006 91.388C589.958 91.2707 589.89 91.1733 589.802 91.096C589.716 91.016 589.614 90.9573 589.494 90.92C589.376 90.88 589.248 90.86 589.11 90.86C588.971 90.86 588.843 90.88 588.726 90.92C588.608 90.96 588.504 91.016 588.414 91.088C588.323 91.16 588.247 91.2453 588.186 91.344C588.124 91.4427 588.08 91.5493 588.054 91.664C588.016 91.7653 587.968 91.8333 587.91 91.868C587.854 91.9027 587.772 91.9107 587.666 91.892L587.254 91.82Z" fill="#7D73A1"/>
<path d="M757 90C757 87.2386 759.239 85 762 85H798C800.761 85 803 87.2386 803 90V126C803 128.761 800.761 131 798 131H762C759.239 131 757 128.761 757 126V90Z" fill="white"/>
<path d="M767.396 93.204V95.444C767.105 95.652 766.796 95.808 766.468 95.912C766.14 96.0133 765.783 96.064 765.396 96.064C764.932 96.064 764.512 95.992 764.136 95.848C763.763 95.704 763.444 95.5027 763.18 95.244C762.916 94.9853 762.712 94.676 762.568 94.316C762.427 93.956 762.356 93.56 762.356 93.128C762.356 92.6933 762.424 92.296 762.56 91.936C762.699 91.5733 762.896 91.264 763.152 91.008C763.408 90.7493 763.717 90.5493 764.08 90.408C764.445 90.264 764.855 90.192 765.308 90.192C765.537 90.192 765.749 90.2093 765.944 90.244C766.141 90.2787 766.324 90.328 766.492 90.392C766.66 90.456 766.815 90.5333 766.956 90.624C767.1 90.712 767.233 90.812 767.356 90.924L767.112 91.308C767.075 91.3693 767.025 91.408 766.964 91.424C766.903 91.44 766.836 91.4253 766.764 91.38C766.695 91.34 766.617 91.2933 766.532 91.24C766.449 91.1867 766.349 91.1373 766.232 91.092C766.117 91.0467 765.983 91.008 765.828 90.976C765.673 90.944 765.491 90.928 765.28 90.928C764.965 90.928 764.681 90.98 764.428 91.084C764.175 91.1853 763.959 91.332 763.78 91.524C763.601 91.716 763.464 91.948 763.368 92.22C763.272 92.4893 763.224 92.792 763.224 93.128C763.224 93.48 763.275 93.796 763.376 94.076C763.477 94.3533 763.62 94.5893 763.804 94.784C763.991 94.976 764.216 95.1227 764.48 95.224C764.747 95.3253 765.044 95.376 765.372 95.376C765.5 95.376 765.619 95.3693 765.728 95.356C765.84 95.34 765.947 95.3187 766.048 95.292C766.149 95.2653 766.247 95.232 766.34 95.192C766.436 95.152 766.531 95.108 766.624 95.06V93.856H765.776C765.723 93.856 765.679 93.84 765.644 93.808C765.612 93.776 765.596 93.736 765.596 93.688V93.204H767.396ZM772.108 95.308L772.104 96H768.544V90.256H772.104V90.948H769.4V92.768H771.576V93.436H769.4V95.308H772.108ZM778.421 95.26C778.506 95.26 778.573 95.2853 778.621 95.336C778.669 95.384 778.693 95.448 778.693 95.528V96H774.837V95.732C774.837 95.6787 774.847 95.6227 774.869 95.564C774.89 95.5027 774.926 95.448 774.977 95.4L776.793 93.58C776.945 93.428 777.082 93.2813 777.205 93.14C777.327 92.9987 777.431 92.8587 777.517 92.72C777.602 92.5787 777.667 92.4347 777.713 92.288C777.761 92.1413 777.785 91.9867 777.785 91.824C777.785 91.664 777.759 91.524 777.709 91.404C777.658 91.2813 777.589 91.18 777.501 91.1C777.413 91.02 777.309 90.96 777.189 90.92C777.069 90.88 776.939 90.86 776.801 90.86C776.662 90.86 776.534 90.88 776.417 90.92C776.302 90.96 776.199 91.016 776.109 91.088C776.018 91.16 775.942 91.2453 775.881 91.344C775.819 91.4427 775.775 91.5493 775.749 91.664C775.711 91.7653 775.663 91.8333 775.605 91.868C775.549 91.9027 775.466 91.9107 775.357 91.892L774.949 91.82C774.986 91.5533 775.059 91.3187 775.169 91.116C775.278 90.9133 775.415 90.744 775.581 90.608C775.746 90.4693 775.935 90.3653 776.149 90.296C776.365 90.2267 776.597 90.192 776.845 90.192C777.095 90.192 777.326 90.2293 777.537 90.304C777.75 90.376 777.934 90.4813 778.089 90.62C778.243 90.7587 778.365 90.928 778.453 91.128C778.541 91.3253 778.585 91.5493 778.585 91.8C778.585 92.0133 778.553 92.212 778.489 92.396C778.427 92.5773 778.342 92.7507 778.233 92.916C778.126 93.0813 778.001 93.2427 777.857 93.4C777.715 93.5547 777.565 93.712 777.405 93.872L775.949 95.36C776.061 95.3307 776.173 95.3067 776.285 95.288C776.399 95.2693 776.507 95.26 776.609 95.26H778.421ZM780.129 96.064C780.092 96.1653 780.033 96.24 779.953 96.288C779.873 96.3387 779.791 96.364 779.705 96.364H779.377L781.761 90.38C781.799 90.2893 781.852 90.22 781.921 90.172C781.993 90.1213 782.076 90.096 782.169 90.096H782.501L780.129 96.064ZM783.254 91.82C783.294 91.5533 783.368 91.3187 783.478 91.116C783.587 90.9133 783.724 90.744 783.89 90.608C784.055 90.4693 784.244 90.3653 784.458 90.296C784.674 90.2267 784.906 90.192 785.154 90.192C785.402 90.192 785.63 90.228 785.838 90.3C786.046 90.3693 786.223 90.4693 786.37 90.6C786.519 90.728 786.635 90.8827 786.718 91.064C786.8 91.2453 786.842 91.4453 786.842 91.664C786.842 91.848 786.819 92.0107 786.774 92.152C786.728 92.2933 786.663 92.4173 786.578 92.524C786.495 92.6307 786.394 92.7213 786.274 92.796C786.154 92.868 786.019 92.928 785.87 92.976C786.235 93.0773 786.51 93.2427 786.694 93.472C786.878 93.6987 786.97 93.9867 786.97 94.336C786.97 94.6053 786.919 94.848 786.818 95.064C786.716 95.2773 786.578 95.4587 786.402 95.608C786.226 95.7547 786.02 95.868 785.786 95.948C785.554 96.0253 785.306 96.064 785.042 96.064C784.74 96.064 784.482 96.028 784.266 95.956C784.05 95.8813 783.866 95.7787 783.714 95.648C783.562 95.5147 783.435 95.356 783.334 95.172C783.235 94.9853 783.151 94.7813 783.082 94.56L783.422 94.416C783.51 94.3787 783.595 94.368 783.678 94.384C783.76 94.4 783.82 94.4467 783.858 94.524C783.898 94.604 783.943 94.6947 783.994 94.796C784.047 94.8947 784.118 94.9893 784.206 95.08C784.294 95.168 784.403 95.2427 784.534 95.304C784.667 95.3653 784.834 95.396 785.034 95.396C785.226 95.396 785.394 95.3653 785.538 95.304C785.682 95.24 785.802 95.1587 785.898 95.06C785.994 94.9587 786.066 94.8467 786.114 94.724C786.162 94.6013 786.186 94.48 786.186 94.36C786.186 94.2107 786.167 94.0733 786.13 93.948C786.092 93.8227 786.02 93.716 785.914 93.628C785.81 93.5373 785.664 93.4667 785.478 93.416C785.291 93.3653 785.048 93.34 784.75 93.34V92.772C784.995 92.7693 785.202 92.744 785.37 92.696C785.54 92.648 785.678 92.5813 785.782 92.496C785.886 92.4107 785.96 92.3093 786.006 92.192C786.054 92.0747 786.078 91.944 786.078 91.8C786.078 91.6427 786.054 91.5053 786.006 91.388C785.958 91.2707 785.89 91.1733 785.802 91.096C785.716 91.016 785.614 90.9573 785.494 90.92C785.376 90.88 785.248 90.86 785.11 90.86C784.971 90.86 784.843 90.88 784.726 90.92C784.608 90.96 784.504 91.016 784.414 91.088C784.323 91.16 784.247 91.2453 784.186 91.344C784.124 91.4427 784.08 91.5493 784.054 91.664C784.016 91.7653 783.968 91.8333 783.91 91.868C783.854 91.9027 783.772 91.9107 783.666 91.892L783.254 91.82Z" fill="#7D73A1"/>
<path d="M659 90C659 87.2386 661.239 85 664 85H700C702.761 85 705 87.2386 705 90V126C705 128.761 702.761 131 700 131H664C661.239 131 659 128.761 659 126V90Z" fill="white"/>
<path d="M669.396 93.204V95.444C669.105 95.652 668.796 95.808 668.468 95.912C668.14 96.0133 667.783 96.064 667.396 96.064C666.932 96.064 666.512 95.992 666.136 95.848C665.763 95.704 665.444 95.5027 665.18 95.244C664.916 94.9853 664.712 94.676 664.568 94.316C664.427 93.956 664.356 93.56 664.356 93.128C664.356 92.6933 664.424 92.296 664.56 91.936C664.699 91.5733 664.896 91.264 665.152 91.008C665.408 90.7493 665.717 90.5493 666.08 90.408C666.445 90.264 666.855 90.192 667.308 90.192C667.537 90.192 667.749 90.2093 667.944 90.244C668.141 90.2787 668.324 90.328 668.492 90.392C668.66 90.456 668.815 90.5333 668.956 90.624C669.1 90.712 669.233 90.812 669.356 90.924L669.112 91.308C669.075 91.3693 669.025 91.408 668.964 91.424C668.903 91.44 668.836 91.4253 668.764 91.38C668.695 91.34 668.617 91.2933 668.532 91.24C668.449 91.1867 668.349 91.1373 668.232 91.092C668.117 91.0467 667.983 91.008 667.828 90.976C667.673 90.944 667.491 90.928 667.28 90.928C666.965 90.928 666.681 90.98 666.428 91.084C666.175 91.1853 665.959 91.332 665.78 91.524C665.601 91.716 665.464 91.948 665.368 92.22C665.272 92.4893 665.224 92.792 665.224 93.128C665.224 93.48 665.275 93.796 665.376 94.076C665.477 94.3533 665.62 94.5893 665.804 94.784C665.991 94.976 666.216 95.1227 666.48 95.224C666.747 95.3253 667.044 95.376 667.372 95.376C667.5 95.376 667.619 95.3693 667.728 95.356C667.84 95.34 667.947 95.3187 668.048 95.292C668.149 95.2653 668.247 95.232 668.34 95.192C668.436 95.152 668.531 95.108 668.624 95.06V93.856H667.776C667.723 93.856 667.679 93.84 667.644 93.808C667.612 93.776 667.596 93.736 667.596 93.688V93.204H669.396ZM674.108 95.308L674.104 96H670.544V90.256H674.104V90.948H671.4V92.768H673.576V93.436H671.4V95.308H674.108ZM680.565 95.404V96H677.461V95.404H678.677V91.64C678.677 91.52 678.681 91.396 678.689 91.268L677.713 92.096C677.675 92.1253 677.638 92.144 677.601 92.152C677.563 92.16 677.527 92.1613 677.493 92.156C677.461 92.1507 677.431 92.14 677.405 92.124C677.381 92.1053 677.361 92.0867 677.345 92.068L677.101 91.728L678.821 90.244H679.457V95.404H680.565ZM682.129 96.064C682.092 96.1653 682.033 96.24 681.953 96.288C681.873 96.3387 681.791 96.364 681.705 96.364H681.377L683.761 90.38C683.799 90.2893 683.852 90.22 683.921 90.172C683.993 90.1213 684.076 90.096 684.169 90.096H684.501L682.129 96.064ZM685.254 91.82C685.294 91.5533 685.368 91.3187 685.478 91.116C685.587 90.9133 685.724 90.744 685.89 90.608C686.055 90.4693 686.244 90.3653 686.458 90.296C686.674 90.2267 686.906 90.192 687.154 90.192C687.402 90.192 687.63 90.228 687.838 90.3C688.046 90.3693 688.223 90.4693 688.37 90.6C688.519 90.728 688.635 90.8827 688.718 91.064C688.8 91.2453 688.842 91.4453 688.842 91.664C688.842 91.848 688.819 92.0107 688.774 92.152C688.728 92.2933 688.663 92.4173 688.578 92.524C688.495 92.6307 688.394 92.7213 688.274 92.796C688.154 92.868 688.019 92.928 687.87 92.976C688.235 93.0773 688.51 93.2427 688.694 93.472C688.878 93.6987 688.97 93.9867 688.97 94.336C688.97 94.6053 688.919 94.848 688.818 95.064C688.716 95.2773 688.578 95.4587 688.402 95.608C688.226 95.7547 688.02 95.868 687.786 95.948C687.554 96.0253 687.306 96.064 687.042 96.064C686.74 96.064 686.482 96.028 686.266 95.956C686.05 95.8813 685.866 95.7787 685.714 95.648C685.562 95.5147 685.435 95.356 685.334 95.172C685.235 94.9853 685.151 94.7813 685.082 94.56L685.422 94.416C685.51 94.3787 685.595 94.368 685.678 94.384C685.76 94.4 685.82 94.4467 685.858 94.524C685.898 94.604 685.943 94.6947 685.994 94.796C686.047 94.8947 686.118 94.9893 686.206 95.08C686.294 95.168 686.403 95.2427 686.534 95.304C686.667 95.3653 686.834 95.396 687.034 95.396C687.226 95.396 687.394 95.3653 687.538 95.304C687.682 95.24 687.802 95.1587 687.898 95.06C687.994 94.9587 688.066 94.8467 688.114 94.724C688.162 94.6013 688.186 94.48 688.186 94.36C688.186 94.2107 688.167 94.0733 688.13 93.948C688.092 93.8227 688.02 93.716 687.914 93.628C687.81 93.5373 687.664 93.4667 687.478 93.416C687.291 93.3653 687.048 93.34 686.75 93.34V92.772C686.995 92.7693 687.202 92.744 687.37 92.696C687.54 92.648 687.678 92.5813 687.782 92.496C687.886 92.4107 687.96 92.3093 688.006 92.192C688.054 92.0747 688.078 91.944 688.078 91.8C688.078 91.6427 688.054 91.5053 688.006 91.388C687.958 91.2707 687.89 91.1733 687.802 91.096C687.716 91.016 687.614 90.9573 687.494 90.92C687.376 90.88 687.248 90.86 687.11 90.86C686.971 90.86 686.843 90.88 686.726 90.92C686.608 90.96 686.504 91.016 686.414 91.088C686.323 91.16 686.247 91.2453 686.186 91.344C686.124 91.4427 686.08 91.5493 686.054 91.664C686.016 91.7653 685.968 91.8333 685.91 91.868C685.854 91.9027 685.772 91.9107 685.666 91.892L685.254 91.82Z" fill="#7D73A1"/>
<path d="M855 90C855 87.2386 857.239 85 860 85H896C898.761 85 901 87.2386 901 90V126C901 128.761 898.761 131 896 131H860C857.239 131 855 128.761 855 126V90Z" fill="white"/>
<path d="M865.396 93.204V95.444C865.105 95.652 864.796 95.808 864.468 95.912C864.14 96.0133 863.783 96.064 863.396 96.064C862.932 96.064 862.512 95.992 862.136 95.848C861.763 95.704 861.444 95.5027 861.18 95.244C860.916 94.9853 860.712 94.676 860.568 94.316C860.427 93.956 860.356 93.56 860.356 93.128C860.356 92.6933 860.424 92.296 860.56 91.936C860.699 91.5733 860.896 91.264 861.152 91.008C861.408 90.7493 861.717 90.5493 862.08 90.408C862.445 90.264 862.855 90.192 863.308 90.192C863.537 90.192 863.749 90.2093 863.944 90.244C864.141 90.2787 864.324 90.328 864.492 90.392C864.66 90.456 864.815 90.5333 864.956 90.624C865.1 90.712 865.233 90.812 865.356 90.924L865.112 91.308C865.075 91.3693 865.025 91.408 864.964 91.424C864.903 91.44 864.836 91.4253 864.764 91.38C864.695 91.34 864.617 91.2933 864.532 91.24C864.449 91.1867 864.349 91.1373 864.232 91.092C864.117 91.0467 863.983 91.008 863.828 90.976C863.673 90.944 863.491 90.928 863.28 90.928C862.965 90.928 862.681 90.98 862.428 91.084C862.175 91.1853 861.959 91.332 861.78 91.524C861.601 91.716 861.464 91.948 861.368 92.22C861.272 92.4893 861.224 92.792 861.224 93.128C861.224 93.48 861.275 93.796 861.376 94.076C861.477 94.3533 861.62 94.5893 861.804 94.784C861.991 94.976 862.216 95.1227 862.48 95.224C862.747 95.3253 863.044 95.376 863.372 95.376C863.5 95.376 863.619 95.3693 863.728 95.356C863.84 95.34 863.947 95.3187 864.048 95.292C864.149 95.2653 864.247 95.232 864.34 95.192C864.436 95.152 864.531 95.108 864.624 95.06V93.856H863.776C863.723 93.856 863.679 93.84 863.644 93.808C863.612 93.776 863.596 93.736 863.596 93.688V93.204H865.396ZM870.108 95.308L870.104 96H866.544V90.256H870.104V90.948H867.4V92.768H869.576V93.436H867.4V95.308H870.108ZM872.973 91.82C873.013 91.5533 873.087 91.3187 873.197 91.116C873.306 90.9133 873.443 90.744 873.609 90.608C873.774 90.4693 873.963 90.3653 874.177 90.296C874.393 90.2267 874.625 90.192 874.873 90.192C875.121 90.192 875.349 90.228 875.557 90.3C875.765 90.3693 875.942 90.4693 876.089 90.6C876.238 90.728 876.354 90.8827 876.437 91.064C876.519 91.2453 876.561 91.4453 876.561 91.664C876.561 91.848 876.538 92.0107 876.493 92.152C876.447 92.2933 876.382 92.4173 876.297 92.524C876.214 92.6307 876.113 92.7213 875.993 92.796C875.873 92.868 875.738 92.928 875.589 92.976C875.954 93.0773 876.229 93.2427 876.413 93.472C876.597 93.6987 876.689 93.9867 876.689 94.336C876.689 94.6053 876.638 94.848 876.537 95.064C876.435 95.2773 876.297 95.4587 876.121 95.608C875.945 95.7547 875.739 95.868 875.505 95.948C875.273 96.0253 875.025 96.064 874.761 96.064C874.459 96.064 874.201 96.028 873.985 95.956C873.769 95.8813 873.585 95.7787 873.433 95.648C873.281 95.5147 873.154 95.356 873.053 95.172C872.954 94.9853 872.87 94.7813 872.801 94.56L873.141 94.416C873.229 94.3787 873.314 94.368 873.397 94.384C873.479 94.4 873.539 94.4467 873.577 94.524C873.617 94.604 873.662 94.6947 873.713 94.796C873.766 94.8947 873.837 94.9893 873.925 95.08C874.013 95.168 874.122 95.2427 874.253 95.304C874.386 95.3653 874.553 95.396 874.753 95.396C874.945 95.396 875.113 95.3653 875.257 95.304C875.401 95.24 875.521 95.1587 875.617 95.06C875.713 94.9587 875.785 94.8467 875.833 94.724C875.881 94.6013 875.905 94.48 875.905 94.36C875.905 94.2107 875.886 94.0733 875.849 93.948C875.811 93.8227 875.739 93.716 875.633 93.628C875.529 93.5373 875.383 93.4667 875.197 93.416C875.01 93.3653 874.767 93.34 874.469 93.34V92.772C874.714 92.7693 874.921 92.744 875.089 92.696C875.259 92.648 875.397 92.5813 875.501 92.496C875.605 92.4107 875.679 92.3093 875.725 92.192C875.773 92.0747 875.797 91.944 875.797 91.8C875.797 91.6427 875.773 91.5053 875.725 91.388C875.677 91.2707 875.609 91.1733 875.521 91.096C875.435 91.016 875.333 90.9573 875.213 90.92C875.095 90.88 874.967 90.86 874.829 90.86C874.69 90.86 874.562 90.88 874.445 90.92C874.327 90.96 874.223 91.016 874.133 91.088C874.042 91.16 873.966 91.2453 873.905 91.344C873.843 91.4427 873.799 91.5493 873.773 91.664C873.735 91.7653 873.687 91.8333 873.629 91.868C873.573 91.9027 873.491 91.9107 873.385 91.892L872.973 91.82ZM878.129 96.064C878.092 96.1653 878.033 96.24 877.953 96.288C877.873 96.3387 877.791 96.364 877.705 96.364H877.377L879.761 90.38C879.799 90.2893 879.852 90.22 879.921 90.172C879.993 90.1213 880.076 90.096 880.169 90.096H880.501L878.129 96.064ZM881.254 91.82C881.294 91.5533 881.368 91.3187 881.478 91.116C881.587 90.9133 881.724 90.744 881.89 90.608C882.055 90.4693 882.244 90.3653 882.458 90.296C882.674 90.2267 882.906 90.192 883.154 90.192C883.402 90.192 883.63 90.228 883.838 90.3C884.046 90.3693 884.223 90.4693 884.37 90.6C884.519 90.728 884.635 90.8827 884.718 91.064C884.8 91.2453 884.842 91.4453 884.842 91.664C884.842 91.848 884.819 92.0107 884.774 92.152C884.728 92.2933 884.663 92.4173 884.578 92.524C884.495 92.6307 884.394 92.7213 884.274 92.796C884.154 92.868 884.019 92.928 883.87 92.976C884.235 93.0773 884.51 93.2427 884.694 93.472C884.878 93.6987 884.97 93.9867 884.97 94.336C884.97 94.6053 884.919 94.848 884.818 95.064C884.716 95.2773 884.578 95.4587 884.402 95.608C884.226 95.7547 884.02 95.868 883.786 95.948C883.554 96.0253 883.306 96.064 883.042 96.064C882.74 96.064 882.482 96.028 882.266 95.956C882.05 95.8813 881.866 95.7787 881.714 95.648C881.562 95.5147 881.435 95.356 881.334 95.172C881.235 94.9853 881.151 94.7813 881.082 94.56L881.422 94.416C881.51 94.3787 881.595 94.368 881.678 94.384C881.76 94.4 881.82 94.4467 881.858 94.524C881.898 94.604 881.943 94.6947 881.994 94.796C882.047 94.8947 882.118 94.9893 882.206 95.08C882.294 95.168 882.403 95.2427 882.534 95.304C882.667 95.3653 882.834 95.396 883.034 95.396C883.226 95.396 883.394 95.3653 883.538 95.304C883.682 95.24 883.802 95.1587 883.898 95.06C883.994 94.9587 884.066 94.8467 884.114 94.724C884.162 94.6013 884.186 94.48 884.186 94.36C884.186 94.2107 884.167 94.0733 884.13 93.948C884.092 93.8227 884.02 93.716 883.914 93.628C883.81 93.5373 883.664 93.4667 883.478 93.416C883.291 93.3653 883.048 93.34 882.75 93.34V92.772C882.995 92.7693 883.202 92.744 883.37 92.696C883.54 92.648 883.678 92.5813 883.782 92.496C883.886 92.4107 883.96 92.3093 884.006 92.192C884.054 92.0747 884.078 91.944 884.078 91.8C884.078 91.6427 884.054 91.5053 884.006 91.388C883.958 91.2707 883.89 91.1733 883.802 91.096C883.716 91.016 883.614 90.9573 883.494 90.92C883.376 90.88 883.248 90.86 883.11 90.86C882.971 90.86 882.843 90.88 882.726 90.92C882.608 90.96 882.504 91.016 882.414 91.088C882.323 91.16 882.247 91.2453 882.186 91.344C882.124 91.4427 882.08 91.5493 882.054 91.664C882.016 91.7653 881.968 91.8333 881.91 91.868C881.854 91.9027 881.772 91.9107 881.666 91.892L881.254 91.82Z" fill="#7D73A1"/>
</g>
<defs>
<filter id="filter0_i_5_388" x="0" y="0" width="1052" height="171" filterUnits="userSpaceOnUse" color-interpolation-filters="sRGB">
<feFlood flood-opacity="0" result="BackgroundImageFix"/>
<feBlend mode="normal" in="SourceGraphic" in2="BackgroundImageFix" result="shape"/>
<feColorMatrix in="SourceAlpha" type="matrix" values="0 0 0 0 0 0 0 0 0 0 0 0 0 0 0 0 0 0 127 0" result="hardAlpha"/>
<feOffset dy="4"/>
<feGaussianBlur stdDeviation="2"/>
<feComposite in2="hardAlpha" operator="arithmetic" k2="-1" k3="1"/>
<feColorMatrix type="matrix" values="0 0 0 0 0.576471 0 0 0 0 0.776471 0 0 0 0 0.905882 0 0 0 0.25 0"/>
<feBlend mode="normal" in2="shape" result="effect1_innerShadow_5_388"/>
</filter>
<linearGradient id="paint0_linear_5_388" x1="42.1597" y1="165" x2="42.1597" y2="-1.5" gradientUnits="userSpaceOnUse">
<stop stop-color="#93C6E7"/>
<stop offset="0.576042" stop-color="#93C6E7" stop-opacity="0.580208"/>
<stop offset="1" stop-color="white"/>
</linearGradient>
<linearGradient id="paint1_linear_5_388" x1="1010.16" y1="165" x2="1010.16" y2="-1.5" gradientUnits="userSpaceOnUse">
<stop stop-color="#93C6E7"/>
<stop offset="0.576042" stop-color="#93C6E7" stop-opacity="0.580208"/>
<stop offset="1" stop-color="white"/>
</linearGradient>
<linearGradient id="paint2_linear_5_388" x1="527.681" y1="165" x2="527.681" y2="-1.5" gradientUnits="userSpaceOnUse">
<stop stop-color="#93C6E7"/>
<stop offset="0.576042" stop-color="#93C6E7" stop-opacity="0.580208"/>
<stop offset="1" stop-color="white"/>
</linearGradient>
<clipPath id="clip0_5_388">
<rect width="1052" height="167" fill="white"/>
</clipPath>
</defs>
</svg>
