<svg width="306" height="112" viewBox="0 0 306 112" fill="none" xmlns="http://www.w3.org/2000/svg">
<path d="M37.84 32.56C37.44 33.2 37.0133 33.68 36.56 34C36.1333 34.32 35.5733 34.48 34.88 34.48C34.2667 34.48 33.6 34.2933 32.88 33.92C32.1867 33.52 31.3867 33.08 30.48 32.6C29.6 32.12 28.5867 31.6933 27.44 31.32C26.2933 30.92 24.9867 30.72 23.52 30.72C20.9867 30.72 19.0933 31.2667 17.84 32.36C16.6133 33.4267 16 34.88 16 36.72C16 37.8933 16.3733 38.8667 17.12 39.64C17.8667 40.4133 18.84 41.08 20.04 41.64C21.2667 42.2 22.6533 42.72 24.2 43.2C25.7733 43.6533 27.3733 44.1733 29 44.76C30.6267 45.32 32.2133 45.9867 33.76 46.76C35.3333 47.5333 36.72 48.52 37.92 49.72C39.1467 50.92 40.1333 52.3867 40.88 54.12C41.6267 55.8267 42 57.8933 42 60.32C42 63.0133 41.5333 65.5333 40.6 67.88C39.6667 70.2267 38.3067 72.28 36.52 74.04C34.76 75.7733 32.5733 77.1467 29.96 78.16C27.3733 79.1467 24.4267 79.64 21.12 79.64C19.3067 79.64 17.4533 79.4533 15.56 79.08C13.6933 78.7067 11.88 78.1867 10.12 77.52C8.36 76.8267 6.70667 76.0133 5.16 75.08C3.61333 74.1467 2.26667 73.1067 1.12 71.96L5.12 65.64C5.44 65.1867 5.85333 64.8133 6.36 64.52C6.89333 64.2 7.46667 64.04 8.08 64.04C8.88 64.04 9.68 64.2933 10.48 64.8C11.3067 65.3067 12.2267 65.8667 13.24 66.48C14.28 67.0933 15.4667 67.6533 16.8 68.16C18.1333 68.6667 19.7067 68.92 21.52 68.92C23.9733 68.92 25.88 68.3867 27.24 67.32C28.6 66.2267 29.28 64.5067 29.28 62.16C29.28 60.8 28.9067 59.6933 28.16 58.84C27.4133 57.9867 26.4267 57.28 25.2 56.72C24 56.16 22.6267 55.6667 21.08 55.24C19.5333 54.8133 17.9467 54.3467 16.32 53.84C14.6933 53.3067 13.1067 52.6667 11.56 51.92C10.0133 51.1467 8.62667 50.1467 7.4 48.92C6.2 47.6667 5.22667 46.12 4.48 44.28C3.73333 42.4133 3.36 40.12 3.36 37.4C3.36 35.2133 3.8 33.08 4.68 31C5.56 28.92 6.85333 27.0667 8.56 25.44C10.2667 23.8133 12.36 22.52 14.84 21.56C17.32 20.5733 20.16 20.08 23.36 20.08C25.1467 20.08 26.88 20.2267 28.56 20.52C30.2667 20.7867 31.88 21.2 33.4 21.76C34.92 22.2933 36.3333 22.9467 37.64 23.72C38.9733 24.4667 40.16 25.32 41.2 26.28L37.84 32.56ZM63.5369 79H49.9369V20.72H63.5369V79ZM140.301 20.72V79H128.381V45.48C128.381 44.7067 128.394 43.8667 128.421 42.96C128.474 42.0533 128.554 41.1333 128.661 40.2L113.181 70.16C112.701 71.0933 112.047 71.8 111.221 72.28C110.421 72.76 109.501 73 108.461 73H106.621C105.581 73 104.647 72.76 103.821 72.28C103.021 71.8 102.381 71.0933 101.901 70.16L86.4206 40.12C86.5006 41.08 86.5673 42.0267 86.6206 42.96C86.674 43.8667 86.7006 44.7067 86.7006 45.48V79H74.7806V20.72H85.1006C85.6873 20.72 86.194 20.7333 86.6206 20.76C87.074 20.7867 87.474 20.8667 87.8206 21C88.1673 21.1333 88.474 21.3467 88.7406 21.64C89.034 21.9067 89.314 22.2933 89.5806 22.8L104.581 52.36C105.114 53.3733 105.621 54.4267 106.101 55.52C106.607 56.6133 107.087 57.7333 107.541 58.88C107.994 57.7067 108.461 56.56 108.941 55.44C109.447 54.32 109.981 53.2533 110.541 52.24L125.501 22.8C125.767 22.2933 126.034 21.9067 126.301 21.64C126.594 21.3467 126.914 21.1333 127.261 21C127.607 20.8667 127.994 20.7867 128.421 20.76C128.874 20.7333 129.394 20.72 129.981 20.72H140.301ZM172.138 49.32C175.658 49.32 178.191 48.48 179.738 46.8C181.284 45.12 182.058 42.7733 182.058 39.76C182.058 38.4267 181.858 37.2133 181.458 36.12C181.058 35.0267 180.444 34.0933 179.618 33.32C178.818 32.52 177.791 31.9067 176.538 31.48C175.311 31.0533 173.844 30.84 172.138 30.84H165.098V49.32H172.138ZM172.138 20.72C176.244 20.72 179.764 21.2133 182.698 22.2C185.658 23.16 188.084 24.4933 189.978 26.2C191.898 27.9067 193.311 29.92 194.218 32.24C195.124 34.56 195.578 37.0667 195.578 39.76C195.578 42.6667 195.111 45.3333 194.178 47.76C193.244 50.1867 191.818 52.2667 189.898 54C187.978 55.7333 185.538 57.0933 182.578 58.08C179.644 59.04 176.164 59.52 172.138 59.52H165.098V79H151.578V20.72H172.138ZM237.557 68.2V79H202.437V20.72H215.957V68.2H237.557ZM258.068 31.12V44.72H276.388V54.72H258.068V68.6H281.988V79H244.468V20.72H281.988V31.12H258.068Z" fill="#7D73A1"/>
<path d="M10.8075 92.757C12.2595 92.757 13.3045 92.4105 13.9425 91.7175C14.5805 91.0245 14.8995 90.0565 14.8995 88.8135C14.8995 88.2635 14.817 87.763 14.652 87.312C14.487 86.861 14.234 86.476 13.893 86.157C13.563 85.827 13.1395 85.574 12.6225 85.398C12.1165 85.222 11.5115 85.134 10.8075 85.134H7.9035V92.757H10.8075ZM10.8075 80.9595C12.5015 80.9595 13.9535 81.163 15.1635 81.57C16.3845 81.966 17.3855 82.516 18.1665 83.22C18.9585 83.924 19.5415 84.7545 19.9155 85.7115C20.2895 86.6685 20.4765 87.7025 20.4765 88.8135C20.4765 90.0125 20.284 91.1125 19.899 92.1135C19.514 93.1145 18.9255 93.9725 18.1335 94.6875C17.3415 95.4025 16.335 95.9635 15.114 96.3705C13.904 96.7665 12.4685 96.9645 10.8075 96.9645H7.9035V105H2.3265V80.9595H10.8075ZM46.901 92.9715C46.901 94.7095 46.5985 96.3265 45.9935 97.8225C45.3995 99.3185 44.558 100.622 43.469 101.733C42.38 102.833 41.0655 103.696 39.5255 104.323C37.9965 104.951 36.297 105.264 34.427 105.264C32.557 105.264 30.852 104.951 29.312 104.323C27.772 103.696 26.452 102.833 25.352 101.733C24.263 100.622 23.416 99.3185 22.811 97.8225C22.217 96.3265 21.92 94.7095 21.92 92.9715C21.92 91.2335 22.217 89.6165 22.811 88.1205C23.416 86.6245 24.263 85.3265 25.352 84.2265C26.452 83.1265 27.772 82.263 29.312 81.636C30.852 81.009 32.557 80.6955 34.427 80.6955C36.297 80.6955 37.9965 81.0145 39.5255 81.6525C41.0655 82.2795 42.38 83.143 43.469 84.243C44.558 85.343 45.3995 86.641 45.9935 88.137C46.5985 89.633 46.901 91.2445 46.901 92.9715ZM41.192 92.9715C41.192 91.7835 41.038 90.7165 40.73 89.7705C40.422 88.8135 39.9765 88.005 39.3935 87.345C38.8215 86.685 38.1175 86.179 37.2815 85.827C36.4455 85.475 35.494 85.299 34.427 85.299C33.349 85.299 32.3865 85.475 31.5395 85.827C30.7035 86.179 29.994 86.685 29.411 87.345C28.839 88.005 28.399 88.8135 28.091 89.7705C27.783 90.7165 27.629 91.7835 27.629 92.9715C27.629 94.1705 27.783 95.2485 28.091 96.2055C28.399 97.1515 28.839 97.9545 29.411 98.6145C29.994 99.2745 30.7035 99.7805 31.5395 100.132C32.3865 100.473 33.349 100.644 34.427 100.644C35.494 100.644 36.4455 100.473 37.2815 100.132C38.1175 99.7805 38.8215 99.2745 39.3935 98.6145C39.9765 97.9545 40.422 97.1515 40.73 96.2055C41.038 95.2485 41.192 94.1705 41.192 92.9715ZM58.0039 92.262C58.7629 92.262 59.4064 92.1685 59.9344 91.9815C60.4734 91.7835 60.9134 91.514 61.2544 91.173C61.5954 90.832 61.8429 90.436 61.9969 89.985C62.1509 89.523 62.2279 89.028 62.2279 88.5C62.2279 87.444 61.8814 86.619 61.1884 86.025C60.5064 85.431 59.4449 85.134 58.0039 85.134H55.7599V92.262H58.0039ZM69.8509 105H64.8019C63.8669 105 63.1959 104.648 62.7889 103.944L58.7959 96.9645C58.6089 96.6675 58.3999 96.453 58.1689 96.321C57.9379 96.178 57.6079 96.1065 57.1789 96.1065H55.7599V105H50.1829V80.9595H58.0039C59.7419 80.9595 61.2214 81.141 62.4424 81.504C63.6744 81.856 64.6754 82.351 65.4454 82.989C66.2264 83.627 66.7929 84.3805 67.1449 85.2495C67.4969 86.1185 67.6729 87.0645 67.6729 88.0875C67.6729 88.8685 67.5684 89.6055 67.3594 90.2985C67.1504 90.9915 66.8424 91.635 66.4354 92.229C66.0284 92.812 65.5224 93.3345 64.9174 93.7965C64.3234 94.2585 63.6359 94.638 62.8549 94.935C63.2179 95.122 63.5589 95.3585 63.8779 95.6445C64.1969 95.9195 64.4829 96.2495 64.7359 96.6345L69.8509 105ZM88.6635 85.3815H81.8985V105H76.3215V85.3815H69.5565V80.9595H88.6635V85.3815ZM118.445 80.9595L108.809 105H103.76L94.1237 80.9595H98.6117C99.0957 80.9595 99.4862 81.075 99.7832 81.306C100.08 81.526 100.306 81.812 100.46 82.164L105.113 95.034C105.333 95.595 105.547 96.211 105.756 96.882C105.965 97.542 106.163 98.235 106.35 98.961C106.504 98.235 106.675 97.542 106.862 96.882C107.06 96.211 107.269 95.595 107.489 95.034L112.109 82.164C112.23 81.856 112.444 81.581 112.752 81.339C113.071 81.086 113.462 80.9595 113.924 80.9595H118.445ZM125.95 105H120.34V80.9595H125.95V105ZM143.871 85.8435C143.706 86.1075 143.53 86.3055 143.343 86.4375C143.167 86.5695 142.936 86.6355 142.65 86.6355C142.397 86.6355 142.122 86.5585 141.825 86.4045C141.539 86.2395 141.209 86.058 140.835 85.86C140.472 85.662 140.054 85.486 139.581 85.332C139.108 85.167 138.569 85.0845 137.964 85.0845C136.919 85.0845 136.138 85.31 135.621 85.761C135.115 86.201 134.862 86.8005 134.862 87.5595C134.862 88.0435 135.016 88.445 135.324 88.764C135.632 89.083 136.033 89.358 136.528 89.589C137.034 89.82 137.606 90.0345 138.244 90.2325C138.893 90.4195 139.553 90.634 140.224 90.876C140.895 91.107 141.55 91.382 142.188 91.701C142.837 92.02 143.409 92.427 143.904 92.922C144.41 93.417 144.817 94.022 145.125 94.737C145.433 95.441 145.587 96.2935 145.587 97.2945C145.587 98.4055 145.394 99.445 145.009 100.413C144.624 101.381 144.063 102.228 143.326 102.954C142.6 103.669 141.698 104.235 140.62 104.653C139.553 105.06 138.338 105.264 136.974 105.264C136.226 105.264 135.461 105.187 134.68 105.033C133.91 104.879 133.162 104.664 132.436 104.389C131.71 104.103 131.028 103.768 130.39 103.383C129.752 102.998 129.197 102.569 128.724 102.096L130.374 99.489C130.506 99.302 130.676 99.148 130.885 99.027C131.105 98.895 131.342 98.829 131.595 98.829C131.925 98.829 132.255 98.9335 132.585 99.1425C132.926 99.3515 133.305 99.5825 133.723 99.8355C134.152 100.088 134.642 100.319 135.192 100.528C135.742 100.737 136.391 100.842 137.139 100.842C138.151 100.842 138.937 100.622 139.498 100.182C140.059 99.731 140.34 99.0215 140.34 98.0535C140.34 97.4925 140.186 97.036 139.878 96.684C139.57 96.332 139.163 96.0405 138.657 95.8095C138.162 95.5785 137.595 95.375 136.957 95.199C136.319 95.023 135.665 94.8305 134.994 94.6215C134.323 94.4015 133.668 94.1375 133.03 93.8295C132.392 93.5105 131.82 93.098 131.314 92.592C130.819 92.075 130.418 91.437 130.11 90.678C129.802 89.908 129.648 88.962 129.648 87.84C129.648 86.938 129.829 86.058 130.192 85.2C130.555 84.342 131.089 83.5775 131.793 82.9065C132.497 82.2355 133.36 81.702 134.383 81.306C135.406 80.899 136.578 80.6955 137.898 80.6955C138.635 80.6955 139.35 80.756 140.043 80.877C140.747 80.987 141.412 81.1575 142.039 81.3885C142.666 81.6085 143.249 81.878 143.788 82.197C144.338 82.505 144.828 82.857 145.257 83.253L143.871 85.8435ZM158.893 100.594C159.641 100.594 160.306 100.473 160.889 100.231C161.483 99.9785 161.984 99.621 162.391 99.159C162.798 98.697 163.106 98.136 163.315 97.476C163.535 96.805 163.645 96.046 163.645 95.199V80.9595H169.222V95.199C169.222 96.673 168.98 98.026 168.496 99.258C168.023 100.49 167.341 101.551 166.45 102.442C165.559 103.333 164.475 104.026 163.199 104.521C161.923 105.017 160.488 105.264 158.893 105.264C157.287 105.264 155.846 105.017 154.57 104.521C153.294 104.026 152.21 103.333 151.319 102.442C150.428 101.551 149.746 100.49 149.273 99.258C148.8 98.026 148.564 96.673 148.564 95.199V80.9595H154.141V95.1825C154.141 96.0295 154.245 96.7885 154.454 97.4595C154.674 98.1195 154.988 98.686 155.395 99.159C155.802 99.621 156.297 99.9785 156.88 100.231C157.474 100.473 158.145 100.594 158.893 100.594ZM185.671 95.8095L183.444 89.226C183.279 88.808 183.103 88.3185 182.916 87.7575C182.729 87.1855 182.542 86.5695 182.355 85.9095C182.19 86.5805 182.014 87.202 181.827 87.774C181.64 88.346 181.464 88.841 181.299 89.259L179.088 95.8095H185.671ZM194.532 105H190.209C189.725 105 189.334 104.89 189.037 104.67C188.74 104.439 188.515 104.147 188.361 103.795L186.942 99.6045H177.801L176.382 103.795C176.261 104.103 176.041 104.384 175.722 104.637C175.414 104.879 175.029 105 174.567 105H170.211L179.517 80.9595H185.226L194.532 105ZM210.914 100.545V105H196.427V80.9595H202.004V100.545H210.914ZM219.375 105H213.765V80.9595H219.375V105ZM241.058 82.9725C241.058 83.2585 241.008 83.539 240.909 83.814C240.821 84.089 240.695 84.3475 240.53 84.5895L229.244 100.71H240.695V105H222.149V102.855C222.149 102.602 222.193 102.354 222.281 102.112C222.369 101.859 222.49 101.628 222.644 101.419L233.963 85.2495H223.073V80.9595H241.058V82.9725ZM249.732 85.2495V90.8595H257.289V94.9845H249.732V100.71H259.599V105H244.122V80.9595H259.599V85.2495H249.732ZM270.86 92.262C271.619 92.262 272.263 92.1685 272.791 91.9815C273.33 91.7835 273.77 91.514 274.111 91.173C274.452 90.832 274.699 90.436 274.853 89.985C275.007 89.523 275.084 89.028 275.084 88.5C275.084 87.444 274.738 86.619 274.045 86.025C273.363 85.431 272.301 85.134 270.86 85.134H268.616V92.262H270.86ZM282.707 105H277.658C276.723 105 276.052 104.648 275.645 103.944L271.652 96.9645C271.465 96.6675 271.256 96.453 271.025 96.321C270.794 96.178 270.464 96.1065 270.035 96.1065H268.616V105H263.039V80.9595H270.86C272.598 80.9595 274.078 81.141 275.299 81.504C276.531 81.856 277.532 82.351 278.302 82.989C279.083 83.627 279.649 84.3805 280.001 85.2495C280.353 86.1185 280.529 87.0645 280.529 88.0875C280.529 88.8685 280.425 89.6055 280.216 90.2985C280.007 90.9915 279.699 91.635 279.292 92.229C278.885 92.812 278.379 93.3345 277.774 93.7965C277.18 94.2585 276.492 94.638 275.711 94.935C276.074 95.122 276.415 95.3585 276.734 95.6445C277.053 95.9195 277.339 96.2495 277.592 96.6345L282.707 105Z" fill="#7D73A1"/>
</svg>
