<svg width="1052" height="167" viewBox="0 0 1052 167" fill="none" xmlns="http://www.w3.org/2000/svg">
<g clip-path="url(#clip0_41_35)" filter="url(#filter0_i_41_35)">
<path d="M0 15C0 6.71573 6.71573 0 15 0H84V167H15C6.71573 167 0 160.284 0 152V15Z" fill="url(#paint0_linear_41_35)"/>
<path d="M968 0H1037C1045.28 0 1052 6.71573 1052 15V152C1052 160.284 1045.28 167 1037 167H968V0Z" fill="url(#paint1_linear_41_35)"/>
<rect x="84" width="884" height="167" fill="url(#paint2_linear_41_35)"/>
<path d="M22 24C22 17.3726 27.3726 12 34 12H52C58.6274 12 64 17.3726 64 24V24C64 30.6274 58.6274 36 52 36H34C27.3726 36 22 30.6274 22 24V24Z" fill="white"/>
<path d="M990 24C990 17.3726 995.373 12 1002 12H1020C1026.63 12 1032 17.3726 1032 24V24C1032 30.6274 1026.63 36 1020 36H1002C995.373 36 990 30.6274 990 24V24Z" fill="white"/>
<path d="M990 143C990 136.373 995.373 131 1002 131H1020C1026.63 131 1032 136.373 1032 143V143C1032 149.627 1026.63 155 1020 155H1002C995.373 155 990 149.627 990 143V143Z" fill="white"/>
<path d="M22 143C22 136.373 27.3726 131 34 131H52C58.6274 131 64 136.373 64 143V143C64 149.627 58.6274 155 52 155H34C27.3726 155 22 149.627 22 143V143Z" fill="white"/>
</g>
<defs>
<filter id="filter0_i_41_35" x="0" y="0" width="1052" height="171" filterUnits="userSpaceOnUse" color-interpolation-filters="sRGB">
<feFlood flood-opacity="0" result="BackgroundImageFix"/>
<feBlend mode="normal" in="SourceGraphic" in2="BackgroundImageFix" result="shape"/>
<feColorMatrix in="SourceAlpha" type="matrix" values="0 0 0 0 0 0 0 0 0 0 0 0 0 0 0 0 0 0 127 0" result="hardAlpha"/>
<feOffset dy="4"/>
<feGaussianBlur stdDeviation="2"/>
<feComposite in2="hardAlpha" operator="arithmetic" k2="-1" k3="1"/>
<feColorMatrix type="matrix" values="0 0 0 0 0.635294 0 0 0 0 0.682353 0 0 0 0 0.717647 0 0 0 0.25 0"/>
<feBlend mode="normal" in2="shape" result="effect1_innerShadow_41_35"/>
</filter>
<linearGradient id="paint0_linear_41_35" x1="42.1597" y1="165" x2="42.1597" y2="-1.5" gradientUnits="userSpaceOnUse">
<stop stop-color="#A2AEB7"/>
<stop offset="1" stop-color="white"/>
</linearGradient>
<linearGradient id="paint1_linear_41_35" x1="1010.16" y1="165" x2="1010.16" y2="-1.5" gradientUnits="userSpaceOnUse">
<stop stop-color="#A2AEB7"/>
<stop offset="1" stop-color="white"/>
</linearGradient>
<linearGradient id="paint2_linear_41_35" x1="527.681" y1="165" x2="527.681" y2="-1.5" gradientUnits="userSpaceOnUse">
<stop stop-color="#A2AEB7"/>
<stop offset="1" stop-color="white"/>
</linearGradient>
<clipPath id="clip0_41_35">
<rect width="1052" height="167" fill="white"/>
</clipPath>
</defs>
</svg>
